<svg xmlns="http://www.w3.org/2000/svg" width="262.532" height="198.648" viewBox="0 0 262.532 198.648"><path style="color: grey;" d="M716.5,357.131a39.647,39.647,0,0,0,33.043,8.762c11.692-2.183,22.556-9.651,28.068-20.609l.958-2.077c.289-.7.512-1.436.77-2.155l.374-1.083c.1-.368.182-.741.273-1.112.173-.744.368-1.484.521-2.233a34.478,34.478,0,0,0,.475-4.559l.042-1.148.02-.573-.031-.573-.135-2.293a33.612,33.612,0,0,0-6.584-16.955,32.953,32.953,0,0,0-3-3.5c-.534-.554-1.139-1.035-1.706-1.554A16.793,16.793,0,0,0,767.8,304l-.951-.683a8.82,8.82,0,0,0-.974-.649l-2.032-1.169-2.139-.962c-.716-.314-1.475-.518-2.212-.779a27.1,27.1,0,0,0-26.3,5.758l-.858.8a8.013,8.013,0,0,0-.822.836l-1.542,1.768c-.459.649-.936,1.286-1.372,1.951-.386.7-.813,1.371-1.156,2.089a22.433,22.433,0,0,0-.468,18.492,22.169,22.169,0,0,0,5.512,7.659,18.092,18.092,0,0,0,17.924,3.976,17.888,17.888,0,0,0,7.861-5.271c.254-.309.53-.588.762-.921l.7-1a15.632,15.632,0,0,0,1.108-2.162,14.756,14.756,0,0,0,1.095-4.7,14.529,14.529,0,0,0-2.571-9.1,14.827,14.827,0,0,0-3.37-3.373,11.573,11.573,0,0,0-4.423-1.906,11.428,11.428,0,0,0-9.1,2.037,10.9,10.9,0,0,0-3.092,3.586,9.17,9.17,0,0,0-1.005,4.626,8.87,8.87,0,0,0,4.889,7.549,7.215,7.215,0,0,0,4.572.476,6.987,6.987,0,0,0,3.846-2.363,5.563,5.563,0,0,0,1.277-4.224,5.4,5.4,0,0,0-2.144-3.726,5.248,5.248,0,0,1,1.844,3.751,5.106,5.106,0,0,1-1.43,3.8,6.239,6.239,0,0,1-7.48,1.294,7.385,7.385,0,0,1-2.807-2.8,7.639,7.639,0,0,1-1.027-3.8,7.514,7.514,0,0,1,1-3.751,9.084,9.084,0,0,1,2.7-2.832,9.318,9.318,0,0,1,7.474-1.392,9.207,9.207,0,0,1,3.461,1.646,12.353,12.353,0,0,1,2.658,2.866,12.059,12.059,0,0,1,1.863,7.431,11.832,11.832,0,0,1-.975,3.722,10.93,10.93,0,0,1-2.142,3.2,14.8,14.8,0,0,1-16.118,3.824c-.306-.105-.591-.264-.888-.391a6.524,6.524,0,0,1-.866-.434l-.838-.489c-.277-.167-.526-.378-.791-.562a14.4,14.4,0,0,1-1.51-1.266,18.462,18.462,0,0,1-4.491-6.45,19.085,19.085,0,0,1-1.394-7.72,18.472,18.472,0,0,1,1.88-7.593c.284-.591.647-1.142.962-1.718.365-.546.766-1.069,1.142-1.608l1.333-1.508a6.106,6.106,0,0,1,.709-.712l.739-.682a23.9,23.9,0,0,1,6.782-4.228,23.615,23.615,0,0,1,15.756-.747c.631.225,1.286.388,1.9.657l1.841.815,1.75,1a6.936,6.936,0,0,1,.84.555l.821.585a13.789,13.789,0,0,1,1.58,1.283c.5.459,1.049.879,1.524,1.369a32.333,32.333,0,0,1,2.7,3.075,29.992,29.992,0,0,1,6.113,15.035l.153,2.056.038.514-.012.515-.022,1.031a34.669,34.669,0,0,1-.347,4.11c-.12.677-.281,1.347-.418,2.023-.073.337-.137.676-.217,1.011l-.314.985c-.217.654-.4,1.323-.642,1.967l-.819,1.9a14.791,14.791,0,0,1-.941,1.846l-.5.908a7.049,7.049,0,0,1-.536.889,41.131,41.131,0,0,1-2.469,3.363,39.382,39.382,0,0,1-6.034,5.847,38.937,38.937,0,0,1-15.188,7.186,40.115,40.115,0,0,1-32.649-6.858Z" transform="translate(-518.516 -167.908)" fill="#181818"/><path d="M774.782,200.778a56.028,56.028,0,0,0,10.305-6.161,54.916,54.916,0,0,0,8.743-8.326,51.577,51.577,0,0,0,6.679-10.128,54.828,54.828,0,0,0,4.262-11.42,53.126,53.126,0,0,0-3.884-35.972,45.549,45.549,0,0,0-3.048-5.409,47.4,47.4,0,0,0-3.787-4.946,44.907,44.907,0,0,0-4.435-4.383c-.771-.7-1.613-1.314-2.424-1.967-.852-.6-1.678-1.235-2.566-1.78a47.321,47.321,0,0,0-11.267-5.33,48.2,48.2,0,0,0-24.745-1.192,46.44,46.44,0,0,0-11.779,4.291,38.591,38.591,0,0,0-5.351,3.428,37.888,37.888,0,0,0-4.689,4.309,36.143,36.143,0,0,0-9.529,23.148,35.5,35.5,0,0,0,4.488,18.421l.833,1.388.418.692c.139.231.316.437.472.657l.97,1.3c.164.214.32.435.492.642l.546.6a31.052,31.052,0,0,0,35.31,7.99,24.672,24.672,0,0,0,10.3-7.72,22.779,22.779,0,0,0,4.962-15.2,23.017,23.017,0,0,0-.331-3.238,23.272,23.272,0,0,0-2.031-6.145,18.9,18.9,0,0,0-3.747-5.346,20.217,20.217,0,0,0-17.928-5.6,20.649,20.649,0,0,0-6.06,2.186,15.676,15.676,0,0,0-4.9,4.284,15.286,15.286,0,0,0-2.695,5.9,14.739,14.739,0,0,0,.075,6.452,11.1,11.1,0,0,0,.46,1.55l.279.758c.1.25.229.486.343.729l.355.723c.133.235.284.465.426.7a12.346,12.346,0,0,0,.957,1.32,12.688,12.688,0,0,0,5.242,3.681,13.332,13.332,0,0,0,3.114.744,12.846,12.846,0,0,0,3.186-.058,11.76,11.76,0,0,0,5.8-2.457,9.613,9.613,0,0,0,3.248-5.341,9.149,9.149,0,0,0-.82-6.1,7.765,7.765,0,0,0-10.513-3.313,7.567,7.567,0,0,1,5.775-.226,7.158,7.158,0,0,1,4.12,3.838,8.354,8.354,0,0,1,.489,5.577,8.5,8.5,0,0,1-3.082,4.577,10.623,10.623,0,0,1-5.2,1.929,11.234,11.234,0,0,1-2.791-.057,11.638,11.638,0,0,1-2.675-.752,10.811,10.811,0,0,1-4.337-3.3,12.354,12.354,0,0,1-2.19-4.994,12.624,12.624,0,0,1,.109-5.437,12.773,12.773,0,0,1,2.4-4.848,12.971,12.971,0,0,1,4.163-3.418,17.8,17.8,0,0,1,5.223-1.7,17.594,17.594,0,0,1,10.656,1.783,16.149,16.149,0,0,1,7.317,7.753,19.644,19.644,0,0,1,1.6,5.231,19.281,19.281,0,0,1,.214,2.724,19.389,19.389,0,0,1-4.345,12.637,20.669,20.669,0,0,1-1.827,2.016c-.323.319-.69.592-1.031.891a8.952,8.952,0,0,1-1.073.838l-1.124.773c-.381.247-.8.443-1.19.67a20.892,20.892,0,0,1-2.506,1.165,27.143,27.143,0,0,1-10.859,1.973,27.56,27.56,0,0,1-10.732-2.515,26.4,26.4,0,0,1-8.8-6.547l-.466-.508c-.145-.177-.274-.368-.413-.551l-.821-1.106c-.132-.188-.286-.361-.4-.559l-.351-.593-.7-1.184a31.036,31.036,0,0,1-3.859-16.109,31.646,31.646,0,0,1,8.264-20.3,33.449,33.449,0,0,1,4.109-3.812,34.247,34.247,0,0,1,4.718-3.05,43.754,43.754,0,0,1,33.275-3.175,42.68,42.68,0,0,1,22.845,16.519,42.258,42.258,0,0,1,2.941,4.963A53.4,53.4,0,0,1,802.1,141.08a51.254,51.254,0,0,1,.509,23.171,52.826,52.826,0,0,1-9.755,21.257,54.382,54.382,0,0,1-8.191,8.575A55.665,55.665,0,0,1,774.782,200.778Z" transform="translate(-544.173 -83.389)" fill="#181818"/><g transform="translate(0 0)"><path style="color: grey;" d="M856.539,190.851a.141.141,0,0,1-.181-.046l.044.137.09.275.209.532c.155.347.317.691.493,1.028s.367.665.566.989l.627.95a24.449,24.449,0,0,0,3,3.422,36.443,36.443,0,0,0,7.382,5.309c.667.362,1.354.676,2.033,1.016l1.023.5,1.047.436,2.1.867c.705.275,1.425.5,2.138.75.717.236,1.427.509,2.153.712l2.184.586,2.135.576a19.02,19.02,0,0,1,1.9.622,31.717,31.717,0,0,1,3.757,1.761c1.241.651,2.462,1.382,3.671,2.135,2.411,1.528,4.758,3.2,7.055,4.958s4.568,3.565,6.794,5.438,4.44,3.768,6.62,5.708c4.366,3.873,8.687,7.816,13,11.782,2.16,1.981,4.323,3.962,6.461,5.972s4.3,4,6.425,6.03c8.533,8.081,16.826,16.461,24.545,25.32l.385-1.375a56.489,56.489,0,0,0-11.274,5.752c-1.756,1.158-3.49,2.357-5.133,3.676-.848.628-1.641,1.321-2.458,1.988s-1.582,1.4-2.376,2.107a72.276,72.276,0,0,0-8.342,9.584,63.387,63.387,0,0,0-3.469,5.378c-.541.925-1.041,1.878-1.525,2.844-.24.486-.474.974-.7,1.475s-.433.98-.656,1.583l3.344-.936c-8.545-8.013-17.1-16.088-25.393-24.371s-16.393-16.758-24.146-25.458c-3.867-4.356-7.631-8.791-11.12-13.38-1.725-2.3-3.408-4.628-4.92-7.026a41.687,41.687,0,0,1-3.8-7.349c-.221-.62-.442-1.239-.6-1.848l-.569-2.137-.583-2.2c-.205-.732-.465-1.453-.7-2.179s-.46-1.451-.729-2.167l-.849-2.135-.427-1.064-.5-1.041c-.339-.691-.66-1.387-1.015-2.069a38.288,38.288,0,0,0-5.291-7.629,25.2,25.2,0,0,0-3.481-3.174l-.976-.685c-.334-.218-.685-.419-1.026-.627s-.715-.382-1.085-.561a10.076,10.076,0,0,0-1.243-.488l.433,2.355c1.282-1.106,2.464-2.237,3.647-3.4s2.324-2.348,3.438-3.566,2.179-2.48,3.216-3.761c.513-.646,1.015-1.3,1.5-1.969l.365-.5a3.864,3.864,0,0,0,.27-.431C856.19,191.549,856.336,191.21,856.539,190.851Zm.1-.56c-.3.283-.661.585-1.008.94l-.913.967c-.554.593-1.133,1.163-1.708,1.736-1.156,1.138-2.335,2.25-3.556,3.316s-2.443,2.125-3.7,3.141-2.551,2.008-3.821,2.941l-1.845,1.355,2.278,1c.174.077.51.248.776.4.279.168.561.342.836.528s.546.389.811.6l.78.654a22.816,22.816,0,0,1,2.795,3.018,34.621,34.621,0,0,1,4.258,7.174c.28.645.528,1.307.794,1.958l.4.977.339,1.007.675,2.01c.212.675.375,1.371.565,2.054s.383,1.366.537,2.061l.432,2.1.45,2.159a21.7,21.7,0,0,0,.636,2.39,46.67,46.67,0,0,0,3.95,8.487q2.305,3.961,4.932,7.628c3.493,4.9,7.269,9.522,11.177,14.009,7.829,8.963,16.263,17.292,24.849,25.423,8.626,8.1,17.367,16.022,26.538,23.527l2.479,2.029.865-2.964c.11-.379.281-.877.447-1.324s.349-.92.537-1.378c.382-.916.783-1.832,1.228-2.731a59.948,59.948,0,0,1,2.913-5.29,65.053,65.053,0,0,1,7.354-9.667c.722-.711,1.423-1.443,2.166-2.14s1.484-1.4,2.27-2.049c1.54-1.34,3.185-2.552,4.848-3.736a51.061,51.061,0,0,1,5.216-3.2,41.785,41.785,0,0,1,5.512-2.519l1.21-.433-.825-.941-11.661-13.309q-5.814-6.671-11.692-13.3a282.689,282.689,0,0,0-24.994-25.213c-4.48-3.9-9.09-7.676-13.975-11.149-2.453-1.724-4.972-3.374-7.6-4.9a42.83,42.83,0,0,0-8.408-3.858,22.95,22.95,0,0,0-2.336-.608l-2.162-.443-2.114-.43c-.7-.156-1.389-.35-2.086-.521s-1.4-.339-2.083-.544l-2.044-.656-1.024-.33-1-.393c-.663-.265-1.335-.518-1.995-.793a36.383,36.383,0,0,1-7.42-4.239,23.372,23.372,0,0,1-3.193-2.854l-.711-.805c-.227-.276-.437-.565-.658-.849s-.4-.591-.6-.892l-.271-.462-.121-.235-.06-.118A.6.6,0,0,0,856.638,190.291Z" transform="translate(-773.651 -121.195)" fill="#181818"/><path style="color: grey;" d="M1038.238,83.021c1.126-1.108,2.236-2.239,3.377-3.328.569-.539,1.119-1.1,1.7-1.619.6-.5,1.173-1.036,1.8-1.5a25.231,25.231,0,0,1,8.07-4.4,14.932,14.932,0,0,1,8.631-.165,13.116,13.116,0,0,1,1.964.766,14.021,14.021,0,0,1,1.822,1.03,13.72,13.72,0,0,1,1.64,1.278c.257.23.5.471.732.713l.332.365q.082.091.152.177a1.3,1.3,0,0,1,.1.135l-.391-.695a138.429,138.429,0,0,0,9.39,23.482,126.01,126.01,0,0,0,6.358,11c1.157,1.779,2.357,3.533,3.633,5.238a62.224,62.224,0,0,0,4.026,4.974q1.063,1.2,2.235,2.321a25.254,25.254,0,0,0,2.467,2.12,16.157,16.157,0,0,0,2.816,1.745,9.715,9.715,0,0,0,3.278.969c.305.034.557.049.806.07l.759.063c.5.049,1,.125,1.5.193a14.722,14.722,0,0,1,2.841.759,5.265,5.265,0,0,1,2.192,1.494,3.2,3.2,0,0,1,.563,1.04,3.91,3.91,0,0,1,.123,1.2,6.08,6.08,0,0,1-.255,1.284,8.809,8.809,0,0,1-.55,1.274,13.441,13.441,0,0,1-1.616,2.371c-.624.717-1.378,1.494-2.09,2.222s-1.458,1.464-2.2,2.185a95.833,95.833,0,0,1-9.312,8.016l2.99.3-.039-.053-1.173-1.581-1.769,1.238a9.663,9.663,0,0,1-3.7,1.683,2.753,2.753,0,0,1-1.325-.068,1.977,1.977,0,0,1-.832-.687,5.32,5.32,0,0,1-.727-1.54,12.735,12.735,0,0,1-.464-2.048c-.056-.364-.107-.733-.136-1.115s-.067-.76-.084-1.149l-.035-.607-.081-.869a11.738,11.738,0,0,0-.371-1.646,16.344,16.344,0,0,0-2.946-5.325,31.806,31.806,0,0,0-3.868-4,64.731,64.731,0,0,0-8.575-6.275,132.295,132.295,0,0,0-18.479-9.337,150.893,150.893,0,0,0-19.411-6.762l.638.359a3.1,3.1,0,0,1-.287-.221c-.111-.091-.221-.189-.332-.29-.222-.2-.438-.417-.651-.638a16.229,16.229,0,0,1-1.2-1.42,14.581,14.581,0,0,1-1.818-3.29,13.918,13.918,0,0,1-.63-7.644,17.641,17.641,0,0,1,1.189-3.843c.25-.631.571-1.232.879-1.842s.7-1.176,1.041-1.768A37.217,37.217,0,0,1,1038.238,83.021Zm-.393-.41a50.135,50.135,0,0,0-5.616,6.248,26.265,26.265,0,0,0-3.979,7.546,16.786,16.786,0,0,0-.467,8.83,17.833,17.833,0,0,0,1.584,4.3,18.6,18.6,0,0,0,1.213,1.977c.227.317.464.628.718.935.127.153.257.305.4.457s.26.287.476.489l.163.153.474.206c3.056,1.328,6.145,2.717,9.2,4.1s6.12,2.759,9.156,4.166c6.05,2.852,12.03,5.836,17.671,9.206a65.523,65.523,0,0,1,7.98,5.486,28.421,28.421,0,0,1,3.307,3.178,11.081,11.081,0,0,1,2.132,3.407,6.6,6.6,0,0,1,.229.82c.015.132.033.263.055.4l.064.659c.039.456.087.915.159,1.38.056.46.138.928.23,1.4a16.338,16.338,0,0,0,.8,2.867,10.072,10.072,0,0,0,1.657,2.921,6.817,6.817,0,0,0,3.275,2.177,7.161,7.161,0,0,0,3.7,0,11.621,11.621,0,0,0,2.911-1.193,17.281,17.281,0,0,0,2.4-1.656l-2.943-.344.045.049,1.484,1.666,1.506-1.364a100.193,100.193,0,0,0,8.834-9.227q1.027-1.208,2.029-2.435l.992-1.238c.335-.427.649-.8,1-1.286a15.746,15.746,0,0,0,1.688-2.935,9.464,9.464,0,0,0,.83-3.444,5.89,5.89,0,0,0-.3-1.89,5.122,5.122,0,0,0-.995-1.653,7.075,7.075,0,0,0-.676-.647c-.246-.176-.491-.358-.744-.514-.257-.14-.511-.294-.772-.419l-.79-.339a18.377,18.377,0,0,0-3.214-.8c-.535-.07-1.073-.147-1.608-.195l-.8-.06c-.272-.019-.541-.044-.753-.072a7.927,7.927,0,0,1-2.681-.835,14.365,14.365,0,0,1-2.442-1.632,26.715,26.715,0,0,1-4.123-4.414,67.075,67.075,0,0,1-6.309-10.544c-1.834-3.688-3.5-7.465-5.124-11.261s-3.222-7.606-4.806-11.427l-4.75-11.448-.2-.483-.191-.212c-.131-.145-.2-.211-.293-.3s-.174-.169-.26-.247c-.171-.163-.345-.306-.521-.454-.352-.285-.708-.558-1.076-.811a17.7,17.7,0,0,0-2.284-1.355,16.4,16.4,0,0,0-5.009-1.581,16.7,16.7,0,0,0-5.159.068,19.524,19.524,0,0,0-4.781,1.494,32.052,32.052,0,0,0-7.98,5.44c-1.187,1.065-2.307,2.193-3.4,3.34S1038.948,81.489,1037.845,82.61Z" transform="translate(-1027.398 -68.74)" fill="#181818"/></g><path style="color: grey;" d="M889.434,331.635a55.484,55.484,0,0,0-11.722,5.3c-1.864,1.081-3.653,2.291-5.4,3.556a63.763,63.763,0,0,0-5,4.129,47.458,47.458,0,0,0-8.277,9.974,35.9,35.9,0,0,0-4.755,11.963,50.1,50.1,0,0,1,5.869-11.235,51.642,51.642,0,0,1,3.908-4.947,55.556,55.556,0,0,1,4.414-4.5,79.9,79.9,0,0,1,9.949-7.813A101.025,101.025,0,0,1,889.434,331.635Z" transform="translate(-705.22 -182.191)" fill="#181818"/></svg>