<svg xmlns="http://www.w3.org/2000/svg" width="250.824" height="152.422" viewBox="0 0 250.824 152.422"><g transform="translate(336.063 333.094)"><g transform="translate(-336.063 -333.094)"><path d="M-107.286-223.375c-.625.351-1.2.688-1.791.987-.64.3-1.332.586-2,.879s-1.37.518-2.056.779c-.692.243-1.4.438-2.1.659a30.332,30.332,0,0,1-8.746,1.167,30.014,30.014,0,0,1-8.745-1.47,37.6,37.6,0,0,1-8.047-3.753l1.237-.667v14.1l-1.522-.943-1.553-.962c-.14-.092-.285-.191-.43-.3l-.217-.174-.174-.147-.695-.587-2.779-2.345-5.559-4.691-11.1-9.4-22.16-18.851q-22.153-18.858-44.185-37.856-22.018-19.014-43.857-38.234a31.267,31.267,0,0,0-5.441-4.268,9.532,9.532,0,0,0-1.438-.6,7.932,7.932,0,0,0-1.486-.291,6.665,6.665,0,0,0-1.46.049,4.041,4.041,0,0,0-1.262.443,1.354,1.354,0,0,0-.335.257c-.056.1.093-.175.063-.176a.56.56,0,0,0,0,.112,3.017,3.017,0,0,0,.386,1.15,1.933,1.933,0,0,0,.136.2c.031.026,0,.01.075.078l.166.154.662.618,1.326,1.236,5.3,4.943c1.779,1.638,3.511,3.322,5.33,4.924l5.445,4.817,5.445,4.816,2.733,2.429a12.565,12.565,0,0,1,2.469,3l.865,1.524-1.709-.241c-.6-.084-1.262-.124-1.972-.265l-1.915-.457-3.769-.909-7.544-1.791-15.091-3.57-15.1-3.516-7.554-1.748-1.886-.428-.911-.176c-.3-.048-.609-.067-.913-.1a6.818,6.818,0,0,0-3.477.554,5.437,5.437,0,0,0-2.4,2.439,9.97,9.97,0,0,0-.939,3.505l-.063.93a4.705,4.705,0,0,0,.045.848,3.99,3.99,0,0,0,.6,1.554,5.072,5.072,0,0,0,2.751,1.977,18.23,18.23,0,0,0,1.811.442c.625.132,1.25.25,1.876.352a23.644,23.644,0,0,0,3.751.344,17.645,17.645,0,0,0,1.867-.1q.991-.1,1.989-.114a26.143,26.143,0,0,1,3.972.236,30.719,30.719,0,0,1,3.889.805c1.282.347,2.519.792,3.735,1.211,2.447.851,4.9,1.744,7.3,2.807,1.2.532,2.384,1.107,3.542,1.741a19.725,19.725,0,0,1,3.373,2.248,9.509,9.509,0,0,1,2.614,3.35,6.8,6.8,0,0,1,.381,4.4c-.736,2.918-2.952,4.968-4.888,6.619a61.337,61.337,0,0,1-6.31,4.734,70.292,70.292,0,0,1-6.826,3.937,68.915,68.915,0,0,0-6.586,3.81,60.211,60.211,0,0,0-20.2,22.154,70.214,70.214,0,0,0-3.219,6.871l-.72,1.766-.664,1.788c-.216.6-.447,1.19-.651,1.793l-.6,1.811a100.568,100.568,0,0,0-3.618,14.8,115.579,115.579,0,0,0-1.52,15.178c-.1,2.544-.086,5.094-.04,7.642l.153,3.822.121,1.909.06.955.012.2a1.457,1.457,0,0,0-.054-.278c.038.093.132.321.2.5l-1.759-1.24c25.082-.075,50.163-.2,75.244-.16,12.541-.015,25.081.034,37.622.085s25.081.086,37.621.2l37.621.279,18.808.125,18.807.191,9.4.1,2.351.024,1.176.012c.393,0,.8.011,1.116-.007a6.461,6.461,0,0,0,3.73-1.4,9.677,9.677,0,0,0,2.6-3.3,3.54,3.54,0,0,0,.376-1.782,4.562,4.562,0,0,0-.605-1.826,11.927,11.927,0,0,0-1.271-1.762,17.6,17.6,0,0,0-1.536-1.621,6.832,6.832,0,0,0-3.676-1.9,6.276,6.276,0,0,0-1.045-.07c-.356,0-.69.038-1.122.073a23.229,23.229,0,0,1-2.426.05c-1.6-.038-3.15-.166-4.674-.143-.392.005-.734.027-1.161.045a4.249,4.249,0,0,1-1.37-.129,2.057,2.057,0,0,1-1.272-1.009,3.43,3.43,0,0,1-.327-1.381c-.029-.865.015-1.6.02-2.4l.042-2.351.175-9.4.1-4.7.051-2.351a9.234,9.234,0,0,0-.024-1.154l-.049-.583-.025-.295-.011-.148A.074.074,0,0,0-107.286-223.375Zm.189-.339a.6.6,0,0,1,.115.3l.017.145.035.29.072.586a9.995,9.995,0,0,1,.07,1.194l.038,2.352.075,4.7.122,9.409.029,2.352c.018.771,0,1.6.049,2.3a2.315,2.315,0,0,0,.219.887.8.8,0,0,0,.538.38,3.071,3.071,0,0,0,.964.049c.356-.025.8-.066,1.187-.081,1.611-.073,3.189.01,4.728,0a21.979,21.979,0,0,0,2.271-.115c.348-.039.794-.1,1.221-.115a7.874,7.874,0,0,1,1.3.047,7.765,7.765,0,0,1,2.511.746,10.324,10.324,0,0,1,2.119,1.44,18.875,18.875,0,0,1,1.738,1.749,13.661,13.661,0,0,1,1.516,2.017,6.451,6.451,0,0,1,.9,2.59,5.5,5.5,0,0,1-.5,2.781,11.652,11.652,0,0,1-3.086,4.089,8.613,8.613,0,0,1-4.892,1.953c-.465.033-.843.032-1.235.036l-1.176.014-2.352.029-9.407.114-18.815.228-18.813.135-37.622.235c-12.541.1-25.081.125-37.622.152s-25.081.072-37.622.04c-25.081.01-50.163-.174-75.242-.259l-1.283,0-.476-1.236-.154-.4a2.652,2.652,0,0,1-.184-.742l-.018-.282-.054-.98-.108-1.96-.128-3.925c-.029-2.62-.017-5.24.1-7.86a118.648,118.648,0,0,1,1.69-15.641,104.018,104.018,0,0,1,3.941-15.24l.642-1.861c.219-.619.465-1.227.7-1.842l.71-1.836.768-1.813a73.4,73.4,0,0,1,3.452-7.116,70.31,70.31,0,0,1,4.24-6.7,62.884,62.884,0,0,1,5.057-6.113,59.755,59.755,0,0,1,5.805-5.4c1-.86,2.087-1.617,3.136-2.417l1.633-1.117.817-.557.84-.52a71.448,71.448,0,0,1,6.907-3.811,67.956,67.956,0,0,0,6.675-3.671,57.457,57.457,0,0,0,6.172-4.446c.486-.4.973-.82,1.434-1.237a14.245,14.245,0,0,0,1.253-1.292,7.794,7.794,0,0,0,1.656-2.972,4.865,4.865,0,0,0-.216-3.179,7.686,7.686,0,0,0-2.083-2.735,17.922,17.922,0,0,0-3.031-2.09c-1.1-.626-2.23-1.2-3.384-1.737-2.31-1.074-4.7-2-7.122-2.884-1.219-.445-2.409-.9-3.616-1.245a27.706,27.706,0,0,0-3.688-.807,24.773,24.773,0,0,0-3.756-.261q-.941.008-1.881.089a19.291,19.291,0,0,1-2,.085,25.11,25.11,0,0,1-3.957-.4c-.649-.113-1.292-.242-1.929-.383a19.21,19.21,0,0,1-1.946-.5,6.393,6.393,0,0,1-3.388-2.507,5.235,5.235,0,0,1-.774-2.04,5.971,5.971,0,0,1-.056-1.083l.071-1a11.17,11.17,0,0,1,1.079-3.935,6.651,6.651,0,0,1,2.959-2.968,7.99,7.99,0,0,1,4.088-.658c.337.04.678.064,1.011.117l.991.2,1.892.436,7.556,1.733,15.116,3.446,15.128,3.392,7.565,1.69,3.786.832,1.865.4c.56.1,1.191.128,1.874.207l-.844,1.282a10.78,10.78,0,0,0-2.2-2.541l-2.755-2.343-5.555-4.7-5.555-4.7c-1.855-1.563-3.639-3.222-5.463-4.829l-5.442-4.859-1.36-1.216-.681-.608a4.357,4.357,0,0,1-.413-.4,4.281,4.281,0,0,1-.394-.537,5.48,5.48,0,0,1-.794-2.26,3.065,3.065,0,0,1,.016-.793,2.1,2.1,0,0,1,.173-.558,2.249,2.249,0,0,1,.266-.433,3.812,3.812,0,0,1,1.041-.915,6.643,6.643,0,0,1,2.129-.819,9.168,9.168,0,0,1,2.163-.13,10.649,10.649,0,0,1,2.086.36,12.23,12.23,0,0,1,1.927.759,18.946,18.946,0,0,1,3.28,2.164c.994.8,1.883,1.577,2.818,2.362q22.245,18.753,44.205,37.836t43.888,38.2l21.867,19.189,10.913,9.618,5.447,4.82,2.723,2.41.681.6.17.151.135.114c.094.075.2.151.308.228l1.516.989-1.522.805.354-12.342.042-1.451,1.2.784a36.108,36.108,0,0,0,7.609,3.849,28.826,28.826,0,0,0,8.349,1.678,30.578,30.578,0,0,0,8.526-.845c.694-.188,1.4-.349,2.086-.56.683-.228,1.376-.433,2.054-.681.677-.265,1.338-.509,2.031-.794C-108.527-223.159-107.786-223.443-107.1-223.714Z" transform="translate(336.063 333.094)" fill="#181818"/><path d="M-286.007-179.973l-.066-1.8-.014-.939.032-.869c.024-.581.038-1.163.075-1.743l.165-1.739a42.907,42.907,0,0,1,1.276-6.89,41.4,41.4,0,0,1,2.351-6.642,46.349,46.349,0,0,1,3.355-6.221,52.157,52.157,0,0,1,4.214-5.679,50.235,50.235,0,0,1,4.9-5.133,65.932,65.932,0,0,1,11.551-8.141c2.039-1.152,4.105-2.231,6.176-3.277l3.1-1.55c1.01-.508,2.015-1.023,2.993-1.572a43.96,43.96,0,0,0,10.665-7.834,25.4,25.4,0,0,0,6.573-11.04,16.937,16.937,0,0,0,.389-6.359,18.974,18.974,0,0,0-.713-3.168c-.143-.527-.368-1.03-.547-1.549a10.559,10.559,0,0,1-.473-1.828l-.207-.847.737-.365.573-.284.668-.331.508.47c6.163,5.7,12.333,11.4,18.642,16.93q9.42,8.351,19.043,16.472l19.3,16.18q9.679,8.056,19.214,16.277l1.12.96-.782,1.292-.375.619-.719,1.189-1.346-.44-4.111-1.345c-1.348-.425-2.7-.838-4.065-1.2a84.394,84.394,0,0,0-8.271-1.793,83.4,83.4,0,0,0-8.4-.951,63.287,63.287,0,0,0-8.374-.013,48.928,48.928,0,0,0-16.081,3.768,47.522,47.522,0,0,0-7.326,3.879c-.592.361-1.157.765-1.726,1.164l-1.768,1.251c-1.223.852-2.469,1.672-3.753,2.428a65.607,65.607,0,0,1-16.375,6.807,101.221,101.221,0,0,1-17.254,3.171,107.178,107.178,0,0,1-17.462.2c-2.891-.187-5.772-.427-8.649-.675l-4.314-.377-2.156-.2-1.109-.1C-285.235-179.859-285.634-179.919-286.007-179.973Zm.284-.267c.347-.022.669-.049.982-.057h1.052l2.167.01,4.33.062c2.885.042,5.768.073,8.644.052a117.27,117.27,0,0,0,17.1-1.128,106.411,106.411,0,0,0,16.623-3.764,63.452,63.452,0,0,0,15.312-6.876c1.179-.747,2.343-1.517,3.472-2.335l1.745-1.275c.606-.439,1.209-.882,1.843-1.283a51.648,51.648,0,0,1,7.888-4.325,51.4,51.4,0,0,1,17.454-4.1,61.666,61.666,0,0,1,8.921.147,87.063,87.063,0,0,1,8.774,1.154q4.352.8,8.6,2.028c1.416.4,2.817.858,4.212,1.325l4.091,1.421-2.066.749.385-.612.338,2.252q-9.376-8.4-18.648-16.923l-18.563-17.019q-9.32-8.467-18.82-16.728c-6.312-5.531-12.763-10.9-19.221-16.27l1.176.139-.558.313.53-1.212a9.286,9.286,0,0,0,.452,1.5c.229.559.5,1.1.692,1.678a22.012,22.012,0,0,1,.991,3.523,19.414,19.414,0,0,1-.051,7.375,23.675,23.675,0,0,1-2.609,6.876,32.675,32.675,0,0,1-4.3,5.855,35.537,35.537,0,0,1-5.406,4.785,51.22,51.22,0,0,1-6.039,3.8c-1.039.566-2.093,1.089-3.148,1.6l-3.1,1.5c-2.057,1.006-4.09,2.036-6.079,3.126a64.686,64.686,0,0,0-11.218,7.467l-1.257,1.108-1.222,1.145c-.784.806-1.6,1.586-2.347,2.432a50.693,50.693,0,0,0-4.248,5.244,44.219,44.219,0,0,0-3.531,5.753,45.035,45.035,0,0,0-2.663,6.228,48.186,48.186,0,0,0-1.745,6.588l-.3,1.687-.232,1.7-.117.852-.082.788Z" transform="translate(318.51 309.451)" fill="#181818"/></g><path d="M2.829-226.978a21.667,21.667,0,0,0-4.772-8.749,24.606,24.606,0,0,0-7.9-5.844c-.753-.313-1.485-.662-2.242-.945-.777-.232-1.529-.523-2.3-.746-.786-.175-1.563-.378-2.347-.531l-2.373-.343a27.546,27.546,0,0,0-9.524.7,24.358,24.358,0,0,0-8.739,4.011,23.572,23.572,0,0,0-6.546,7.311,23.987,23.987,0,0,0-3.029,9.4,23.06,23.06,0,0,0,1.1,9.726,25.487,25.487,0,0,0,4.827,8.367,25.94,25.94,0,0,0,7.423,5.991,24,24,0,0,0,9.033,2.719,25.378,25.378,0,0,0,9.37-.895,25.106,25.106,0,0,0,8.49-4.133l.96-.71.886-.8c.3-.265.614-.513.9-.793l.829-.867a21.671,21.671,0,0,0,1.575-1.822,19.933,19.933,0,0,0,1.419-1.968,23.932,23.932,0,0,0,3.56-9.13c.108-.823.188-1.654.262-2.487l-.016-2.51c-.084-.833-.194-1.665-.3-2.5Zm.312-.088.622,2.476c.143.839.247,1.685.4,2.527l.195,2.558-.04,2.577a26.986,26.986,0,0,1-2.574,10.07,24.49,24.49,0,0,1-6.5,8.377,26.449,26.449,0,0,1-9.467,5,26.754,26.754,0,0,1-10.694.94,26.447,26.447,0,0,1-10.16-3.411,26.75,26.75,0,0,1-7.961-7.039,26.3,26.3,0,0,1-4.5-9.5l-.285-1.283a8.5,8.5,0,0,1-.227-1.289l-.148-1.3a8.9,8.9,0,0,1-.095-1.3,31.169,31.169,0,0,1,.264-5.183,29.82,29.82,0,0,1,3.2-9.775,29.551,29.551,0,0,1,6.338-8.193,24.378,24.378,0,0,1,9.15-5.225,24.872,24.872,0,0,1,10.572-.958,24.7,24.7,0,0,1,9.935,3.614,27.753,27.753,0,0,1,7.545,7.13A28.545,28.545,0,0,1,3.141-227.065Z" transform="translate(-101.065 -30.171)" fill="#181818"/></g></svg>