<svg xmlns="http://www.w3.org/2000/svg" width="268.712" height="268.85" viewBox="0 0 268.712 268.85"><g transform="translate(-503.172 -2923.212)"><g transform="translate(658.501 2918.729) rotate(45)"><g transform="translate(13.993 89.271)"><g transform="translate(0 7.122)"><path d="M19.4.173A36.93,36.93,0,0,0,12.077,5.1a33.407,33.407,0,0,0-5.892,6.49A26.3,26.3,0,0,0,2.429,19.4a25.717,25.717,0,0,0-.908,8.567,31.418,31.418,0,0,0,1.75,8.457c.222.687.509,1.356.76,2.034.134.337.249.68.4,1.01l.453.991c.3.659.568,1.335.9,1.982L6.77,44.39a16.158,16.158,0,0,0,2.3,3.55,18.907,18.907,0,0,0,1.452,1.565c.259.253.517.482.8.735s.57.541.835.835a7.18,7.18,0,0,1,2.011,4.262,6.385,6.385,0,0,1-1.5,4.3l-.157-.1a8.458,8.458,0,0,0,.77-2.024,5.129,5.129,0,0,0,.036-2.066,6.445,6.445,0,0,0-2.1-3.435,10.351,10.351,0,0,0-.8-.667c-.289-.222-.6-.466-.891-.712a20.454,20.454,0,0,1-1.686-1.579,17.447,17.447,0,0,1-2.716-3.756A42.037,42.037,0,0,1,1.492,37a34.563,34.563,0,0,1-1.48-8.967,27.077,27.077,0,0,1,1.244-8.988,27.4,27.4,0,0,1,4.163-8.008,34.157,34.157,0,0,1,6.3-6.377A37.283,37.283,0,0,1,19.321,0Z" transform="translate(0.315 0.314)" fill="#181818" stroke="rgba(0,0,0,0)" stroke-width="1"/><path d="M12.976,60.266a.32.32,0,0,1-.174-.052l-.157-.1a.315.315,0,0,1-.11-.4,8.138,8.138,0,0,0,.745-1.947,4.8,4.8,0,0,0,.037-1.945,6.084,6.084,0,0,0-2.008-3.266,10.11,10.11,0,0,0-.779-.647c-.294-.225-.61-.473-.9-.722a21,21,0,0,1-1.712-1.6,17.72,17.72,0,0,1-2.766-3.825,42.584,42.584,0,0,1-3.642-8.346A34.888,34.888,0,0,1,.012,28.355,27.259,27.259,0,0,1,1.27,19.263a27.679,27.679,0,0,1,4.209-8.1,34.116,34.116,0,0,1,6.359-6.437,37.75,37.75,0,0,1,7.669-4.7.318.318,0,0,1,.242-.007.316.316,0,0,1,.175.167L20,.36a.314.314,0,0,1-.147.408A36.72,36.72,0,0,0,12.6,5.651a33.2,33.2,0,0,0-5.835,6.426A25.994,25.994,0,0,0,3.047,19.8a25.315,25.315,0,0,0-.9,8.465,31.09,31.09,0,0,0,1.733,8.371c.143.442.31.869.477,1.3.1.245.191.489.281.734.046.115.092.238.138.361.079.211.158.422.251.629l.451.989c.109.236.213.475.317.714.181.416.369.847.579,1.254l.987,1.951a15.809,15.809,0,0,0,2.263,3.49,18.649,18.649,0,0,0,1.429,1.541c.2.194.4.374.6.562l.184.166c.327.3.607.579.857.857a7.522,7.522,0,0,1,2.091,4.452,6.689,6.689,0,0,1-1.573,4.517A.315.315,0,0,1,12.976,60.266ZM11.1,6.143a32.252,32.252,0,0,0-5.117,5.394,27.051,27.051,0,0,0-4.116,7.914,26.635,26.635,0,0,0-1.23,8.886,34.233,34.233,0,0,0,1.467,8.885A41.928,41.928,0,0,0,5.7,45.451a17.128,17.128,0,0,0,2.672,3.7,20.168,20.168,0,0,0,1.66,1.554c.287.243.595.484.88.7.312.237.582.461.825.687a6.689,6.689,0,0,1,2.2,3.609,5.174,5.174,0,0,1,.057,1.614,5.322,5.322,0,0,0,.174-1.645,6.9,6.9,0,0,0-1.93-4.066,11.385,11.385,0,0,0-.814-.815l-.182-.164c-.213-.194-.417-.378-.621-.578a19.209,19.209,0,0,1-1.475-1.59A16.364,16.364,0,0,1,6.8,44.838L5.818,42.9c-.219-.423-.411-.864-.6-1.29-.1-.235-.2-.47-.312-.7l-.453-.991c-.1-.22-.183-.444-.267-.668-.045-.119-.09-.239-.137-.356-.092-.25-.186-.49-.28-.731-.168-.43-.341-.874-.487-1.324A31.673,31.673,0,0,1,1.522,28.3a25.94,25.94,0,0,1,.92-8.674,26.622,26.622,0,0,1,3.8-7.907A32.628,32.628,0,0,1,11.1,6.143Z" fill="#181818" stroke="rgba(0,0,0,0)" stroke-width="1"/></g><g transform="translate(16.374 68.236)"><path d="M5.116,35.259a18.157,18.157,0,0,0,5.055-2.842A12.26,12.26,0,0,0,13.6,27.911,13.723,13.723,0,0,0,14.738,22.4a20.816,20.816,0,0,0-.788-5.63,26.71,26.71,0,0,0-2.125-5.3A41.924,41.924,0,0,0,8.865,6.6,22.2,22.2,0,0,0,5.118,2.385,8.945,8.945,0,0,0,2.783.918,3.563,3.563,0,0,0,.1.83L0,.667A3.727,3.727,0,0,1,3.019.088a8.683,8.683,0,0,1,2.875,1.22,18.647,18.647,0,0,1,4.48,4.157A27.23,27.23,0,0,1,15.416,16.4a22.146,22.146,0,0,1,.548,6.037,14.8,14.8,0,0,1-1.512,5.878,13.028,13.028,0,0,1-3.924,4.559,16.765,16.765,0,0,1-2.576,1.516,21.475,21.475,0,0,1-2.776,1.046Z" transform="translate(0.315 0.314)" fill="#181818" stroke="rgba(0,0,0,0)" stroke-width="1"/><path d="M5.491,36.067a.315.315,0,0,1-.3-.215l-.06-.179a.314.314,0,0,1,.186-.394,17.881,17.881,0,0,0,4.968-2.791,11.985,11.985,0,0,0,3.34-4.388,13.324,13.324,0,0,0,1.112-5.391,20.511,20.511,0,0,0-.777-5.545,26.416,26.416,0,0,0-2.1-5.237A41.6,41.6,0,0,0,8.922,7.1,21.722,21.722,0,0,0,5.229,2.94a8.579,8.579,0,0,0-2.25-1.417A3.212,3.212,0,0,0,.529,1.436.316.316,0,0,1,.14,1.3l-.1-.163a.315.315,0,0,1,.073-.4A4.035,4.035,0,0,1,3.394.093,8.994,8.994,0,0,1,6.377,1.356,18.686,18.686,0,0,1,10.932,5.58a27.417,27.417,0,0,1,5.1,11.065,22.512,22.512,0,0,1,.556,6.126,15.19,15.19,0,0,1-1.546,6,13.364,13.364,0,0,1-4.019,4.671A17.2,17.2,0,0,1,8.4,34.99a22.169,22.169,0,0,1-2.818,1.063A.325.325,0,0,1,5.491,36.067ZM2.1.642a4.665,4.665,0,0,1,1.113.3A9.19,9.19,0,0,1,5.633,2.458a22.328,22.328,0,0,1,3.8,4.275,42.207,42.207,0,0,1,2.982,4.9A27.028,27.028,0,0,1,14.568,17a21.143,21.143,0,0,1,.8,5.716,13.94,13.94,0,0,1-1.166,5.64,12.5,12.5,0,0,1-2.946,4.119,12.627,12.627,0,0,0,3.231-3.984,14.559,14.559,0,0,0,1.478-5.753,21.881,21.881,0,0,0-.541-5.951A26.786,26.786,0,0,0,10.442,5.975a18.088,18.088,0,0,0-4.4-4.087A8.365,8.365,0,0,0,3.269.709,4.3,4.3,0,0,0,2.1.642Z" fill="#181818" stroke="rgba(0,0,0,0)" stroke-width="1"/></g><g transform="translate(21.22 78.652)"><path d="M.076,30.188a9.38,9.38,0,0,1,2.6,1.829,6.861,6.861,0,0,1,1.7,2.694c.084.256.129.523.2.785.042.266.055.536.082.8a13.743,13.743,0,0,1-.1,1.594c-.1,1.043-.172,2.091-.223,3.139a81.389,81.389,0,0,0,.353,12.571A49.352,49.352,0,0,0,7.476,65.794a26.853,26.853,0,0,0,2.876,5.5A19.857,19.857,0,0,0,12.3,73.681l1.111,1.1c.368.369.739.734,1.138,1.067a30.7,30.7,0,0,0,10.528,6.432,34.427,34.427,0,0,0,12.214,1.792c8.306-.237,16.539-2.431,24.324-5.3a64.889,64.889,0,0,0,20.82-13.423,43.886,43.886,0,0,0,4.221-4.508,35.186,35.186,0,0,0,3.367-5.12,32.776,32.776,0,0,0,3.757-11.6c.969-8.076-.735-16.762-5.662-23.371A45.854,45.854,0,0,0,83.974,16.1l-1.1-1.149-1.038-1.211c-.342-.406-.7-.8-1.03-1.216l-.955-1.283A18.06,18.06,0,0,1,76.9,5.56a6.26,6.26,0,0,1-.016-3.244A3.785,3.785,0,0,1,79.066,0l.063.178a3.5,3.5,0,0,0-1.878,2.249,5.833,5.833,0,0,0,.171,2.984,17.433,17.433,0,0,0,3.119,5.31l.977,1.213c.339.394.7.77,1.052,1.156l1.058,1.149,1.123,1.092a47.026,47.026,0,0,1,4.411,4.615,29.954,29.954,0,0,1,5.581,11.56,37.388,37.388,0,0,1,1.009,6.368,35.425,35.425,0,0,1-.1,6.473,34.7,34.7,0,0,1-3.9,12.3,35.228,35.228,0,0,1-3.6,5.391,45.815,45.815,0,0,1-4.438,4.666A66.593,66.593,0,0,1,62.162,80.179c-1,.375-1.994.745-3.01,1.063-1.008.35-2.03.623-3.047.916s-2.029.607-3.062.847l-3.094.738A64.193,64.193,0,0,1,37.309,85.3a35.583,35.583,0,0,1-12.6-2,31.7,31.7,0,0,1-10.8-6.756c-.4-.348-.778-.726-1.147-1.108L11.649,74.3a20.668,20.668,0,0,1-2-2.527,27.631,27.631,0,0,1-2.88-5.708,49.956,49.956,0,0,1-2.647-12.4,81.87,81.87,0,0,1-.167-12.65c.067-1.053.154-2.1.271-3.153a13.455,13.455,0,0,0,.123-1.551c-.024-.255-.031-.512-.067-.765-.059-.249-.1-.5-.174-.748A7.883,7.883,0,0,0,0,30.361Z" transform="translate(0.315 0.314)" fill="#181818" stroke="rgba(0,0,0,0)" stroke-width="1"/><path d="M37.114,85.931a35.536,35.536,0,0,1-12.2-2.02,31.967,31.967,0,0,1-10.9-6.82c-.424-.366-.821-.771-1.16-1.122l-1.115-1.135A20.978,20.978,0,0,1,9.7,72.257a27.961,27.961,0,0,1-2.912-5.77A50.113,50.113,0,0,1,4.125,54.009a82.563,82.563,0,0,1-.167-12.7c.074-1.154.162-2.19.273-3.169a12.887,12.887,0,0,0,.121-1.521c-.008-.061-.014-.156-.021-.252-.011-.155-.021-.31-.043-.464-.016-.064-.036-.157-.055-.251-.031-.15-.062-.3-.108-.447A7.548,7.548,0,0,0,.173,30.957a.314.314,0,0,1-.147-.407L.1,30.377a.314.314,0,0,1,.424-.158A9.68,9.68,0,0,1,3.216,32.11,7.1,7.1,0,0,1,5,34.93c.057.176.1.357.138.539.02.088.04.178.062.266.034.21.05.395.066.58l.024.269a13.663,13.663,0,0,1-.1,1.663c-.093.96-.166,1.983-.222,3.119a81.3,81.3,0,0,0,.352,12.521A48.738,48.738,0,0,0,8.085,66a26.6,26.6,0,0,0,2.84,5.43,19.516,19.516,0,0,0,1.918,2.355l1.1,1.089c.4.409.749.742,1.118,1.05a30.368,30.368,0,0,0,10.427,6.375A34.031,34.031,0,0,0,37.6,84.07c7.218-.206,15.142-1.933,24.222-5.28A65.015,65.015,0,0,0,82.533,65.434a43.676,43.676,0,0,0,4.19-4.475,35.151,35.151,0,0,0,3.339-5.076A32.253,32.253,0,0,0,93.783,44.4c1.026-8.555-1.015-16.991-5.6-23.144a36.316,36.316,0,0,0-3.4-3.871l-1.821-1.9-1.413-1.648c-.228-.264-.455-.527-.673-.8l-.961-1.291a18.074,18.074,0,0,1-3.007-5.787A6.6,6.6,0,0,1,76.9,2.532,4.106,4.106,0,0,1,79.268.02a.32.32,0,0,1,.245.008.314.314,0,0,1,.164.181l.064.178a.315.315,0,0,1-.166.391A3.194,3.194,0,0,0,77.87,2.823a5.6,5.6,0,0,0,.171,2.823A17.192,17.192,0,0,0,81.1,10.841l.975,1.21c.211.244.438.49.665.734.125.135.251.27.375.407l1.056,1.147,1.852,1.8a37.969,37.969,0,0,1,3.7,3.93,30.38,30.38,0,0,1,5.639,11.676,37.8,37.8,0,0,1,1.017,6.422,35.705,35.705,0,0,1-.1,6.53,34.769,34.769,0,0,1-3.94,12.418,35.6,35.6,0,0,1-3.627,5.44,46.174,46.174,0,0,1-4.467,4.7A67.371,67.371,0,0,1,62.589,80.788c-1.017.382-2.013.751-3.029,1.069-.8.277-1.626.512-2.426.74l-.628.179c-.363.1-.721.2-1.078.308-.65.19-1.323.386-2,.543l-3.092.737a63.678,63.678,0,0,1-12.708,1.565C37.456,85.93,37.284,85.931,37.114,85.931ZM5.3,58.159a44.385,44.385,0,0,0,2.081,8.109,27.442,27.442,0,0,0,2.846,5.641A20.275,20.275,0,0,0,12.2,74.4L13.3,75.529c.331.343.716.736,1.127,1.091a31.351,31.351,0,0,0,10.7,6.7A35.117,35.117,0,0,0,37.621,85.3,63.037,63.037,0,0,0,50.2,83.749l3.086-.736c.661-.154,1.325-.347,1.967-.535.361-.105.722-.21,1.084-.31l.626-.178c.791-.225,1.609-.458,2.4-.732,1.009-.315,2-.682,3-1.061A66.691,66.691,0,0,0,83.818,66.792a45.527,45.527,0,0,0,4.406-4.632,35.04,35.04,0,0,0,3.564-5.343,34.13,34.13,0,0,0,3.868-12.192,35.044,35.044,0,0,0,.1-6.413,37.137,37.137,0,0,0-1-6.314,29.759,29.759,0,0,0-5.522-11.439,37.5,37.5,0,0,0-3.643-3.868l-1.866-1.812-1.442-1.566c-.233-.25-.465-.5-.688-.76l-.983-1.221a21.848,21.848,0,0,1-2.572-3.914,21.907,21.907,0,0,0,2.385,4.053l.95,1.276c.206.258.429.515.651.773l1.4,1.638,1.808,1.884a36.819,36.819,0,0,1,3.453,3.936c4.679,6.278,6.765,14.879,5.719,23.593a32.875,32.875,0,0,1-3.792,11.712,35.7,35.7,0,0,1-3.4,5.166,44.317,44.317,0,0,1-4.25,4.54A65.652,65.652,0,0,1,62.046,79.378C52.893,82.752,44.9,84.491,37.615,84.7a34.645,34.645,0,0,1-12.328-1.81A30.964,30.964,0,0,1,14.653,76.4c-.38-.317-.735-.661-1.151-1.08l-1.109-1.1a20.212,20.212,0,0,1-1.987-2.438A27.22,27.22,0,0,1,7.5,66.224,44.268,44.268,0,0,1,5.3,58.159Z" fill="#181818" stroke="rgba(0,0,0,0)" stroke-width="1"/></g><g transform="translate(73.421 46.247)"><path d="M5.384.185A4.245,4.245,0,0,0,3.055,1.743,8.082,8.082,0,0,0,1.749,4.277,18.133,18.133,0,0,0,.972,9.982a29.4,29.4,0,0,0,2.3,11.249A20.672,20.672,0,0,0,6.16,26.1a15.333,15.333,0,0,0,4.076,3.649,11.3,11.3,0,0,0,5.192,1.589,15.779,15.779,0,0,0,2.835-.1,28.076,28.076,0,0,0,2.87-.553l.07.176a15.736,15.736,0,0,1-2.752,1.219,13.33,13.33,0,0,1-3.015.582,11.482,11.482,0,0,1-3.13-.2,11.9,11.9,0,0,1-2.99-1.07A12.546,12.546,0,0,1,6.73,29.573a16.229,16.229,0,0,1-2.061-2.348,23.877,23.877,0,0,1-2.8-5.435A30.615,30.615,0,0,1,.029,9.959,18.862,18.862,0,0,1,1.2,4.077,8.552,8.552,0,0,1,2.751,1.483,4.545,4.545,0,0,1,5.346,0Z" transform="translate(0.315 0.315)" fill="#181818" stroke="rgba(0,0,0,0)" stroke-width="1"/><path d="M14.92,33.327a11.621,11.621,0,0,1-5.431-1.336A12.887,12.887,0,0,1,6.833,30.12a16.446,16.446,0,0,1-2.1-2.394,24.321,24.321,0,0,1-2.839-5.511A30.737,30.737,0,0,1,.03,10.26a18.885,18.885,0,0,1,1.2-5.984,8.79,8.79,0,0,1,1.608-2.69A4.826,4.826,0,0,1,5.611,0a.313.313,0,0,1,.36.249l.036.185a.313.313,0,0,1-.234.366A3.953,3.953,0,0,0,3.619,2.25,7.745,7.745,0,0,0,2.362,4.69,17.746,17.746,0,0,0,1.6,10.3,29.157,29.157,0,0,0,3.88,21.424a20.356,20.356,0,0,0,2.839,4.79,14.977,14.977,0,0,0,3.995,3.579,11.041,11.041,0,0,0,5.049,1.545,15.641,15.641,0,0,0,2.777-.093,28.3,28.3,0,0,0,2.837-.548.316.316,0,0,1,.363.189l.07.176a.314.314,0,0,1-.137.391A16.02,16.02,0,0,1,18.866,32.7a13.649,13.649,0,0,1-3.093.6Q15.353,33.327,14.92,33.327ZM1.548,5.223a19.4,19.4,0,0,0-.89,5.068A30.1,30.1,0,0,0,2.482,22a23.683,23.683,0,0,0,2.76,5.363,15.732,15.732,0,0,0,2.017,2.3A12.167,12.167,0,0,0,9.78,31.433a11.552,11.552,0,0,0,2.906,1.041,11.158,11.158,0,0,0,3.041.192,13.069,13.069,0,0,0,2.947-.569q.556-.186,1.091-.41c-.38.071-.763.133-1.147.181a16.042,16.042,0,0,1-2.893.1,11.653,11.653,0,0,1-5.337-1.635,15.562,15.562,0,0,1-4.16-3.723A20.975,20.975,0,0,1,3.3,21.671,29.815,29.815,0,0,1,.973,10.3,19.484,19.484,0,0,1,1.548,5.223Z" fill="#181818" stroke="rgba(0,0,0,0)" stroke-width="1"/></g><g transform="translate(37.526)"><path d="M0,1.28A37.282,37.282,0,0,1,8.826.011,34.2,34.2,0,0,1,17.746.9,27.4,27.4,0,0,1,26.063,4.4a27.077,27.077,0,0,1,6.7,6.124,34.6,34.6,0,0,1,4.586,7.846,42.059,42.059,0,0,1,2.51,8.7,17.426,17.426,0,0,1,.308,4.624,20.606,20.606,0,0,1-.29,2.292c-.067.374-.15.761-.232,1.117-.079.34-.146.682-.191,1.026a6.441,6.441,0,0,0,.576,3.986,5.127,5.127,0,0,0,1.346,1.567,8.418,8.418,0,0,0,1.885,1.066l-.055.181a6.383,6.383,0,0,1-3.9-2.349,7.182,7.182,0,0,1-1.174-4.565c.016-.395.055-.786.109-1.175.052-.373.105-.714.143-1.074a19.064,19.064,0,0,0,.118-2.131,16.186,16.186,0,0,0-.5-4.2L37.519,25.3c-.155-.711-.383-1.4-.571-2.1l-.284-1.051c-.1-.349-.227-.687-.339-1.032-.24-.682-.446-1.38-.714-2.05a31.405,31.405,0,0,0-4.053-7.626,25.721,25.721,0,0,0-6.17-6.014,26.314,26.314,0,0,0-7.88-3.616A33.438,33.438,0,0,0,8.829.577a36.943,36.943,0,0,0-8.777.884Z" transform="translate(0.315 0.315)" fill="#181818" stroke="rgba(0,0,0,0)" stroke-width="1"/><path d="M43.519,43.555a.3.3,0,0,1-.062-.006,6.687,6.687,0,0,1-4.093-2.47,7.523,7.523,0,0,1-1.235-4.768c.014-.369.051-.763.112-1.2l.036-.257c.039-.273.076-.534.105-.806a18.8,18.8,0,0,0,.116-2.1,15.745,15.745,0,0,0-.485-4.124l-.487-2.139c-.1-.449-.228-.9-.354-1.334-.073-.252-.145-.5-.213-.756l-.284-1.05c-.06-.218-.134-.432-.209-.647-.042-.123-.085-.246-.125-.369-.084-.24-.167-.489-.249-.738-.144-.435-.288-.87-.458-1.294a31.076,31.076,0,0,0-4.015-7.557A25.3,25.3,0,0,0,25.525,6a25.971,25.971,0,0,0-7.789-3.573,33.194,33.194,0,0,0-8.6-1.22,36.585,36.585,0,0,0-8.7.876.317.317,0,0,1-.373-.22L.012,1.682a.311.311,0,0,1,.028-.24.314.314,0,0,1,.191-.15,37.779,37.779,0,0,1,8.9-1.28,34.117,34.117,0,0,1,9,.894A27.707,27.707,0,0,1,26.55,4.452a27.258,27.258,0,0,1,6.772,6.194,34.831,34.831,0,0,1,4.628,7.917,42.541,42.541,0,0,1,2.531,8.767,17.663,17.663,0,0,1,.312,4.7,20.692,20.692,0,0,1-.294,2.327c-.067.378-.152.77-.234,1.13s-.147.692-.187,1a6.083,6.083,0,0,0,.539,3.792,4.788,4.788,0,0,0,1.266,1.473A8.14,8.14,0,0,0,43.7,42.77a.324.324,0,0,1,.179.381l-.054.181A.316.316,0,0,1,43.519,43.555ZM10.605.633a32.6,32.6,0,0,1,7.305,1.19,26.619,26.619,0,0,1,7.972,3.66,25.926,25.926,0,0,1,6.243,6.086,31.682,31.682,0,0,1,4.095,7.7c.172.431.322.883.467,1.321.081.245.162.491.248.734.042.127.083.247.124.366.079.227.157.454.222.687l.284,1.052c.067.25.139.5.21.745.13.445.262.905.364,1.371l.485,2.127a16.374,16.374,0,0,1,.5,4.273,19.42,19.42,0,0,1-.12,2.164c-.029.279-.067.548-.108.829l-.037.255c-.058.418-.093.792-.106,1.143a6.911,6.911,0,0,0,1.113,4.368,5.344,5.344,0,0,0,1.183,1.152,5.194,5.194,0,0,1-.988-1.283,6.689,6.689,0,0,1-.611-4.177c.043-.325.107-.671.2-1.057.079-.349.163-.731.228-1.1a20.119,20.119,0,0,0,.285-2.258,17.069,17.069,0,0,0-.3-4.539A41.928,41.928,0,0,0,37.368,18.8a34.212,34.212,0,0,0-4.542-7.769,26.614,26.614,0,0,0-6.618-6.052,27.042,27.042,0,0,0-8.224-3.465A32.287,32.287,0,0,0,10.605.633Z" fill="#181818" stroke="rgba(0,0,0,0)" stroke-width="1"/></g><g transform="translate(34.56 74.971)"><path d="M.179,29.178a7.226,7.226,0,0,0,1.635,2.544,2.529,2.529,0,0,0,2.608.71,5.677,5.677,0,0,0,2.33-1.737,5.879,5.879,0,0,0,1.378-2.521A8.88,8.88,0,0,0,7.092,22.5c-.856-1.837-1.927-3.609-2.942-5.439a33.058,33.058,0,0,1-2.688-5.809,14.135,14.135,0,0,1-.6-3.282A9.757,9.757,0,0,1,1.292,4.6a10.6,10.6,0,0,1,.639-1.578c.118-.257.278-.49.416-.734a5.418,5.418,0,0,1,.485-.742A3.944,3.944,0,0,1,6.189.015a2.8,2.8,0,0,1,1.777.78,3.48,3.48,0,0,1,.868,1.572,8.446,8.446,0,0,1,.1,3.221H8.743a10.241,10.241,0,0,0-.72-2.926,2.525,2.525,0,0,0-.792-1.025,1.639,1.639,0,0,0-1.078-.293A2.567,2.567,0,0,0,4.17,2.534a6.232,6.232,0,0,0-.315.592c-.1.216-.228.421-.31.644a8.814,8.814,0,0,0-.437,1.341,11.216,11.216,0,0,0,.15,5.63,22.921,22.921,0,0,0,.95,2.835c.392.933.824,1.86,1.278,2.784.916,1.847,1.919,3.684,2.731,5.654a14.874,14.874,0,0,1,.943,3.092,7.267,7.267,0,0,1-.118,3.314,6.742,6.742,0,0,1-1.733,2.8,6.3,6.3,0,0,1-2.728,1.774,2.825,2.825,0,0,1-1.688-.059A3.463,3.463,0,0,1,1.531,32,7.508,7.508,0,0,1,0,29.236Z" transform="translate(0.315 0.314)" fill="#181818" stroke="rgba(0,0,0,0)" stroke-width="1"/><path d="M4.14,33.722a3.057,3.057,0,0,1-1.04-.18,3.726,3.726,0,0,1-1.483-1.007,7.773,7.773,0,0,1-1.6-2.887.315.315,0,0,1,.2-.4L.4,29.192a.316.316,0,0,1,.39.182,6.843,6.843,0,0,0,1.56,2.434,2.218,2.218,0,0,0,2.284.641,5.275,5.275,0,0,0,2.2-1.65,5.506,5.506,0,0,0,1.307-2.381c.461-1.91-.3-3.925-1.018-5.47-.628-1.346-1.357-2.631-2.129-3.993-.269-.473-.537-.947-.8-1.426a33.432,33.432,0,0,1-2.711-5.863A14.471,14.471,0,0,1,.863,8.305,9.991,9.991,0,0,1,1.306,4.82,10.975,10.975,0,0,1,1.961,3.2a5.044,5.044,0,0,1,.283-.513c.049-.08.1-.16.143-.242l.1-.166A4.284,4.284,0,0,1,2.9,1.655,4.237,4.237,0,0,1,6.535.016,3.1,3.1,0,0,1,8.505.889a3.764,3.764,0,0,1,.947,1.706,8.68,8.68,0,0,1,.107,3.351.316.316,0,0,1-.312.271h0l-.189,0a.315.315,0,0,1-.309-.274,10.014,10.014,0,0,0-.694-2.835,2.221,2.221,0,0,0-.682-.9,1.311,1.311,0,0,0-.88-.239,2.259,2.259,0,0,0-1.74,1.047,3.976,3.976,0,0,0-.23.424l-.07.14c-.035.074-.077.155-.119.237a3.142,3.142,0,0,0-.176.373l-.031.083a7.9,7.9,0,0,0-.393,1.213,10.9,10.9,0,0,0,.147,5.488,22.739,22.739,0,0,0,.936,2.8c.353.84.768,1.745,1.269,2.764.24.485.487.969.734,1.455.689,1.354,1.4,2.755,2.006,4.218a15,15,0,0,1,.961,3.158,7.513,7.513,0,0,1-.126,3.457,6.976,6.976,0,0,1-1.811,2.928,6.576,6.576,0,0,1-2.869,1.857A3.159,3.159,0,0,1,4.14,33.722ZM6.2.63A3.664,3.664,0,0,0,3.393,2.052a3.834,3.834,0,0,0-.364.544l-.1.165c-.044.078-.1.164-.148.251a4.3,4.3,0,0,0-.251.451A10.646,10.646,0,0,0,1.909,5a9.4,9.4,0,0,0-.419,3.272,13.825,13.825,0,0,0,.588,3.21A32.867,32.867,0,0,0,4.74,17.225c.264.477.532.95.8,1.421.745,1.312,1.515,2.669,2.152,4.039.759,1.636,1.566,3.783,1.06,5.877A6.1,6.1,0,0,1,7.3,31.215a7.227,7.227,0,0,1-1.73,1.494,7.205,7.205,0,0,0,1.827-1.4,6.356,6.356,0,0,0,1.653-2.66,6.908,6.908,0,0,0,.111-3.171,14.408,14.408,0,0,0-.924-3.027c-.594-1.44-1.3-2.829-1.984-4.172-.249-.488-.5-.975-.738-1.463-.507-1.03-.927-1.946-1.286-2.8a23.477,23.477,0,0,1-.964-2.878,11.506,11.506,0,0,1-.15-5.788,8.47,8.47,0,0,1,.418-1.3l.03-.078a3.918,3.918,0,0,1,.207-.444c.038-.073.077-.146.111-.22l.072-.145a4.573,4.573,0,0,1,.267-.49A2.893,2.893,0,0,1,6.45,1.342a1.967,1.967,0,0,1,1.274.347,2.794,2.794,0,0,1,.9,1.15,7.118,7.118,0,0,1,.4,1.152,6.893,6.893,0,0,0-.184-1.236A3.1,3.1,0,0,0,8.06,1.334,2.466,2.466,0,0,0,6.485.643C6.39.634,6.295.63,6.2.63Z" fill="#181818" stroke="rgba(0,0,0,0)" stroke-width="1"/></g><g transform="translate(63.417 66.102)"><path d="M23.214,20.877a7.515,7.515,0,0,1,.391,3.139,3.47,3.47,0,0,1-.556,1.552,2.827,2.827,0,0,1-1.331,1.042,6.3,6.3,0,0,1-3.249.17,6.743,6.743,0,0,1-3.047-1.241,7.263,7.263,0,0,1-2.045-2.61,14.836,14.836,0,0,1-1.057-3.055c-.5-2.071-.773-4.146-1.119-6.179-.176-1.015-.373-2.018-.6-3A23,23,0,0,0,9.7,7.84,11.211,11.211,0,0,0,6.5,3.2a8.85,8.85,0,0,0-1.142-.827c-.2-.132-.42-.223-.629-.339a6.2,6.2,0,0,0-.6-.293,2.565,2.565,0,0,0-2.3.2,1.643,1.643,0,0,0-.7.871,2.524,2.524,0,0,0-.037,1.295A10.22,10.22,0,0,0,2.228,6.9l-.152.113A8.453,8.453,0,0,1,.261,4.349,3.487,3.487,0,0,1,.037,2.567,2.8,2.8,0,0,1,1.015.891,3.947,3.947,0,0,1,4.628.15a5.479,5.479,0,0,1,.829.314c.256.117.522.21.768.349a10.622,10.622,0,0,1,1.446.9,9.749,9.749,0,0,1,2.336,2.478A14.1,14.1,0,0,1,11.451,7.2,33.047,33.047,0,0,1,12.7,13.477c.256,2.076.433,4.139.822,6.129a8.877,8.877,0,0,0,2.5,5.2,5.881,5.881,0,0,0,2.6,1.227,5.681,5.681,0,0,0,2.906.033,2.527,2.527,0,0,0,1.691-2.108,7.231,7.231,0,0,0-.174-3.019Z" transform="translate(0.315 0.317)" fill="#181818" stroke="rgba(0,0,0,0)" stroke-width="1"/><path d="M20.262,27.543a9.935,9.935,0,0,1-1.527-.136,6.987,6.987,0,0,1-3.192-1.3,7.523,7.523,0,0,1-2.134-2.72,14.991,14.991,0,0,1-1.08-3.12c-.374-1.539-.622-3.093-.862-4.6-.086-.536-.171-1.071-.261-1.6-.2-1.117-.391-2.094-.6-2.984a22.994,22.994,0,0,0-.887-2.808,10.9,10.9,0,0,0-3.1-4.513,8.024,8.024,0,0,0-1.051-.765l-.063-.042a3.282,3.282,0,0,0-.368-.2c-.081-.04-.162-.081-.242-.124l-.135-.07a3.87,3.87,0,0,0-.424-.2,2.262,2.262,0,0,0-2.027.172,1.336,1.336,0,0,0-.574.711,2.234,2.234,0,0,0-.024,1.132,10.032,10.032,0,0,0,1.106,2.7.314.314,0,0,1-.089.4l-.152.113a.314.314,0,0,1-.413-.034A8.657,8.657,0,0,1,.284,4.785,3.779,3.779,0,0,1,.042,2.833,3.107,3.107,0,0,1,1.129.966a4.233,4.233,0,0,1,3.9-.8,4.323,4.323,0,0,1,.7.254L5.892.49c.1.043.181.079.266.115a5.173,5.173,0,0,1,.536.251,10.886,10.886,0,0,1,1.485.926A9.98,9.98,0,0,1,10.586,4.34a14.447,14.447,0,0,1,1.477,3.071,33.458,33.458,0,0,1,1.259,6.344c.067.543.128,1.083.189,1.623.177,1.556.344,3.026.629,4.484.329,1.669.9,3.748,2.392,5.017A5.51,5.51,0,0,0,19,26.04a5.275,5.275,0,0,0,2.74.041,2.211,2.211,0,0,0,1.477-1.86,6.836,6.836,0,0,0-.17-2.891.315.315,0,0,1,.208-.376l.18-.059a.314.314,0,0,1,.24.019.317.317,0,0,1,.157.183,7.774,7.774,0,0,1,.4,3.27,3.746,3.746,0,0,1-.611,1.7,3.129,3.129,0,0,1-1.477,1.154A5.22,5.22,0,0,1,20.262,27.543ZM3.486,1.562a2.93,2.93,0,0,1,1.074.2A4.358,4.358,0,0,1,5.052,2l.139.072c.081.044.154.081.228.117a3.869,3.869,0,0,1,.434.24l.059.038a8.6,8.6,0,0,1,1.119.817A11.5,11.5,0,0,1,10.3,8.041a23.486,23.486,0,0,1,.913,2.891c.214.906.413,1.9.61,3.026.091.535.177,1.072.263,1.611.238,1.49.483,3.032.851,4.547a14.345,14.345,0,0,0,1.035,2.991,6.9,6.9,0,0,0,1.954,2.5,6.364,6.364,0,0,0,2.907,1.18,7.264,7.264,0,0,0,2.3.059,7.248,7.248,0,0,1-2.275-.191,6.113,6.113,0,0,1-2.737-1.3c-1.638-1.393-2.249-3.6-2.6-5.372-.29-1.484-.466-3.035-.636-4.535-.061-.538-.123-1.076-.189-1.617a32.911,32.911,0,0,0-1.232-6.22,13.786,13.786,0,0,0-1.41-2.933,9.371,9.371,0,0,0-2.262-2.4,10.426,10.426,0,0,0-1.406-.875,4.536,4.536,0,0,0-.473-.22c-.092-.038-.184-.077-.274-.118L5.472,1A3.772,3.772,0,0,0,4.865.772a3.612,3.612,0,0,0-3.327.673A2.471,2.471,0,0,0,.663,2.931,3.12,3.12,0,0,0,.87,4.557a6.836,6.836,0,0,0,.575,1.1,7.112,7.112,0,0,1-.351-1.167,2.811,2.811,0,0,1,.05-1.465,1.965,1.965,0,0,1,.828-1.03A2.806,2.806,0,0,1,3.486,1.562Z" fill="#181818" stroke="rgba(0,0,0,0)" stroke-width="1"/></g></g><g transform="translate(20.349 39.289)"><path d="M53.3,163.389,46.528,143l-6.7-20.411-13.4-40.823L13.176,40.9,6.553,20.459,0,0,6.772,20.388l6.7,20.411,13.4,40.823,13.25,40.872,6.623,20.437Z" transform="translate(0.315 0.315)" fill="#181818" stroke="rgba(0,0,0,0)" stroke-width="1"/><path d="M53.614,164.018a.315.315,0,0,1-.3-.216l-6.771-20.388L26.441,82.18,6.568,20.871.015.411a.315.315,0,0,1,.6-.2L7.386,20.6l20.1,61.235,19.873,61.31,6.553,20.461a.315.315,0,0,1-.2.4A.327.327,0,0,1,53.614,164.018Z" fill="#181818" stroke="rgba(0,0,0,0)" stroke-width="1"/></g><g transform="translate(23.33 38.775)"><path d="M55.459,162.417l-7.041-20.265-6.972-20.289L27.507,81.285l-13.79-40.63L6.823,20.339,0,0,7.042,20.265l6.972,20.289L27.952,81.132l13.79,40.63,6.893,20.316Z" transform="translate(0.315 0.315)" fill="#181818" stroke="rgba(0,0,0,0)" stroke-width="1"/><path d="M55.774,163.047a.315.315,0,0,1-.3-.211L48.436,142.57,27.525,81.7,6.84,20.756.016.415a.315.315,0,0,1,.6-.2L7.654,20.476,28.565,81.345l20.683,60.947,6.824,20.34a.315.315,0,0,1-.2.4A.32.32,0,0,1,55.774,163.047Z" fill="#181818" stroke="rgba(0,0,0,0)" stroke-width="1"/></g><g transform="translate(25.925 38.466)"><path d="M56.867,160.087l-7.217-19.973-7.148-20-14.291-40L14.069,40.074,7,20.05,0,0,7.217,19.972l7.147,20,14.291,40L42.8,120.013l7.069,20.025Z" transform="translate(0.315 0.315)" fill="#181818" stroke="rgba(0,0,0,0)" stroke-width="1"/><path d="M57.182,160.716a.316.316,0,0,1-.3-.208l-7.216-19.972L28.23,80.543,7.017,20.469.018.418A.315.315,0,0,1,.61.207L7.828,20.18,29.267,80.173l21.212,60.075,7,20.05a.315.315,0,0,1-.192.4A.31.31,0,0,1,57.182,160.716Z" fill="#181818" stroke="rgba(0,0,0,0)" stroke-width="1"/></g><g transform="translate(27.003 37.644)"><path d="M58.95,159.371l-7.476-19.882-7.408-19.907L29.254,79.767,14.59,39.9,7.26,19.961,0,0,7.477,19.881l7.408,19.907L29.7,79.6l14.663,39.87,7.33,19.936Z" transform="translate(0.315 0.315)" fill="#181818" stroke="rgba(0,0,0,0)" stroke-width="1"/><path d="M59.264,160a.315.315,0,0,1-.295-.2l-7.476-19.882L29.274,80.192,7.28,20.385.019.423A.315.315,0,0,1,.609.2L8.086,20.086,30.305,79.809,52.3,139.616l7.261,19.963a.315.315,0,0,1-.3.422Z" fill="#181818" stroke="rgba(0,0,0,0)" stroke-width="1"/></g><g transform="translate(17.728 35.905)"><g transform="translate(0 4.155)"><path d="M36.245,113.943l-1.117-.624-.006,0-.006-.006a6.358,6.358,0,0,1-1.965-3.146l-1-3.575-2.013-7.145L26.075,85.165q-4.068-14.278-8.252-28.522L9.263,28.221,7.127,21.116l-2.2-7.082-1.14-3.528C3.406,9.33,3.03,8.151,2.608,6.992l-1.213-3.5L0,.057.112,0,1.73,3.353l1.412,3.44c.48,1.145.9,2.312,1.324,3.474l1.283,3.489c.835,2.332,1.606,4.686,2.407,7.031l2.3,7.064c3,9.441,5.663,18.979,8.342,28.51s5.3,19.077,7.892,28.631l3.828,14.347,1.893,7.179.94,3.591a6.176,6.176,0,0,0,1.86,3.09l-.012-.008,1.106.643Z" transform="translate(0.315 0.315)" fill="#181818" stroke="rgba(0,0,0,0)" stroke-width="1"/><path d="M36.56,114.572a.313.313,0,0,1-.153-.04l-1.117-.625a.392.392,0,0,1-.057-.038,6.706,6.706,0,0,1-2.071-3.309L30.15,99.844,26.087,85.565c-3.174-11.141-5.8-20.2-8.251-28.518L7.141,21.522l-2.2-7.079L3.729,10.7c-.347-1.083-.707-2.2-1.1-3.283L1.412,3.907.023.49a.315.315,0,0,1,.149-.4L.284.034A.316.316,0,0,1,.527.016.313.313,0,0,1,.711.177L2.328,3.531l1.42,3.458c.413.986.785,2,1.145,2.985l1.467,3.99c.575,1.6,1.127,3.243,1.661,4.827Q8.394,19.9,8.769,21l2.3,7.068c2.866,9.028,5.469,18.292,7.988,27.25l.358,1.272c2.411,8.576,4.993,17.942,7.892,28.634l6.661,25.119a5.884,5.884,0,0,0,1.738,2.91l1.07.622a.314.314,0,0,1,.116.427l-.062.11A.315.315,0,0,1,36.56,114.572ZM3.672,8.5c.227.672.444,1.348.656,2.01l1.21,3.747,2.2,7.086,10.7,35.529c2.456,8.319,5.078,17.382,8.254,28.525l.2.7-.188-.7c-2.9-10.688-5.481-20.052-7.891-28.627l-.358-1.273c-2.517-8.954-5.119-18.212-7.981-27.228L8.172,21.2q-.376-1.1-.748-2.209c-.532-1.581-1.084-3.217-1.656-4.814L4.3,10.19C4.1,9.631,3.889,9.062,3.672,8.5Z" fill="#181818" stroke="rgba(0,0,0,0)" stroke-width="1"/></g><g transform="translate(10.736)"><path d="M42.514,111.958,43,110.773l0,.014a6.18,6.18,0,0,0-.42-3.59l-1.455-3.424-2.9-6.852L32.445,83.206l-11.4-27.49c-3.781-9.172-7.6-18.331-11.158-27.593-1.757-4.64-3.527-9.276-5.209-13.945C3.032,9.494,1.319,4.831,0,.037L.12,0,1.4,3.492,2.753,6.954c.884,2.314,1.826,4.609,2.737,6.914l5.559,13.8c3.715,9.195,7.286,18.448,10.937,27.67L33.039,82.963,38.584,96.77l2.783,6.9,1.4,3.447a6.359,6.359,0,0,1,.372,3.7l0,.008,0,.006-.5,1.178Z" transform="translate(0.315 0.315)" fill="#181818" stroke="rgba(0,0,0,0)" stroke-width="1"/><path d="M42.945,112.636a.3.3,0,0,1-.12-.024l-.116-.048a.314.314,0,0,1-.171-.409L43,111.007a5.89,5.89,0,0,0-.406-3.368l-4.355-10.28L32.47,83.643,19.639,52.693C16.384,44.807,13.018,36.653,9.9,28.55l-.667-1.759C7.727,22.8,6.164,18.681,4.694,14.6l-.738-2.091C2.57,8.584,1.137,4.527.011.435A.314.314,0,0,1,.223.05L.344.013A.314.314,0,0,1,.731.207L2.007,3.7,3.36,7.154c.573,1.5,1.169,2.988,1.765,4.477q.487,1.218.971,2.436l5.558,13.795c2.39,5.916,4.759,11.954,7.05,17.794q1.939,4.941,3.888,9.878L33.645,83.161l9.726,24.152a6.694,6.694,0,0,1,.388,3.879.382.382,0,0,1-.019.065l-.507,1.188A.314.314,0,0,1,42.945,112.636ZM3.316,8.783c.409,1.181.823,2.355,1.234,3.516l.737,2.09c1.468,4.075,3.029,8.2,4.54,12.18l.667,1.758c3.11,8.094,6.474,16.244,9.728,24.127l1.427,3.458L33.331,84.068l-.27-.673L22.008,55.766q-1.954-4.938-3.888-9.88C15.829,40.048,13.46,34.01,11.071,28.1L5.512,14.3q-.482-1.222-.971-2.436C4.131,10.838,3.719,9.812,3.316,8.783Z" fill="#181818" stroke="rgba(0,0,0,0)" stroke-width="1"/></g><g transform="translate(27.941 157.57)"><g transform="translate(0 30.734)"><path d="M64.6,13.494a3.425,3.425,0,0,0-1.322-1.832,4.7,4.7,0,0,0-2.156-.742,11.537,11.537,0,0,0-4.565.728c-.369.126-.727.284-1.091.424a11.64,11.64,0,0,0-1.076.461L52.263,13.55a11.75,11.75,0,0,1-4.642,1.23,7.91,7.91,0,0,1-4.665-1.315,10.853,10.853,0,0,1-3.285-3.572A14.388,14.388,0,0,0,33.194,3.6a22.6,22.6,0,0,0-6.551-2.111c-.376-.072-.76-.082-1.14-.126-.381-.027-.76-.093-1.142-.09a23.624,23.624,0,0,0-8.994,1.494l-1.078.411a8.259,8.259,0,0,0-1.064.45L11.147,4.654c-1.319.811-2.667,1.585-3.909,2.53A63.573,63.573,0,0,0,.093,13.278L0,13.193q.77-.9,1.56-1.782c.532-.583,1.027-1.207,1.611-1.742A42.878,42.878,0,0,1,6.707,6.485a36.226,36.226,0,0,1,3.9-2.772L12.72,2.569a8.927,8.927,0,0,1,1.091-.511l1.112-.471a19.345,19.345,0,0,1,2.3-.759A17.925,17.925,0,0,1,19.584.292,22.269,22.269,0,0,1,24.427.027c.4.008.8.086,1.208.125.4.057.806.08,1.2.166a22.9,22.9,0,0,1,2.357.563A22.661,22.661,0,0,1,33.657,2.7a14.594,14.594,0,0,1,3.914,2.86A16.616,16.616,0,0,1,40.378,9.48a10.093,10.093,0,0,0,2.982,3.384,7.221,7.221,0,0,0,4.249,1.287,11.2,11.2,0,0,0,4.447-1.059c.706-.3,1.439-.64,2.159-.961.356-.173.733-.3,1.105-.439s.742-.283,1.121-.4a11.839,11.839,0,0,1,4.712-.619,4.915,4.915,0,0,1,2.237.839,3.582,3.582,0,0,1,1.336,1.961Z" transform="translate(0.315 0.315)" fill="#181818" stroke="rgba(0,0,0,0)" stroke-width="1"/><path d="M47.714,15.413a8.167,8.167,0,0,1-4.622-1.375,11.1,11.1,0,0,1-3.377-3.67A14.041,14.041,0,0,0,33.375,4.2a21.057,21.057,0,0,0-4.246-1.613,12.444,12.444,0,0,0-1.544-.346c-.231-.041-.461-.082-.69-.129a6.59,6.59,0,0,0-.691-.082c-.141-.012-.282-.025-.423-.041s-.267-.023-.408-.038a6.147,6.147,0,0,0-.695-.049,23.216,23.216,0,0,0-8.887,1.475l-1.178.448a7.043,7.043,0,0,0-.921.394L11.6,5.251l-.743.454A36.026,36.026,0,0,0,7.743,7.749,60.2,60.2,0,0,0,.982,13.486l-.359.336a.317.317,0,0,1-.426,0L.1,13.742A.314.314,0,0,1,.076,13.3q.772-.9,1.563-1.786c.164-.179.322-.361.48-.542A15.007,15.007,0,0,1,3.273,9.752l.49-.471A36.024,36.024,0,0,1,6.831,6.549,25.417,25.417,0,0,1,9.8,4.389c.315-.206.63-.412.942-.622l2.142-1.16a8.362,8.362,0,0,1,1.028-.487l1.2-.508a11.744,11.744,0,0,1,1.664-.573c.22-.063.441-.127.66-.2A12.9,12.9,0,0,1,19.3.4c.179-.033.357-.067.536-.1A22.2,22.2,0,0,1,24.754.027,7.368,7.368,0,0,1,25.569.1c.137.018.274.036.412.05.152.021.291.037.431.052a8.052,8.052,0,0,1,.807.118c.23.052.459.1.686.146A13.929,13.929,0,0,1,29.609.9,22.643,22.643,0,0,1,34.117,2.74a14.933,14.933,0,0,1,4,2.921,16.828,16.828,0,0,1,2.858,3.987,9.7,9.7,0,0,0,2.882,3.271,6.856,6.856,0,0,0,4.07,1.232,10.882,10.882,0,0,0,4.321-1.033c.478-.2.966-.424,1.453-.644l.7-.317a9.9,9.9,0,0,1,.951-.383l.174-.064c.132-.047.259-.094.387-.142.248-.093.5-.185.748-.264a12.321,12.321,0,0,1,4.841-.631,5.2,5.2,0,0,1,2.392.9,3.9,3.9,0,0,1,1.452,2.136.316.316,0,0,1-.04.245.313.313,0,0,1-.2.14l-.124.025a.312.312,0,0,1-.364-.224,3.119,3.119,0,0,0-1.2-1.66,4.353,4.353,0,0,0-2.013-.686,11.151,11.151,0,0,0-4.426.713c-.23.079-.459.172-.686.264-.13.053-.261.106-.391.156l-.172.069a9.233,9.233,0,0,0-.872.378l-2.139,1.022a11.934,11.934,0,0,1-4.769,1.261C47.868,15.412,47.791,15.413,47.714,15.413Zm-23-14.142a6.8,6.8,0,0,1,.724.052c.133.014.266.029.4.038.149.017.283.029.417.04a7.5,7.5,0,0,1,.76.092c.228.047.453.087.678.127a12.777,12.777,0,0,1,1.6.36,21.564,21.564,0,0,1,4.348,1.65,14.653,14.653,0,0,1,6.616,6.427,10.464,10.464,0,0,0,3.18,3.458,7.574,7.574,0,0,0,4.484,1.264H47.9a7.574,7.574,0,0,1-4.406-1.346A10.316,10.316,0,0,1,40.419,9.95,16.251,16.251,0,0,0,37.663,6.1,14.308,14.308,0,0,0,33.83,3.3a22.12,22.12,0,0,0-4.406-1.8,13.319,13.319,0,0,0-1.647-.412c-.232-.047-.464-.1-.7-.148a7.328,7.328,0,0,0-.74-.107C26.2.816,26.049.8,25.9.779S25.63.746,25.486.728a6.873,6.873,0,0,0-.75-.071,21.594,21.594,0,0,0-4.781.261c-.175.035-.356.068-.537.1a12.307,12.307,0,0,0-1.781.422c-.231.073-.456.138-.682.2a11.1,11.1,0,0,0-1.585.544L14.156,2.7a7.68,7.68,0,0,0-.961.454L11.07,4.3c-.288.2-.605.4-.922.612A24.928,24.928,0,0,0,7.23,7.035a32.92,32.92,0,0,0-2.8,2.483c.95-.8,1.928-1.575,2.947-2.278a36.211,36.211,0,0,1,3.158-2.073L11.3,4.7l2.1-1.042a7.532,7.532,0,0,1,.991-.425l1.178-.447a23.891,23.891,0,0,1,9.118-1.516Z" fill="#181818" stroke="rgba(0,0,0,0)" stroke-width="1"/></g><g transform="translate(21.661)"><path d="M30.946,41.121a5.1,5.1,0,0,1-1.045-.812c-.154-.157-.315-.308-.462-.47l-.419-.507a11.431,11.431,0,0,1-.772-1.063,11.179,11.179,0,0,1-.683-1.12A25.181,25.181,0,0,1,26.389,34.8c-.356-.8-.639-1.628-.962-2.441a64.612,64.612,0,0,1-2.468-10.178q-.795-5.178-1.12-10.413c-.079-1.743-.229-3.486-.249-5.23l-.1-5.235.072.244a1.671,1.671,0,0,0-.534-.438,1.741,1.741,0,0,0-.7-.2,6.424,6.424,0,0,0-1.656.29c-1.17.3-2.339.635-3.5.991-2.32.719-4.613,1.529-6.858,2.438a39.828,39.828,0,0,0-6.449,3.22l-.19.118a.382.382,0,0,0-.052.034l-.045.04a.964.964,0,0,0-.306.751,1.9,1.9,0,0,0,.155.655l.076.171c.025.051.047.067.067.105.07.089.151.194.248.3.782.853,1.672,1.726,2.524,2.594a80.753,80.753,0,0,1,9.532,11.227,40.843,40.843,0,0,1,3.6,6.451,22.452,22.452,0,0,1,1.864,7.116l-.125.014a23.962,23.962,0,0,0-.891-3.526,31.231,31.231,0,0,0-1.417-3.339,41.2,41.2,0,0,0-3.825-6.156A92.157,92.157,0,0,0,3.432,13.533C2.57,12.661,1.693,11.844.843,10.88c-.108-.121-.214-.257-.328-.411a3.1,3.1,0,0,1-.17-.286L.238,9.934A3.153,3.153,0,0,1,0,8.811,2.3,2.3,0,0,1,.329,7.6,2.256,2.256,0,0,1,.738,7.11C.777,7.074.822,7.038.868,7a1.292,1.292,0,0,1,.138-.093l.2-.121a39.941,39.941,0,0,1,6.7-3.2c2.3-.882,4.633-1.648,6.989-2.339C16.073.906,17.256.583,18.457.3c.3-.074.605-.137.912-.2A3.661,3.661,0,0,1,20.4.011a2.6,2.6,0,0,1,1.9,1.056l.072.1v.146l.021,5.212c-.006,1.738.117,3.471.169,5.207.159,3.47.486,6.929.937,10.373a64.315,64.315,0,0,0,2.247,10.152c.3.811.568,1.64.905,2.437a24.819,24.819,0,0,0,1.117,2.344,10.986,10.986,0,0,0,.653,1.122,11.332,11.332,0,0,0,.74,1.064l.4.509c.142.162.3.313.445.47a5.009,5.009,0,0,0,.993.808Z" transform="translate(0.315 0.315)" fill="#181818" stroke="rgba(0,0,0,0)" stroke-width="1"/><path d="M31.26,41.751a.317.317,0,0,1-.157-.042,5.37,5.37,0,0,1-1.108-.862l-.163-.163c-.106-.1-.211-.209-.311-.318l-.429-.519a6.889,6.889,0,0,1-.571-.767c-.07-.105-.142-.21-.215-.314a9.33,9.33,0,0,1-.6-.969l-.1-.179a17.54,17.54,0,0,1-.921-1.8c-.087-.189-.174-.377-.264-.564-.238-.533-.443-1.075-.641-1.6-.108-.288-.217-.575-.33-.861a65.833,65.833,0,0,1-2.486-10.239c-.539-3.513-.917-7.026-1.123-10.449-.028-.622-.065-1.239-.1-1.857-.066-1.11-.135-2.256-.148-3.389L21.5,1.916a1.323,1.323,0,0,0-.291-.206,1.429,1.429,0,0,0-.578-.165,4.2,4.2,0,0,0-1.194.193c-.123.03-.248.062-.371.09-1.038.264-2.178.587-3.477.986-2.366.735-4.666,1.551-6.833,2.428a39.071,39.071,0,0,0-6.4,3.193l-.193.12a.631.631,0,0,0-.255.551,1.584,1.584,0,0,0,.132.544l.071.161c.01.013.052.073.059.087.053.06.121.146.2.232.558.608,1.184,1.239,1.789,1.85l.728.736a80.894,80.894,0,0,1,9.567,11.268,41.358,41.358,0,0,1,3.63,6.5,22.766,22.766,0,0,1,1.889,7.219.314.314,0,0,1-.278.337l-.125.014a.315.315,0,0,1-.346-.259,23.711,23.711,0,0,0-.879-3.481,30.752,30.752,0,0,0-1.4-3.3,40.51,40.51,0,0,0-3.8-6.108A92.37,92.37,0,0,0,3.524,14.069c-.251-.252-.5-.5-.751-.748-.61-.6-1.241-1.226-1.851-1.918-.113-.127-.225-.271-.345-.432L.533,10.9a2.622,2.622,0,0,1-.159-.274l-.111-.258A3.446,3.446,0,0,1,0,9.128,2.554,2.554,0,0,1,.842,7.191c.044-.04.1-.082.149-.124a1.97,1.97,0,0,1,.177-.118l.189-.115A39.589,39.589,0,0,1,8.107,3.609c2.174-.833,4.469-1.6,7.013-2.346C16.466.871,17.6.566,18.7.305c.283-.07.575-.131.868-.191a4.03,4.03,0,0,1,1.183-.1A2.917,2.917,0,0,1,22.868,1.2l.072.1a.31.31,0,0,1,.06.184l.021,5.358c0,1.117.047,2.251.1,3.348.027.617.055,1.234.074,1.852.151,3.312.456,6.7.934,10.341a64.769,64.769,0,0,0,2.234,10.095c.1.277.208.57.312.862.182.514.37,1.044.583,1.55.083.182.167.373.251.565a16.793,16.793,0,0,0,.847,1.743l.1.194a8.576,8.576,0,0,0,.534.9c.076.112.147.222.218.332a6.119,6.119,0,0,0,.5.708l.411.519c.077.088.17.183.262.279l.165.171a4.662,4.662,0,0,0,.926.754.316.316,0,0,1,.121.4l-.054.114a.316.316,0,0,1-.191.165A.32.32,0,0,1,31.26,41.751ZM20.493.629A4.17,4.17,0,0,0,19.74.72c-.33.069-.615.128-.892.2-1.088.259-2.216.561-3.552.95-2.528.74-4.805,1.5-6.963,2.33A38.921,38.921,0,0,0,1.687,7.37l-.2.123a1.281,1.281,0,0,0-.109.073c-.039.03-.076.06-.11.091a1.908,1.908,0,0,0-.354.426A1.993,1.993,0,0,0,.63,9.121a2.8,2.8,0,0,0,.216,1.013l.1.239a2.075,2.075,0,0,0,.116.193,5.114,5.114,0,0,0,.329.42c.6.677,1.219,1.293,1.821,1.888.253.249.5.5.756.752a92.887,92.887,0,0,1,9.686,10.912,41.179,41.179,0,0,1,3.839,6.175,40.716,40.716,0,0,0-3.561-6.373A80.262,80.262,0,0,0,4.439,13.159l-.727-.736c-.61-.614-1.241-1.25-1.806-1.868-.091-.1-.169-.2-.237-.285a.86.86,0,0,1-.058-.083.548.548,0,0,1-.07-.111L1.46,9.894a2.165,2.165,0,0,1-.182-.777,1.282,1.282,0,0,1,.407-.986l.055-.047c.012-.011.076-.055.089-.063L2.02,7.9a39.651,39.651,0,0,1,6.5-3.245c2.184-.884,4.5-1.707,6.884-2.446,1.31-.4,2.46-.729,3.515-1l.368-.089a4.761,4.761,0,0,1,1.388-.21,2.053,2.053,0,0,1,.818.231,1.679,1.679,0,0,1,.264.163h0a.315.315,0,0,1,.35.222l.072.244a.315.315,0,0,1-.05.279l.091,4.8c.013,1.12.081,2.259.147,3.361.037.621.074,1.241.1,1.862.12,1.971.3,3.975.527,5.991-.2-2.052-.344-4.039-.434-6-.019-.619-.047-1.234-.074-1.848-.05-1.1-.1-2.246-.1-3.375L22.36,1.567a2.275,2.275,0,0,0-1.67-.928Q20.59.629,20.493.629Z" fill="#181818" stroke="rgba(0,0,0,0)" stroke-width="1"/></g></g><g transform="translate(44.497 139.91)"><path d="M0,5.814C1.544,5.465,3.081,5.1,4.6,4.667q2.279-.62,4.5-1.412c1.48-.523,2.89-1.208,4.363-1.725S16.391.454,17.941,0L18,.11a17.945,17.945,0,0,1-4.06,2.58A26.119,26.119,0,0,1,9.395,4.215c-1.541.419-3.1.771-4.658,1.066C3.17,5.554,1.6,5.787.02,5.938Z" transform="translate(0.314 0.314)" fill="#181818" stroke="rgba(0,0,0,0)" stroke-width="1"/><path d="M.334,6.567A.314.314,0,0,1,.024,6.3L0,6.177a.314.314,0,0,1,.241-.356c1.467-.332,3.037-.7,4.578-1.142C6.371,4.257,7.876,3.784,9.3,3.273c.727-.257,1.451-.559,2.151-.852.719-.3,1.463-.61,2.214-.874l.779-.28c1.2-.432,2.437-.879,3.723-1.254a.315.315,0,0,1,.364.15l.06.11a.315.315,0,0,1-.069.389,18.047,18.047,0,0,1-4.131,2.626,23.327,23.327,0,0,1-4.11,1.41l-.489.135C8.29,5.241,6.714,5.6,5.11,5.9c-1.8.315-3.31.525-4.746.662ZM17.054,1.02c-.816.27-1.614.558-2.4.84l-.782.281C13.14,2.4,12.4,2.705,11.694,3s-1.44.6-2.181.863c-1.438.517-2.959.994-4.52,1.419H5c1.585-.3,3.144-.655,4.63-1.059l.488-.135a22.9,22.9,0,0,0,4-1.369A19.776,19.776,0,0,0,17.054,1.02Z" fill="#181818" stroke="rgba(0,0,0,0)" stroke-width="1"/></g></g><g transform="translate(0 0)"><g transform="translate(13.632 20.372)"><path d="M3.764,16.36q-.309-2.085-.687-4.16c-.243-1.383-.5-2.764-.795-4.134S1.628,5.342,1.3,3.988C1.143,3.31.971,2.634.765,1.972A9.666,9.666,0,0,0,0,.04L.048,0A6.359,6.359,0,0,1,1.176,1.818a19.4,19.4,0,0,1,.733,2,33.811,33.811,0,0,1,.868,4.149c.466,2.782.809,5.578,1.05,8.381Z" transform="translate(0.315 0.294)" fill="#181818" stroke="rgba(0,0,0,0)" stroke-width="1"/><path d="M4.138,16.962a.37.37,0,0,1-.37-.262c-.2-1.358-.432-2.755-.685-4.149-.283-1.606-.534-2.917-.794-4.125-.2-.919-.429-1.833-.654-2.745q-.163-.664-.325-1.326c-.19-.81-.354-1.425-.531-2A9.369,9.369,0,0,0,.037.481.314.314,0,0,1,.115.091.379.379,0,0,1,.6.082,6.634,6.634,0,0,1,1.781,1.989a15.8,15.8,0,0,1,.627,1.682l.115.346A30.354,30.354,0,0,1,3.33,7.793l.071.42c.451,2.687.806,5.515,1.054,8.407a.315.315,0,0,1-.278.34ZM1.922,4.207v0c.106.439.215.88.323,1.321.047.189.093.377.139.566-.127-.636-.275-1.27-.463-1.888Z" fill="#181818" stroke="rgba(0,0,0,0)" stroke-width="1"/></g><g transform="translate(8.819 25.168)"><path d="M0,1.686Q.971,1.139,1.96.641a5.591,5.591,0,0,1,1-.479A3.449,3.449,0,0,1,4.088,0l.024.059A3.45,3.45,0,0,1,3.2.744a5.586,5.586,0,0,1-1.046.362Q1.1,1.45.024,1.745Z" transform="translate(0.314 0.315)" fill="#181818" stroke="rgba(0,0,0,0)" stroke-width="1"/><path d="M.338,2.374a.315.315,0,0,1-.291-.2L.024,2.12A.314.314,0,0,1,.16,1.727C.811,1.359,1.475,1.006,2.133.675c.094-.047.187-.1.279-.15A3.491,3.491,0,0,1,3.189.173,3.75,3.75,0,0,1,4.417,0,.315.315,0,0,1,4.693.2l.024.059a.314.314,0,0,1-.059.332,3.738,3.738,0,0,1-.994.746,3.445,3.445,0,0,1-.794.3c-.1.029-.205.057-.307.091-.706.23-1.426.446-2.142.642A.319.319,0,0,1,.338,2.374ZM3.376.775,3.358.78a2.135,2.135,0,0,0-.424.177A2.115,2.115,0,0,0,3.358.785Z" fill="#181818" stroke="rgba(0,0,0,0)" stroke-width="1"/></g><g transform="translate(0 23.446)"><path d="M7.1,1.2a6.632,6.632,0,0,0-2.3-.929A3.325,3.325,0,0,0,2.454.717,4.687,4.687,0,0,0,.5,4.906a3.2,3.2,0,0,0,.852,2.1,2.594,2.594,0,0,0,2.074.636,6.953,6.953,0,0,0,2.322-.648c.386-.151.745-.366,1.122-.546.368-.2.726-.419,1.1-.617l.037.051c-.32.277-.652.542-.985.809-.358.23-.7.491-1.079.7a6.872,6.872,0,0,1-2.462.882,2.979,2.979,0,0,1-.683.016l-.346-.029c-.115-.021-.228-.057-.342-.087A2.711,2.711,0,0,1,.911,7.443,3.753,3.753,0,0,1,0,4.927,5.737,5.737,0,0,1,.56,2.376,4.31,4.31,0,0,1,2.294.447,3.58,3.58,0,0,1,4.826.088a6.742,6.742,0,0,1,2.3,1.062Z" transform="translate(0.315 0.315)" fill="#181818" stroke="rgba(0,0,0,0)" stroke-width="1"/><path d="M3.343,8.929a1.959,1.959,0,0,1-.267-.018l-.329-.026a2.764,2.764,0,0,1-.291-.068l-.1-.028a3.036,3.036,0,0,1-1.348-.806A4.062,4.062,0,0,1,0,5.242,6.069,6.069,0,0,1,.59,2.556,4.636,4.636,0,0,1,2.453.487,3.9,3.9,0,0,1,5.209.1,6.9,6.9,0,0,1,7.62,1.2a.315.315,0,0,1,.087.437.38.38,0,0,1-.458.147A6.26,6.26,0,0,0,5.057.9a3.028,3.028,0,0,0-2.118.4A4.338,4.338,0,0,0,1.133,5.206,2.875,2.875,0,0,0,1.894,7.1a2.285,2.285,0,0,0,1.823.544,6.557,6.557,0,0,0,2.22-.622,7.2,7.2,0,0,0,.7-.331c.138-.072.277-.144.419-.211s.31-.173.471-.266c.2-.117.408-.234.619-.345a.315.315,0,0,1,.4.091l.037.05a.315.315,0,0,1-.047.425c-.314.271-.639.532-.967.794-.008.008-.046.036-.055.042-.119.076-.235.156-.353.236a8.743,8.743,0,0,1-.746.471,7.145,7.145,0,0,1-2.565.916L3.737,8.9C3.609,8.917,3.479,8.929,3.343,8.929ZM1.7,7.759a2.192,2.192,0,0,0,.807.42l.117.031c.069.02.137.039.205.052l.315.024a2.226,2.226,0,0,0,.534-.008l.1-.008H3.766A3.009,3.009,0,0,1,1.7,7.759Z" fill="#181818" stroke="rgba(0,0,0,0)" stroke-width="1"/></g><g transform="translate(10.786 34.856)"><path d="M0,1.686Q.97,1.14,1.96.641a5.571,5.571,0,0,1,1-.479A3.431,3.431,0,0,1,4.088,0l.024.059A3.45,3.45,0,0,1,3.2.744a5.573,5.573,0,0,1-1.046.363Q1.1,1.45.024,1.744Z" transform="translate(0.315 0.314)" fill="#181818" stroke="rgba(0,0,0,0)" stroke-width="1"/><path d="M.339,2.373a.315.315,0,0,1-.291-.2L.023,2.12A.315.315,0,0,1,.16,1.726C.81,1.36,1.474,1.006,2.133.674c.1-.047.189-.1.282-.151A3.46,3.46,0,0,1,3.19.173,3.819,3.819,0,0,1,4.418,0a.316.316,0,0,1,.276.2l.024.059a.316.316,0,0,1-.059.33,3.766,3.766,0,0,1-.994.746,3.444,3.444,0,0,1-.795.3c-.1.028-.2.057-.305.09-.706.23-1.427.446-2.142.643A.317.317,0,0,1,.339,2.373ZM3.376.774,3.359.779a2.121,2.121,0,0,0-.425.177A2.1,2.1,0,0,0,3.357.785Z" fill="#181818" stroke="rgba(0,0,0,0)" stroke-width="1"/></g><g transform="translate(1.967 33.133)"><path d="M7.1,1.2a6.649,6.649,0,0,0-2.3-.929A3.327,3.327,0,0,0,2.453.717,4.687,4.687,0,0,0,.5,4.907a3.2,3.2,0,0,0,.852,2.1,2.6,2.6,0,0,0,2.074.635,6.927,6.927,0,0,0,2.322-.648c.385-.151.744-.366,1.122-.546.368-.2.725-.419,1.1-.617l.037.051c-.32.276-.652.542-.986.809-.357.23-.7.49-1.078.695a6.859,6.859,0,0,1-2.462.882,2.98,2.98,0,0,1-.683.016l-.346-.028c-.115-.021-.228-.058-.342-.087a2.719,2.719,0,0,1-1.2-.726A3.753,3.753,0,0,1,0,4.927,5.733,5.733,0,0,1,.56,2.377,4.308,4.308,0,0,1,2.293.447,3.581,3.581,0,0,1,4.826.088,6.766,6.766,0,0,1,7.13,1.15Z" transform="translate(0.315 0.314)" fill="#181818" stroke="rgba(0,0,0,0)" stroke-width="1"/><path d="M3.343,8.929a1.865,1.865,0,0,1-.267-.018l-.328-.026a2.6,2.6,0,0,1-.291-.067l-.1-.028a3.032,3.032,0,0,1-1.347-.807A4.062,4.062,0,0,1,0,5.242a6.081,6.081,0,0,1,.59-2.687A4.638,4.638,0,0,1,2.453.487,3.9,3.9,0,0,1,5.209.1,6.9,6.9,0,0,1,7.62,1.2a.315.315,0,0,1,.087.437.38.38,0,0,1-.458.147A6.258,6.258,0,0,0,5.057.9a3.026,3.026,0,0,0-2.118.4A4.34,4.34,0,0,0,1.133,5.206,2.883,2.883,0,0,0,1.894,7.1a2.285,2.285,0,0,0,1.824.543,6.558,6.558,0,0,0,2.22-.621,7.212,7.212,0,0,0,.7-.332c.138-.072.276-.144.417-.211.15-.082.312-.175.475-.268.2-.116.407-.233.616-.344a.314.314,0,0,1,.4.093.381.381,0,0,1-.011.475c-.318.275-.649.539-.981.8L7.162,7.5a8.466,8.466,0,0,1-.749.473,7.131,7.131,0,0,1-2.565.917l-.11.01C3.611,8.916,3.48,8.929,3.343,8.929ZM1.708,7.764a2.189,2.189,0,0,0,.8.414l.116.031c.069.019.137.038.206.051l.315.025a2.276,2.276,0,0,0,.536-.008l.076-.008A2.99,2.99,0,0,1,1.708,7.764Z" fill="#181818" stroke="rgba(0,0,0,0)" stroke-width="1"/></g><g transform="translate(6.7 0.675)"><path d="M.035,0A7.817,7.817,0,0,1,2.181,2.5,10.943,10.943,0,0,1,3.3,5.644,11.226,11.226,0,0,1,3.489,8.98c-.062.554-.177,1.1-.291,1.643-.157.534-.324,1.062-.524,1.577l-.061-.016c.025-.556.088-1.1.152-1.635.012-.544.08-1.079.1-1.616A20.07,20.07,0,0,0,2.8,5.726a10.518,10.518,0,0,0-.9-3.078A7.643,7.643,0,0,0,0,.052Z" transform="translate(0.315 0.294)" fill="#181818" stroke="rgba(0,0,0,0)" stroke-width="1"/><path d="M2.989,12.808a.3.3,0,0,1-.077-.009l-.061-.015a.316.316,0,0,1-.238-.319c.026-.581.094-1.153.154-1.658,0-.258.026-.543.048-.828.019-.254.038-.507.046-.76L2.876,8.6A15.011,15.011,0,0,0,2.8,6.066a10.247,10.247,0,0,0-.869-2.987A7.33,7.33,0,0,0,.111.586.315.315,0,0,1,.056.166.392.392,0,0,1,.28.01.355.355,0,0,1,.535.039a8.136,8.136,0,0,1,2.234,2.6,11.283,11.283,0,0,1,1.15,3.234,11.548,11.548,0,0,1,.2,3.428c-.063.56-.177,1.107-.288,1.636,0,.008-.013.058-.014.066-.132.447-.311,1.032-.532,1.6A.315.315,0,0,1,2.989,12.808Zm.534-5.09c0,.3-.01.6-.018.9l-.014.617V9.24A10.655,10.655,0,0,0,3.523,7.719Z" fill="#181818" stroke="rgba(0,0,0,0)" stroke-width="1"/></g><g transform="translate(4.783 4.518)"><path d="M1.7.048A4.408,4.408,0,0,0,.524,3.884a7.591,7.591,0,0,0,.811,1.862c.169.3.368.585.54.9a9.407,9.407,0,0,1,.59.907l-.044.045a8.794,8.794,0,0,1-.884-.667A8.578,8.578,0,0,1,.8,6.082,4.8,4.8,0,0,1,.027,3.963a4.437,4.437,0,0,1,.32-2.216A4.788,4.788,0,0,1,1.66,0Z" transform="translate(0.314 0.314)" fill="#181818" stroke="rgba(0,0,0,0)" stroke-width="1"/><path d="M2.736,8.223a.316.316,0,0,1-.173-.052,9.343,9.343,0,0,1-.916-.692,8.807,8.807,0,0,1-.782-.9A5.121,5.121,0,0,1,.03,4.319a4.738,4.738,0,0,1,.342-2.38A5.131,5.131,0,0,1,1.773.073a.315.315,0,0,1,.442.037l.041.048a.316.316,0,0,1-.011.42,4.081,4.081,0,0,0-1.1,3.555A5.759,5.759,0,0,0,1.764,5.6l.166.315c.072.128.158.264.244.4.1.159.2.319.292.485a9,9,0,0,1,.588.9.316.316,0,0,1-.047.376l-.044.045A.315.315,0,0,1,2.736,8.223ZM.929,5.358a3.965,3.965,0,0,0,.447.86l0,0,0-.006L1.208,5.9C1.114,5.72,1.019,5.541.929,5.358Z" fill="#181818" stroke="rgba(0,0,0,0)" stroke-width="1"/></g><g transform="translate(9.827 0.674)"><path d="M.06,0q1.1,3.184,2.147,6.384c.355,1.065.745,2.119,1.028,3.205a29.659,29.659,0,0,1,.7,3.306l-.06.018A29.782,29.782,0,0,1,2.631,9.77c-.362-1.063-.617-2.158-.907-3.242Q.837,3.281,0,.018Z" transform="translate(0.315 0.299)" fill="#181818" stroke="rgba(0,0,0,0)" stroke-width="1"/><path d="M4.224,13.51a.354.354,0,0,1-.322-.164,30.392,30.392,0,0,1-1.253-3.175c-.277-.813-.494-1.653-.7-2.465q-.1-.4-.209-.8C1.143,4.742.562,2.549.01.394A.316.316,0,0,1,.224.015.378.378,0,0,1,.673.2C1.4,2.308,2.124,4.458,2.821,6.584c.086.257.174.515.262.773.272.8.554,1.618.771,2.451a30.3,30.3,0,0,1,.7,3.341.315.315,0,0,1-.221.345A.406.406,0,0,1,4.224,13.51ZM2.8,8.485c.135.5.279,1,.445,1.482v0C3.115,9.471,2.962,8.975,2.8,8.485Z" fill="#181818" stroke="rgba(0,0,0,0)" stroke-width="1"/></g><g transform="translate(11.379)"><path d="M.062,0a17.876,17.876,0,0,0,1.12,3.22A18.993,18.993,0,0,0,2.82,6.189,23.425,23.425,0,0,0,4.936,8.81c.724.864,1.568,1.6,2.395,2.412l-.035.052a10.917,10.917,0,0,1-2.816-2.03A11.574,11.574,0,0,1,3.338,7.923c-.323-.485-.663-.957-.943-1.465A18.491,18.491,0,0,1,0,.01Z" transform="translate(0.315 0.305)" fill="#181818" stroke="rgba(0,0,0,0)" stroke-width="1"/><path d="M7.576,11.884a.236.236,0,0,1-.11-.025,11.178,11.178,0,0,1-2.9-2.09,9.7,9.7,0,0,1-1-1.137l-.4-.553c-.253-.373-.515-.758-.74-1.166A18.675,18.675,0,0,1,0,.367.315.315,0,0,1,.059.132.318.318,0,0,1,.264,0,.381.381,0,0,1,.683.233,17.633,17.633,0,0,0,1.783,3.4,18.834,18.834,0,0,0,3.4,6.319,23.113,23.113,0,0,0,5.484,8.906a21.654,21.654,0,0,0,1.707,1.749c.224.213.449.428.674.648a.314.314,0,0,1,.041.4A.431.431,0,0,1,7.576,11.884ZM3.98,8.137l.086.106a9.146,9.146,0,0,0,.942,1.075l.013.013-.011-.014C4.649,8.915,4.305,8.527,3.98,8.137Z" fill="#181818" stroke="rgba(0,0,0,0)" stroke-width="1"/></g><g transform="translate(14.872 1.923)"><path d="M3.307,6.556A4.251,4.251,0,0,0,3.72,4.547a3.585,3.585,0,0,0-.6-1.88A7.273,7.273,0,0,0,1.692,1.283c-.272-.2-.549-.4-.824-.611A8.992,8.992,0,0,1,0,.059L.024,0a8.616,8.616,0,0,1,1.05.281,9.184,9.184,0,0,1,.981.488A4.612,4.612,0,0,1,3.548,2.407a4,4,0,0,1,.486,2.146A4.436,4.436,0,0,1,3.36,6.589Z" transform="translate(0.315 0.313)" fill="#181818" stroke="rgba(0,0,0,0)" stroke-width="1"/><path d="M3.675,7.216a.306.306,0,0,1-.164-.047.382.382,0,0,1-.174-.435A3.913,3.913,0,0,0,3.72,4.876a3.271,3.271,0,0,0-.55-1.722A4.494,4.494,0,0,0,2.2,2.169c-.135-.111-.269-.223-.4-.339l-.155-.112C1.426,1.561,1.207,1.4.99,1.235A8.772,8.772,0,0,1,.118.617.315.315,0,0,1,.024.251.388.388,0,0,1,.4,0,8.8,8.8,0,0,1,1.489.3,9.262,9.262,0,0,1,2.524.807,4.941,4.941,0,0,1,4.141,2.571a4.33,4.33,0,0,1,.522,2.314,4.767,4.767,0,0,1-.721,2.183A.314.314,0,0,1,3.675,7.216ZM2.193,1.342c.147.13.276.236.4.342.111.091.222.184.332.279a4.408,4.408,0,0,0-.735-.62Z" fill="#181818" stroke="rgba(0,0,0,0)" stroke-width="1"/></g><g transform="translate(24.759 25.88)"><path d="M4.112.059Q3.142.605,2.152,1.1a5.569,5.569,0,0,1-1,.479,3.447,3.447,0,0,1-1.13.159L0,1.683A3.436,3.436,0,0,1,.914,1,5.529,5.529,0,0,1,1.961.638Q3.014.295,4.088,0Z" transform="translate(0.314 0.314)" fill="#181818" stroke="rgba(0,0,0,0)" stroke-width="1"/><path d="M.467,2.373q-.071,0-.143,0a.314.314,0,0,1-.276-.194L.024,2.116a.313.313,0,0,1,.059-.332,3.746,3.746,0,0,1,.994-.746,3.468,3.468,0,0,1,.794-.3c.1-.029.205-.057.306-.091C2.882.423,3.6.207,4.319.011a.315.315,0,0,1,.374.184l.025.059a.316.316,0,0,1-.137.394c-.651.367-1.315.721-1.974,1.052-.094.047-.186.1-.279.15a3.455,3.455,0,0,1-.777.351A3.917,3.917,0,0,1,.467,2.373Zm1.341-.957a2.115,2.115,0,0,0-.424.172l-.019.01.018-.005A2.156,2.156,0,0,0,1.807,1.417Z" fill="#181818" stroke="rgba(0,0,0,0)" stroke-width="1"/></g><g transform="translate(29.697 21.047)"><path d="M.917,7.1a6.625,6.625,0,0,0,2.3.929,3.327,3.327,0,0,0,2.339-.443,4.688,4.688,0,0,0,1.95-4.189,3.2,3.2,0,0,0-.852-2.1A2.6,2.6,0,0,0,4.583.657a6.943,6.943,0,0,0-2.322.648c-.385.15-.744.366-1.122.546-.368.2-.725.419-1.1.617L0,2.417c.32-.277.652-.542.986-.809.357-.23.7-.49,1.078-.7A6.859,6.859,0,0,1,4.525.031,2.979,2.979,0,0,1,5.208.015l.346.028C5.669.064,5.782.1,5.9.13A2.716,2.716,0,0,1,7.1.856a3.752,3.752,0,0,1,.911,2.516,5.737,5.737,0,0,1-.56,2.551A4.309,4.309,0,0,1,5.72,7.852a3.581,3.581,0,0,1-2.533.359,6.766,6.766,0,0,1-2.3-1.062Z" transform="translate(0.294 0.315)" fill="#181818" stroke="rgba(0,0,0,0)" stroke-width="1"/><path d="M4.282,8.929a4,4,0,0,1-.87-.1A6.9,6.9,0,0,1,1,7.725a.313.313,0,0,1-.086-.437.378.378,0,0,1,.458-.147,6.254,6.254,0,0,0,2.192.889,3.034,3.034,0,0,0,2.119-.4A4.341,4.341,0,0,0,7.489,3.723,2.878,2.878,0,0,0,6.728,1.83,2.276,2.276,0,0,0,4.9,1.287a6.544,6.544,0,0,0-2.22.621,7.379,7.379,0,0,0-.7.332c-.138.071-.276.143-.417.21s-.31.174-.473.267c-.2.116-.408.234-.618.344a.314.314,0,0,1-.4-.092.381.381,0,0,1,.011-.475c.314-.272.639-.532.967-.794l.055-.042c.119-.077.237-.157.354-.237A8.571,8.571,0,0,1,2.209.951,7.146,7.146,0,0,1,4.773.035l.11-.01A2.735,2.735,0,0,1,5.546.018l.328.026a2.729,2.729,0,0,1,.291.068l.1.028A3.031,3.031,0,0,1,7.616.947a4.062,4.062,0,0,1,1,2.74,6.057,6.057,0,0,1-.59,2.687A4.63,4.63,0,0,1,6.169,8.441,3.82,3.82,0,0,1,4.282,8.929ZM5.187.644a2.887,2.887,0,0,1,1.731.524,2.2,2.2,0,0,0-.8-.418L6,.719C5.929.7,5.861.681,5.792.668L5.476.643a2.237,2.237,0,0,0-.535.008L4.862.659C4.972.649,5.08.644,5.187.644Z" fill="#181818" stroke="rgba(0,0,0,0)" stroke-width="1"/></g><g transform="translate(20.692 17.501)"><path d="M0,1.172Q.681.761,1.381.4A2.824,2.824,0,0,1,2.088.057a1.9,1.9,0,0,1,.833-.02L2.944.1a1.894,1.894,0,0,1-.628.548,2.819,2.819,0,0,1-.753.225q-.76.2-1.54.361Z" transform="translate(0.315 0.315)" fill="#181818" stroke="rgba(0,0,0,0)" stroke-width="1"/><path d="M.337,1.86a.315.315,0,0,1-.293-.2L.021,1.6a.314.314,0,0,1,.131-.383C.61.942,1.081.678,1.551.435c.065-.033.127-.07.189-.108a1.885,1.885,0,0,1,.6-.264A2.18,2.18,0,0,1,3.3.046.315.315,0,0,1,3.53.24L3.553.3a.313.313,0,0,1-.036.3,2.19,2.19,0,0,1-.726.637,1.883,1.883,0,0,1-.617.209c-.071.014-.142.03-.212.048-.51.138-1.036.261-1.561.367A.348.348,0,0,1,.337,1.86ZM2.494.675,2.469.68A.973.973,0,0,0,2.2.789a.934.934,0,0,0,.269-.1Z" fill="#181818" stroke="rgba(0,0,0,0)" stroke-width="1"/></g><g transform="translate(22.979 10.366)"><path d="M1.671,8.908a10.672,10.672,0,0,0,3.073.9,4.589,4.589,0,0,0,3.015-.646A4.445,4.445,0,0,0,9.467,6.642,6.162,6.162,0,0,0,9.48,3.558,4.061,4.061,0,0,0,7.869,1.086,3.134,3.134,0,0,0,5.051.9a8.768,8.768,0,0,0-2.669,1.6c-.423.323-.794.711-1.2,1.064L.049,4.707,0,4.667c.315-.44.644-.871.975-1.3.371-.4.714-.824,1.116-1.2A9.214,9.214,0,0,1,3.365,1.113c.113-.081.223-.165.34-.242l.369-.2A4.11,4.11,0,0,1,4.839.3a3.608,3.608,0,0,1,.83-.232L6.1,0l.444.008A3.186,3.186,0,0,1,7.42.166a2.779,2.779,0,0,1,.409.181,1.733,1.733,0,0,1,.385.222A4.61,4.61,0,0,1,9.97,3.441a6.614,6.614,0,0,1-.11,3.314A4.8,4.8,0,0,1,7.93,9.424a4.836,4.836,0,0,1-3.208.57A10.8,10.8,0,0,1,1.643,8.965Z" transform="translate(0.315 0.31)" fill="#181818" stroke="rgba(0,0,0,0)" stroke-width="1"/><path d="M5.865,10.676a6.527,6.527,0,0,1-.872-.06A11.144,11.144,0,0,1,1.827,9.561a.315.315,0,0,1-.152-.423.379.379,0,0,1,.431-.21A10.5,10.5,0,0,0,5.087,9.8,4.314,4.314,0,0,0,7.9,9.209a4.12,4.12,0,0,0,1.581-2.34,5.813,5.813,0,0,0,.011-2.926A3.744,3.744,0,0,0,8.012,1.661,2.819,2.819,0,0,0,5.472,1.5,8.367,8.367,0,0,0,2.9,3.047a9.918,9.918,0,0,0-.751.657c-.145.135-.29.271-.439.4L.587,5.238a.315.315,0,0,1-.42.025l-.049-.04a.314.314,0,0,1-.059-.429c.306-.427.626-.847.947-1.268.007-.008.047-.06.054-.067.125-.134.247-.272.37-.41.239-.269.486-.548.762-.8A9.386,9.386,0,0,1,3.5,1.162l.11-.079c.077-.056.154-.111.233-.164L4.315.66A3.913,3.913,0,0,1,5.06.313l.086-.03a3.371,3.371,0,0,1,.8-.213L6.363,0l.5,0A2.337,2.337,0,0,1,7.6.118c.068.018.135.036.2.052a1.6,1.6,0,0,1,.342.14c.04.02.08.041.121.059l.085.042a1.6,1.6,0,0,1,.382.233,4.893,4.893,0,0,1,1.856,3.046,6.923,6.923,0,0,1-.117,3.47A5.1,5.1,0,0,1,8.414,10,4.791,4.791,0,0,1,5.865,10.676ZM8.2,1.033l.077.047C8.248,1.063,8.222,1.048,8.2,1.033ZM5.255.911C5.2.928,5.15.947,5.1.968,5.151.948,5.2.929,5.255.911ZM6.41.625,6.035.692a2.911,2.911,0,0,0-.678.183L5.281.9a3.659,3.659,0,0,1,2.6-.025L7.864.87A1.073,1.073,0,0,0,7.658.782C7.59.766,7.516.746,7.441.726A1.937,1.937,0,0,0,6.876.632Z" fill="#181818" stroke="rgba(0,0,0,0)" stroke-width="1"/></g><g transform="translate(18.859 19.662)"><path d="M7.947,14.786q-2.5-3.4-4.739-6.992A33.863,33.863,0,0,1,1.124,4.1a19.559,19.559,0,0,1-.771-1.99A6.323,6.323,0,0,1,0,0L.064,0a9.638,9.638,0,0,0,.7,1.957c.282.633.6,1.254.926,1.869C2.337,5.059,2.967,6.31,3.642,7.539s1.4,2.432,2.129,3.632S7.236,13.569,8,14.75Z" transform="translate(0.315 0.313)" fill="#181818" stroke="rgba(0,0,0,0)" stroke-width="1"/><path d="M8.261,15.414a.315.315,0,0,1-.254-.128c-1.723-2.341-3.322-4.7-4.752-7.013L3.029,7.9A30.55,30.55,0,0,1,1.151,4.546L1.006,4.2A15.778,15.778,0,0,1,.365,2.515,6.623,6.623,0,0,1,0,.307.315.315,0,0,1,.307,0,.4.4,0,0,1,.685.24a9.32,9.32,0,0,0,.676,1.894c.245.549.537,1.137.92,1.857Q2.6,4.6,2.912,5.2c.433.835.867,1.671,1.32,2.5.6,1.071,1.272,2.222,2.122,3.62.735,1.225,1.483,2.426,2.222,3.572a.315.315,0,0,1-.085.43l-.052.036A.316.316,0,0,1,8.261,15.414ZM1.725,4.284l0,.01c.266.585.573,1.159.9,1.721l-.271-.523c-.21-.4-.418-.806-.629-1.208Z" fill="#181818" stroke="rgba(0,0,0,0)" stroke-width="1"/></g></g></g><g transform="translate(647.86 3041.314)"><path d="M-722.814,349.152l.434-124.434,60.46,61.514,15.219,15.5,15.2,15.579q15.175,15.624,30.254,31.3l1.276,1.326-1.836-.005-120.543-.313h-.468Zm.546-110.307,3.947.407-3.944.407.011,3.174,7.77.373,4.724-5.2-2.694-2.817-3.062,2.49,2.5-3.076-9.3-9.729Zm87.211,77.188-2.552,2.075,2.083-2.562-2.564-2.662-5.817,5.284,5.293-5.827-2.326-2.415-2.491,2.026,2.034-2.5-2.045-2.123-5.859,5.322,5.332-5.87-2.319-2.408-2.543,2.068,2.076-2.553-.563-.584-1.979-2.068-5.79,5.259,5.27-5.8-2.772-2.9-2.484,2.02,2.029-2.5-2.268-2.37-5.931,5.388,5.4-5.944-2.3-2.4-2.622,2.132,2.142-2.634-2.526-2.639-5.946,5.4,5.413-5.958-.55-.575-2.187-2.288-2.779,2.259,2.27-2.791-2.528-2.644-5.935,5.391,5.4-5.948-2.3-2.4-2.627,2.136,2.146-2.639-2.518-2.634-6.075,5.518,5.53-6.088-2.73-2.856-2.786,2.265,2.276-2.8-2.343-2.451-6.012,5.461,5.473-6.025-2.289-2.394-2.708,2.2,2.212-2.721-2.508-2.622-6.152,5.588,5.6-6.165-2.72-2.844-2.867,2.331,2.342-2.88-2.333-2.439-6.088,5.531,5.543-6.1-2.278-2.382-2.788,2.268,2.278-2.8-2.5-2.611-6.229,5.658,5.67-6.242-2.709-2.833-2.947,2.4,2.408-2.961-2.349-2.457-6.2,5.63,5.642-6.211-2.262-2.366-2.9,2.361,2.372-2.916-2.481-2.6-5.081,4.616.612.029-.681.033-1.188,1.079.971-1.069-7.692.369.011,3.276,3.919.4-3.916.4.012,3.538,8.563.411-8.56.411.014,3.9,3.887.4-3.885.4.013,3.6,8.531.409-8.528.409.012,3.252,3.857.4-3.855.4.01,2.852,8.5.408-8.5.408.011,3.256,3.831.395-3.828.394.013,3.584,8.474.407-8.472.406.014,3.914,3.8.392-3.8.391.011,3.2,8.444.405-8.441.405.012,3.265,3.77.389-3.768.388.013,3.593,8.415.4-8.412.4.014,3.923,3.738.385-3.736.385.013,3.623,8.383.4-8.38.4.011,3.275,3.709.382-3.706.382.013,3.6,8.353.4-8.35.4.013,3.933,3.677.379-3.674.379.012,3.371,8.322.4-8.319.4.011,3.284,3.648.376-3.646.376.013,3.612,8.292.4-8.29.4.014,3.942,3.617.372-3.614.372.012,3.38,8.261.4-8.259.4.012,3.293,3.588.37-3.585.37.013,3.62,8.232.4-8.229.4.007,1.987,118.238-.307q-3.718-3.811-7.426-7.623l-2.471,2.009,2.015-2.478q-1.2-1.231-2.4-2.462l-5.889,5.349,5.356-5.9q-1.164-1.2-2.33-2.392l-2.555,2.078,2.083-2.562q-1.28-1.317-2.557-2.636l-5.782,5.253,5.26-5.791q-1.4-1.44-2.795-2.881l-2.452,1.994,2-2.459-2.29-2.361-5.881,5.342,5.35-5.889q-1.163-1.2-2.326-2.4l-2.547,2.071,2.078-2.556q-1.276-1.317-2.554-2.634l-5.853,5.317,5.325-5.862-.1-.1Z" transform="translate(722.816 -224.719)" fill="#181818" stroke="#000" stroke-width="1"/><path d="M-590.11,406.513l-.469,0,0-.462c.041-7.514.142-15.025.231-22.48s.168-14.858.2-22.241l21.826,21.658c1.849,1.843,3.711,3.669,5.561,5.539l5.542,5.615q5.517,5.66,10.936,11.367l1.27,1.334-1.829-.013Zm32.015-10.879-5.276-5.545c-1.757-1.851-3.5-3.744-5.258-5.622l-10.6-11.391-10.847-11.595c.035,7.5.111,14.978.2,22.4.088,7.269.185,14.483.228,21.694l40.968-.3Q-553.423,400.468-558.1,395.634Z" transform="translate(612.505 -304.148)" fill="#181818" stroke="#000" stroke-width="1"/></g></g></svg>