<svg xmlns="http://www.w3.org/2000/svg" width="166.151" height="239.213" viewBox="0 0 166.151 239.213"><g transform="translate(39.091 -166.252)"><path d="M126.7,302.036l8.132-.4-2.988-1.9c3.636-.26,5.322-2.2,5.118-5.05-.261-3.642-3.708-1.811-5.721-2.8,1.323-1.3,3.262-.146,4.689-1.265-.5-1.7-2.394-.489-3.363-1.674l3.132-.771c-21.725-3.964-43.19-1.532-64.556-2.169-7.616-.227-15.209-1.4-22.867-.442,4.106.86,8.409-.218,13.724,1.165-5.574,1.773-10.233.558-14.657,1.839H78.557l.016,1.121H47.616q0,.668,0,1.333H66.234l.006,1.169H46.907c2.127,2.183,4.84,1.234,7.106,2.5-1.438.064-2.875.159-4.314.187-5.37.11-5.95-.413-6.069-5.391-.1-4.358,1.438-6.061,6.129-6.076,27.809-.088,55.617-.071,83.425-.147,4.023-.011,6.065,1.61,5.868,5.787-.124,2.64-.114,5.292-.032,7.935.125,4.036-1.592,6.066-5.79,5.82-2.164-.127-4.34-.022-6.511-.022Z" transform="translate(-21.68 -23.217)" fill="#181818"/><path d="M148.88,241.766c.975-3.951,1.648-8.006,2.981-11.832,3.629-10.41,7.505-20.734,11.359-31.063a12.333,12.333,0,0,1,4.2-6.091c3.9-2.766,7.575-1.394,8.645,3.279a13.209,13.209,0,0,1-.515,6.96q-7.675,24.633-15.4,49.248c-.438,1.388-.7,3.87-2.886,3-2.09-.829-.553-2.867-.134-4.242q7.2-23.626,14.54-47.207a14.308,14.308,0,0,0,.988-6.042c-.132-1.062-.417-2.056-1.553-2.447a2.24,2.24,0,0,0-2.7,1.011,29.947,29.947,0,0,0-2.656,5.038c-4.543,11.641-9,23.316-13.5,34.974-.731,1.895-1.525,3.766-2.29,5.647Z" transform="translate(-49.267 -6.581)" fill="#181818"/><path d="M153.645,330.319c.761,24.839,2.233,49.5,1.437,74.183-.412,12.806-10.21,21.834-23,21.914-6.607.041-13.215.007-19.846-.394,9.073-1.243,18.454.253,28.307-3.335-4.148-1.475-7.55-1.517-10.868-2.141,5.17-.738,10.469-.01,16.018-2.13-2.775-1.557-5.449-.376-8.164-1.611,2.919-1.952,5.863-.728,8.518-1.237,1.077-.206,2.73.163,2.755-1.445.021-1.35-1.539-1.1-2.463-1.256a60.253,60.253,0,0,1-6.941-1.32l11.087-1.465c-.457-2.271-2.885-.556-3.631-2.768,6.235.439,5.649-3.754,5.636-7.876-.054-16.762-.058-33.526.117-50.287C152.676,342.869,153.285,336.6,153.645,330.319Z" transform="translate(-39.663 -25.544)" fill="#181818"/><path d="M63.848,412.334l4.72-.674c-2.356,1.823-3.047,3.387-2.315,5.685a67.991,67.991,0,0,0,15.269,26.517c.761.806,1.505,2.167,2.845,1.524,1.065-.51.624-1.848.611-2.823-.128-9.261,1.725-18.78-3.683-27.424,3.842,3.971,6.373,8.367,6.508,13.939.121,4.985-.164,9.974.592,14.961a19.1,19.1,0,0,0,2.772,8.2A10.759,10.759,0,0,1,82.13,449.3a54.872,54.872,0,0,1-18.244-37Z" transform="translate(-26.98 -46.863)" fill="#181818"/><path d="M48.4,261.487c-7.295-15.691-11.766-31.444-18.693-46.131l-1.628.592c5.041,14.62,10.081,29.239,15.261,44.265-2.138-.573-2.208-1.913-2.579-2.939q-6.6-18.215-13.11-36.463a27.628,27.628,0,0,1-1.131-3.794c-.333-1.649-1.48-3.8.61-4.748,2.313-1.05,3.375,1.277,4.28,2.825a50.565,50.565,0,0,1,3.392,7.132c4.483,11.485,8.888,23,13.305,34.512A5.881,5.881,0,0,1,48.4,261.487Z" transform="translate(-17.036 -8.57)" fill="#181818"/><path d="M133.67,258.237c2.139-9.861,4.253-19.727,6.428-29.58,1.107-5.018,2.261-10.027,3.522-15.007.46-1.817,1.084-4.4,3.214-4.183,2.623.271,2.059,3.217,2.169,5.065a26.461,26.461,0,0,1-.745,6.542c-2.541,12.966-5.144,25.921-7.73,38.879-.139.7-.154,1.471-2.114,2.272l9.126-48.171-1.717-.373c-4.495,14.737-6.817,30.075-10.953,44.912Z" transform="translate(-45.28 -11.323)" fill="#181818"/><path d="M127.132,324.079c-8.67,1.973-49.781,2.159-63.97.29C70.144,322.389,113.453,322.193,127.132,324.079Z" transform="translate(-26.8 -31.809)" fill="#181818"/><path d="M115.752,308.566a301.285,301.285,0,0,1-55.3.212C66.766,306.61,103.6,306.345,115.752,308.566Z" transform="translate(-26.09 -28.608)" fill="#181818"/><path d="M56.466,396.868c-2.619-2.108-3.735-5.249-5.24-8.044-5.352-9.943-10.493-20-14.912-30.407-.986-2.324-1.829-4.536,2.762-5.638-2.727,2.169-1.626,3.774-.66,5.522a332.751,332.751,0,0,1,15.818,32.4c.846,2.02,1.468,4.134,2.194,6.2Z" transform="translate(-19.56 -35.361)" fill="#181818"/><path d="M86.805,347.831a227.816,227.816,0,0,1,46.523-.075A176.559,176.559,0,0,1,86.805,347.831Z" transform="translate(-32.997 -36.662)" fill="#181818"/><path d="M59.841,352.332a197.437,197.437,0,0,1,13.893,35.075A184.247,184.247,0,0,1,59.841,352.332Z" transform="translate(-25.93 -35.93)" fill="#181818"/><path d="M27.886,288.669c-17.462-38.65-35.562-77-53.784-115.3a15.667,15.667,0,0,0-3.59-4.942c-4.052-3.653-7.693-2.673-9.443,2.7l0,.01a2.967,2.967,0,0,0-.006,1.886l6.554,19.2.007-.024,26.553,61.872a.062.062,0,0,0,.084.031l.964-.483a.061.061,0,0,0,.03-.077q-9.633-24.6-19.275-49.192c-3.611-9.165-7.34-18.283-10.97-27.44-.866-2.184-2.172-5.148.394-6.348,2.6-1.215,3.9,1.181,5.005,3.268.294.557.759,1.476,1.031,2.045q4.419,9.247,8.834,18.5,22.247,46.584,45.508,92.672c.71,1.4,1.081,3.049,3.067,4.5C28.405,290.21,28.22,289.406,27.886,288.669Z" transform="translate(0 0)" fill="#181818"/></g></svg>