<svg xmlns="http://www.w3.org/2000/svg" width="155.286" height="178.854" viewBox="0 0 155.286 178.854">
  <g id="Grupo_103" data-name="Grupo 103" transform="translate(-889.525 -309.133)">
    <g id="Grupo_27" data-name="Grupo 27">
      <g id="Grupo_20" data-name="Grupo 20">
        <path id="Trazado_79" data-name="Trazado 79" d="M913.267,377.389a26,26,0,0,0-5.158,3.469,23.508,23.508,0,0,0-4.151,4.572,18.512,18.512,0,0,0-2.647,5.506,18.091,18.091,0,0,0-.64,6.036,22.071,22.071,0,0,0,1.233,5.958c.157.484.359.955.535,1.433.094.237.175.479.28.712l.319.7c.214.464.4.941.636,1.4l.7,1.372a11.33,11.33,0,0,0,1.622,2.5,13.125,13.125,0,0,0,1.023,1.1c.182.178.365.339.561.518s.4.381.588.588a5.061,5.061,0,0,1,1.417,3,4.5,4.5,0,0,1-1.059,3.029l-.111-.073a5.958,5.958,0,0,0,.542-1.426,3.638,3.638,0,0,0,.025-1.455,4.548,4.548,0,0,0-1.481-2.42q-.271-.249-.565-.47c-.2-.157-.423-.329-.628-.5a14.212,14.212,0,0,1-1.188-1.113,12.271,12.271,0,0,1-1.913-2.646,29.535,29.535,0,0,1-2.551-5.845,24.32,24.32,0,0,1-1.043-6.318,19.04,19.04,0,0,1,.876-6.333,19.3,19.3,0,0,1,2.933-5.642,24.029,24.029,0,0,1,4.439-4.493,26.255,26.255,0,0,1,5.357-3.282Z" fill="#181818"/>
        <path id="Trazado_80" data-name="Trazado 80" d="M908.521,419.507a.219.219,0,0,1-.122-.037l-.111-.074a.221.221,0,0,1-.077-.281,5.764,5.764,0,0,0,.525-1.372,3.4,3.4,0,0,0,.026-1.37,4.29,4.29,0,0,0-1.415-2.3q-.264-.242-.549-.456c-.207-.159-.43-.333-.637-.509a14.456,14.456,0,0,1-1.206-1.129,12.45,12.45,0,0,1-1.948-2.7,29.887,29.887,0,0,1-2.566-5.88,24.518,24.518,0,0,1-1.053-6.379,19.185,19.185,0,0,1,.887-6.406,19.492,19.492,0,0,1,2.966-5.706,23.99,23.99,0,0,1,4.48-4.535,26.574,26.574,0,0,1,5.4-3.311.221.221,0,0,1,.292.11l0,0,.054.122a.221.221,0,0,1-.1.287,25.865,25.865,0,0,0-5.113,3.44,23.363,23.363,0,0,0-4.111,4.528,18.3,18.3,0,0,0-2.617,5.441,17.817,17.817,0,0,0-.632,5.964,21.882,21.882,0,0,0,1.221,5.9c.1.312.219.612.336.913q.1.258.2.518c.032.081.065.168.1.255.056.149.111.3.177.443l.318.7c.077.166.15.335.224.5.128.293.26.6.408.883l.7,1.375a11.1,11.1,0,0,0,1.594,2.459,13.093,13.093,0,0,0,1.007,1.086c.141.137.28.263.426.4l.129.117c.23.211.427.408.6.6a5.3,5.3,0,0,1,1.474,3.137,4.715,4.715,0,0,1-1.108,3.183A.224.224,0,0,1,908.521,419.507Zm-1.32-38.134a22.726,22.726,0,0,0-3.606,3.8,19.051,19.051,0,0,0-2.9,5.576,18.74,18.74,0,0,0-.866,6.261,24.093,24.093,0,0,0,1.034,6.26,29.478,29.478,0,0,0,2.53,5.8,12.045,12.045,0,0,0,1.883,2.6,13.921,13.921,0,0,0,1.17,1.1c.2.171.419.341.62.495a7.535,7.535,0,0,1,.581.484,4.718,4.718,0,0,1,1.548,2.543,3.675,3.675,0,0,1,.04,1.137,3.769,3.769,0,0,0,.123-1.159A4.864,4.864,0,0,0,908,413.4q-.273-.3-.573-.574l-.128-.116c-.15-.137-.294-.266-.438-.407a13.257,13.257,0,0,1-1.039-1.121,11.47,11.47,0,0,1-1.651-2.548l-.692-1.367c-.154-.3-.29-.608-.42-.909-.072-.165-.144-.331-.22-.495l-.319-.7c-.07-.155-.129-.313-.188-.471-.032-.084-.063-.168-.1-.251-.065-.176-.131-.345-.2-.515-.118-.3-.24-.616-.343-.933a22.269,22.269,0,0,1-1.243-6.012,18.246,18.246,0,0,1,.648-6.111,18.738,18.738,0,0,1,2.677-5.571A22.949,22.949,0,0,1,907.2,381.373Z" fill="#181818"/>
      </g>
      <g id="Grupo_21" data-name="Grupo 21">
        <path id="Trazado_81" data-name="Trazado 81" d="M914.743,445.167a12.8,12.8,0,0,0,3.562-2,8.636,8.636,0,0,0,2.416-3.175,9.684,9.684,0,0,0,.8-3.885,14.7,14.7,0,0,0-.555-3.967,18.9,18.9,0,0,0-1.5-3.734,29.658,29.658,0,0,0-2.085-3.43,15.708,15.708,0,0,0-2.64-2.97,6.347,6.347,0,0,0-1.645-1.034,2.512,2.512,0,0,0-1.893-.062l-.067-.115a2.629,2.629,0,0,1,2.127-.408,6.144,6.144,0,0,1,2.026.859,13.162,13.162,0,0,1,3.156,2.929A19.209,19.209,0,0,1,922,431.882a15.64,15.64,0,0,1,.386,4.253,10.447,10.447,0,0,1-1.066,4.142,9.185,9.185,0,0,1-2.765,3.212,11.765,11.765,0,0,1-1.815,1.068,15.064,15.064,0,0,1-1.956.737Z" fill="#181818"/>
        <path id="Trazado_82" data-name="Trazado 82" d="M914.784,445.515a.221.221,0,0,1-.21-.151l-.043-.126a.221.221,0,0,1,.131-.278,12.582,12.582,0,0,0,3.5-1.967,8.45,8.45,0,0,0,2.353-3.092,9.389,9.389,0,0,0,.784-3.8,14.459,14.459,0,0,0-.547-3.907,18.719,18.719,0,0,0-1.48-3.69,29.445,29.445,0,0,0-2.07-3.4,15.349,15.349,0,0,0-2.6-2.928,6.056,6.056,0,0,0-1.585-1,2.263,2.263,0,0,0-1.727-.061.222.222,0,0,1-.274-.093l-.068-.115a.221.221,0,0,1,.051-.285,2.842,2.842,0,0,1,2.309-.454,6.342,6.342,0,0,1,2.1.89,13.188,13.188,0,0,1,3.209,2.976,19.331,19.331,0,0,1,3.6,7.8,15.9,15.9,0,0,1,.392,4.316,10.712,10.712,0,0,1-1.089,4.23,9.415,9.415,0,0,1-2.831,3.291,12.143,12.143,0,0,1-1.85,1.089,15.522,15.522,0,0,1-1.985.749A.208.208,0,0,1,914.784,445.515ZM912.4,420.556a3.29,3.29,0,0,1,.784.209,6.493,6.493,0,0,1,1.7,1.07,15.772,15.772,0,0,1,2.679,3.012,29.869,29.869,0,0,1,2.1,3.455,19.108,19.108,0,0,1,1.515,3.778,14.943,14.943,0,0,1,.563,4.027,9.84,9.84,0,0,1-.821,3.974,8.817,8.817,0,0,1-2.076,2.9,8.9,8.9,0,0,0,2.276-2.807,10.278,10.278,0,0,0,1.042-4.053,15.44,15.44,0,0,0-.381-4.193,18.874,18.874,0,0,0-3.51-7.616,12.771,12.771,0,0,0-3.1-2.88,5.915,5.915,0,0,0-1.953-.831,3.042,3.042,0,0,0-.819-.045Z" fill="#181818"/>
      </g>
      <g id="Grupo_22" data-name="Grupo 22">
        <path id="Trazado_83" data-name="Trazado 83" d="M914.6,448.933a6.628,6.628,0,0,1,1.833,1.289,4.854,4.854,0,0,1,1.2,1.9c.059.18.091.368.137.553.03.187.039.378.058.567a9.792,9.792,0,0,1-.071,1.123c-.071.735-.121,1.474-.157,2.212a57.2,57.2,0,0,0,.249,8.857,34.728,34.728,0,0,0,1.965,8.587,18.872,18.872,0,0,0,2.026,3.873,13.78,13.78,0,0,0,1.372,1.685l.783.774c.259.26.521.517.8.752a21.621,21.621,0,0,0,7.418,4.531,24.232,24.232,0,0,0,8.606,1.262,54.614,54.614,0,0,0,17.138-3.734,45.71,45.71,0,0,0,14.669-9.458,31,31,0,0,0,2.974-3.176,24.883,24.883,0,0,0,2.373-3.61,23.572,23.572,0,0,0-1.342-24.639,32.416,32.416,0,0,0-2.92-3.277l-.775-.809-.731-.853c-.241-.286-.491-.564-.725-.857l-.673-.9a12.7,12.7,0,0,1-2.082-4,4.4,4.4,0,0,1-.011-2.286,2.665,2.665,0,0,1,1.54-1.631l.044.125a2.467,2.467,0,0,0-1.323,1.585,4.1,4.1,0,0,0,.121,2.1,12.254,12.254,0,0,0,2.2,3.741l.689.855c.239.278.495.542.741.814l.745.81.792.769a33.385,33.385,0,0,1,3.108,3.252,21.123,21.123,0,0,1,3.932,8.145,26.5,26.5,0,0,1,.711,4.487,24.985,24.985,0,0,1-.069,4.56,24.451,24.451,0,0,1-2.751,8.669,24.843,24.843,0,0,1-2.533,3.8,32.267,32.267,0,0,1-3.127,3.287,46.913,46.913,0,0,1-15.187,9.491c-.7.264-1.4.525-2.121.749-.71.247-1.43.439-2.147.646s-1.43.428-2.157.6l-2.18.52a45.187,45.187,0,0,1-8.905,1.1,25.034,25.034,0,0,1-8.885-1.42,22.314,22.314,0,0,1-7.607-4.76c-.285-.245-.548-.511-.808-.781l-.787-.8a14.371,14.371,0,0,1-1.407-1.781,19.407,19.407,0,0,1-2.029-4.022,35.153,35.153,0,0,1-1.865-8.736,57.539,57.539,0,0,1-.118-8.913c.047-.742.108-1.482.191-2.222a9.5,9.5,0,0,0,.087-1.093c-.017-.18-.022-.361-.047-.539-.042-.175-.069-.355-.122-.527a5.561,5.561,0,0,0-2.9-3.125Z" fill="#181818"/>
        <path id="Trazado_84" data-name="Trazado 84" d="M940.478,487.985a25.019,25.019,0,0,1-8.594-1.423,22.506,22.506,0,0,1-7.681-4.805c-.3-.258-.578-.543-.817-.791l-.785-.8a14.587,14.587,0,0,1-1.434-1.815,19.655,19.655,0,0,1-2.052-4.065,35.242,35.242,0,0,1-1.88-8.788,57.993,57.993,0,0,1-.118-8.948c.052-.813.114-1.543.192-2.233a9.36,9.36,0,0,0,.086-1.071c-.005-.043-.01-.11-.015-.178-.008-.109-.015-.219-.031-.327-.012-.045-.025-.111-.039-.177-.022-.106-.044-.212-.076-.315a5.322,5.322,0,0,0-2.784-2.993.22.22,0,0,1-.1-.287l.053-.122a.22.22,0,0,1,.29-.115l.01,0a6.824,6.824,0,0,1,1.9,1.333,5.027,5.027,0,0,1,1.254,1.987c.04.124.069.252.1.38.014.062.028.125.044.187.024.148.035.278.047.408l.017.19a9.767,9.767,0,0,1-.071,1.172c-.066.677-.117,1.4-.156,2.2a57.122,57.122,0,0,0,.248,8.822,34.327,34.327,0,0,0,1.952,8.532,18.729,18.729,0,0,0,2,3.826,13.524,13.524,0,0,0,1.352,1.659l.777.768c.285.288.528.523.788.74a21.388,21.388,0,0,0,7.346,4.492,23.969,23.969,0,0,0,8.53,1.251,54.073,54.073,0,0,0,17.066-3.72,45.8,45.8,0,0,0,14.593-9.41,30.772,30.772,0,0,0,2.952-3.153,24.866,24.866,0,0,0,2.352-3.576,23.35,23.35,0,0,0-1.325-24.4,25.743,25.743,0,0,0-2.394-2.728l-1.283-1.338-1-1.161c-.161-.186-.321-.372-.474-.564l-.677-.91a12.7,12.7,0,0,1-2.118-4.077,4.638,4.638,0,0,1-.008-2.411,2.89,2.89,0,0,1,1.671-1.77.228.228,0,0,1,.172.006.223.223,0,0,1,.116.127l.045.125a.223.223,0,0,1-.117.276,2.25,2.25,0,0,0-1.2,1.44,3.937,3.937,0,0,0,.121,1.989,12.088,12.088,0,0,0,2.157,3.66l.687.853c.149.172.309.345.469.517.088.1.177.19.264.286l.744.808,1.3,1.267a26.848,26.848,0,0,1,2.606,2.769,21.412,21.412,0,0,1,3.973,8.227,26.722,26.722,0,0,1,.717,4.524,25.242,25.242,0,0,1-.07,4.6,24.5,24.5,0,0,1-2.776,8.749,25.1,25.1,0,0,1-2.555,3.833,32.6,32.6,0,0,1-3.148,3.31,47.48,47.48,0,0,1-15.26,9.537c-.717.269-1.418.529-2.134.753-.563.2-1.146.361-1.709.521l-.443.126c-.256.07-.508.143-.76.217-.458.134-.932.272-1.409.383l-2.179.519a44.85,44.85,0,0,1-8.954,1.1Zm-22.415-19.567a31.179,31.179,0,0,0,1.466,5.713,19.275,19.275,0,0,0,2.005,3.975,14.234,14.234,0,0,0,1.388,1.755l.781.8c.233.242.5.519.794.769a22.081,22.081,0,0,0,7.536,4.719,24.721,24.721,0,0,0,8.8,1.4,44.371,44.371,0,0,0,8.861-1.091l2.175-.518c.466-.108.934-.245,1.386-.377.255-.074.509-.148.764-.218l.441-.125c.557-.159,1.134-.322,1.692-.516.711-.222,1.406-.48,2.116-.747a46.992,46.992,0,0,0,15.114-9.446,32.078,32.078,0,0,0,3.1-3.263,24.7,24.7,0,0,0,2.511-3.764,24.056,24.056,0,0,0,2.725-8.59,24.811,24.811,0,0,0,.068-4.519,26.242,26.242,0,0,0-.7-4.449,20.99,20.99,0,0,0-3.89-8.06,26.559,26.559,0,0,0-2.567-2.725l-1.314-1.277-1.016-1.1c-.164-.176-.328-.353-.485-.535l-.693-.86a15.369,15.369,0,0,1-1.812-2.758,15.368,15.368,0,0,0,1.681,2.856l.669.9c.145.182.3.363.459.545l.988,1.154,1.274,1.328a26.169,26.169,0,0,1,2.433,2.773,23.8,23.8,0,0,1,1.357,24.875,25.25,25.25,0,0,1-2.394,3.64,31.239,31.239,0,0,1-2.994,3.2,46.244,46.244,0,0,1-14.741,9.5,54.5,54.5,0,0,1-17.213,3.75,24.382,24.382,0,0,1-8.686-1.275,21.794,21.794,0,0,1-7.492-4.575c-.267-.223-.518-.466-.811-.761l-.781-.772a14.137,14.137,0,0,1-1.4-1.717,19.117,19.117,0,0,1-2.049-3.916,31.12,31.12,0,0,1-1.546-5.7Z" fill="#181818"/>
      </g>
      <g id="Grupo_23" data-name="Grupo 23">
        <path id="Trazado_166" data-name="Trazado 166" d="M966.222,426.458a19.6,19.6,0,0,1-2.022.389,11.051,11.051,0,0,1-2,.067,7.953,7.953,0,0,1-3.658-1.12,10.8,10.8,0,0,1-2.872-2.571,14.529,14.529,0,0,1-2.033-3.429,20.7,20.7,0,0,1-1.505-5.85c-.262-.035-.516-.081-.767-.129a21.519,21.519,0,0,0,1.286,6.374,16.8,16.8,0,0,0,1.972,3.83,11.364,11.364,0,0,0,1.452,1.654,8.759,8.759,0,0,0,1.823,1.285,8.341,8.341,0,0,0,2.106.754,8.076,8.076,0,0,0,2.2.139,9.379,9.379,0,0,0,2.124-.41,11.11,11.11,0,0,0,1.939-.859Z" fill="#181818"/>
        <path id="Trazado_167" data-name="Trazado 167" d="M966.475,426.489l-.05-.124a.224.224,0,0,0-.256-.133,19.774,19.774,0,0,1-2,.386,11.037,11.037,0,0,1-1.957.066,7.771,7.771,0,0,1-3.558-1.088,10.539,10.539,0,0,1-2.815-2.521,14.286,14.286,0,0,1-2-3.375,20.528,20.528,0,0,1-1.479-5.749c-.07,0-.142.005-.211,0s-.162-.029-.244-.041a20.96,20.96,0,0,0,1.528,5.974,14.712,14.712,0,0,0,2.062,3.478,10.926,10.926,0,0,0,2.931,2.623,8.2,8.2,0,0,0,3.76,1.152,11.287,11.287,0,0,0,2.038-.068c.271-.034.541-.078.808-.128q-.376.159-.768.289a9.184,9.184,0,0,1-2.076.4,7.82,7.82,0,0,1-2.143-.135,8.1,8.1,0,0,1-2.047-.733,8.535,8.535,0,0,1-1.776-1.251,11.037,11.037,0,0,1-1.421-1.618,16.625,16.625,0,0,1-1.944-3.779,21.185,21.185,0,0,1-1.274-6.258c-.147-.026-.3-.049-.442-.08a21.636,21.636,0,0,0,1.3,6.49,17.1,17.1,0,0,0,2,3.883,11.544,11.544,0,0,0,1.482,1.687,9.056,9.056,0,0,0,1.871,1.319,8.172,8.172,0,0,0,3.826.941,5.851,5.851,0,0,0,.6-.03,9.632,9.632,0,0,0,2.179-.421,11.309,11.309,0,0,0,1.979-.876A.223.223,0,0,0,966.475,426.489Z" fill="#181818"/>
      </g>
      <g id="Grupo_24" data-name="Grupo 24">
        <path id="Trazado_168" data-name="Trazado 168" d="M928.913,372.81c.06-.06.114-.128.175-.186.026-.04.062-.075.089-.114a26.256,26.256,0,0,0-3.139.64l.045.125A26.084,26.084,0,0,1,928.913,372.81Z" fill="#181818"/>
        <path id="Trazado_169" data-name="Trazado 169" d="M926.128,373.5a25.684,25.684,0,0,1,2.54-.426c.141-.148.273-.307.42-.448.08-.124.186-.234.276-.352a26.71,26.71,0,0,0-3.382.668h0a.221.221,0,0,0-.152.274l.037.128A.223.223,0,0,0,926.128,373.5Z" fill="#181818"/>
      </g>
      <g id="Grupo_25" data-name="Grupo 25">
        <path id="Trazado_89" data-name="Trazado 89" d="M924.076,445.628a5.069,5.069,0,0,0,1.152,1.792,1.781,1.781,0,0,0,1.838.5,3.994,3.994,0,0,0,1.642-1.224,4.148,4.148,0,0,0,.971-1.776,6.263,6.263,0,0,0-.732-4c-.6-1.294-1.358-2.543-2.073-3.832A23.182,23.182,0,0,1,924.98,433a9.929,9.929,0,0,1-.423-2.312,6.85,6.85,0,0,1,.3-2.38,7.334,7.334,0,0,1,.45-1.112c.083-.181.2-.345.293-.517a3.727,3.727,0,0,1,.342-.523,2.779,2.779,0,0,1,2.365-1.076,1.977,1.977,0,0,1,1.252.549,2.467,2.467,0,0,1,.612,1.108A5.975,5.975,0,0,1,930.24,429h-.133a7.269,7.269,0,0,0-.507-2.062,1.792,1.792,0,0,0-.558-.722,1.163,1.163,0,0,0-.76-.206,1.808,1.808,0,0,0-1.4.84,4.166,4.166,0,0,0-.222.417c-.071.152-.161.3-.218.454a6.212,6.212,0,0,0-.308.945,7.89,7.89,0,0,0,.106,3.967,15.971,15.971,0,0,0,.669,2c.276.658.58,1.311.9,1.962.646,1.3,1.352,2.6,1.924,3.984a10.564,10.564,0,0,1,.664,2.179,5.132,5.132,0,0,1-.083,2.335,4.762,4.762,0,0,1-1.221,1.97,4.441,4.441,0,0,1-1.922,1.25,1.986,1.986,0,0,1-1.189-.042,2.431,2.431,0,0,1-.96-.654,5.275,5.275,0,0,1-1.078-1.95Z" fill="#181818"/>
        <path id="Trazado_90" data-name="Trazado 90" d="M926.645,448.609a2.13,2.13,0,0,1-.733-.127,2.623,2.623,0,0,1-1.045-.71,5.465,5.465,0,0,1-1.129-2.034.221.221,0,0,1,.142-.28l.126-.041a.222.222,0,0,1,.274.128,4.81,4.81,0,0,0,1.1,1.715,1.562,1.562,0,0,0,1.609.452,3.711,3.711,0,0,0,1.55-1.159,3.877,3.877,0,0,0,.921-1.678,6.108,6.108,0,0,0-.717-3.854c-.442-.948-.956-1.854-1.5-2.814-.189-.333-.379-.667-.566-1a23.437,23.437,0,0,1-1.91-4.131,10.136,10.136,0,0,1-.434-2.368,7.022,7.022,0,0,1,.312-2.456,7.63,7.63,0,0,1,.462-1.143,3.437,3.437,0,0,1,.2-.361c.035-.056.069-.113.1-.17l.069-.117a2.912,2.912,0,0,1,.3-.439,2.987,2.987,0,0,1,2.557-1.155,2.191,2.191,0,0,1,1.388.615,2.673,2.673,0,0,1,.667,1.2,6.134,6.134,0,0,1,.075,2.361.223.223,0,0,1-.22.191h-.135a.221.221,0,0,1-.218-.193,7.109,7.109,0,0,0-.489-2,1.579,1.579,0,0,0-.48-.631.932.932,0,0,0-.62-.169,1.59,1.59,0,0,0-1.226.738,2.713,2.713,0,0,0-.162.3l-.049.1c-.024.052-.054.11-.084.167a2.162,2.162,0,0,0-.124.263l-.022.059a5.473,5.473,0,0,0-.277.855,7.675,7.675,0,0,0,.1,3.866,15.921,15.921,0,0,0,.659,1.97c.249.592.541,1.23.894,1.947.169.341.343.682.517,1.025.486.954.988,1.941,1.413,2.972a10.685,10.685,0,0,1,.677,2.225,5.308,5.308,0,0,1-.089,2.436,4.917,4.917,0,0,1-1.276,2.063,4.633,4.633,0,0,1-2.022,1.309A2.224,2.224,0,0,1,926.645,448.609Zm1.45-23.316a2.582,2.582,0,0,0-1.977,1,2.643,2.643,0,0,0-.256.384l-.069.116c-.031.055-.068.116-.1.177a2.961,2.961,0,0,0-.176.317,7.432,7.432,0,0,0-.439,1.081,6.612,6.612,0,0,0-.295,2.3,9.714,9.714,0,0,0,.414,2.262,23.12,23.12,0,0,0,1.875,4.049c.186.336.375.669.563,1,.525.925,1.067,1.881,1.517,2.846a6.488,6.488,0,0,1,.747,4.141,4.305,4.305,0,0,1-1.019,1.87,5.093,5.093,0,0,1-1.219,1.053,5.093,5.093,0,0,0,1.287-.988,4.479,4.479,0,0,0,1.165-1.874,4.875,4.875,0,0,0,.078-2.234,10.187,10.187,0,0,0-.651-2.133c-.419-1.015-.917-1.993-1.4-2.94q-.262-.516-.52-1.031c-.357-.726-.653-1.371-.906-1.974a16.4,16.4,0,0,1-.679-2.027,8.1,8.1,0,0,1-.106-4.078,5.848,5.848,0,0,1,.294-.913l.021-.055a2.608,2.608,0,0,1,.146-.313c.027-.051.054-.1.078-.155l.051-.1a3.035,3.035,0,0,1,.188-.345,2.038,2.038,0,0,1,1.568-.937,1.386,1.386,0,0,1,.9.244,1.979,1.979,0,0,1,.632.81,5.076,5.076,0,0,1,.285.812,4.936,4.936,0,0,0-.129-.871,2.193,2.193,0,0,0-.552-1,1.741,1.741,0,0,0-1.11-.486c-.071-.005-.138-.008-.206-.008Z" fill="#181818"/>
      </g>
      <g id="Grupo_26" data-name="Grupo 26">
        <path id="Trazado_91" data-name="Trazado 91" d="M960.637,433.532a5.305,5.305,0,0,1,.275,2.211,2.455,2.455,0,0,1-.392,1.094,1.994,1.994,0,0,1-.937.734,4.427,4.427,0,0,1-2.289.12,4.743,4.743,0,0,1-2.147-.874,5.107,5.107,0,0,1-1.441-1.839,10.424,10.424,0,0,1-.745-2.152c-.354-1.459-.545-2.921-.788-4.353-.124-.715-.263-1.422-.426-2.116a16.266,16.266,0,0,0-.635-2.009,7.907,7.907,0,0,0-2.248-3.27,6.346,6.346,0,0,0-.8-.583c-.138-.093-.3-.157-.443-.239a4.49,4.49,0,0,0-.425-.206,1.807,1.807,0,0,0-1.624.143,1.152,1.152,0,0,0-.493.614,1.775,1.775,0,0,0-.026.912,7.171,7.171,0,0,0,.8,1.965l-.107.079a5.939,5.939,0,0,1-1.279-1.876,2.446,2.446,0,0,1-.157-1.255,1.967,1.967,0,0,1,.689-1.181,2.783,2.783,0,0,1,2.546-.522,3.962,3.962,0,0,1,.584.221c.18.082.368.148.541.246a7.6,7.6,0,0,1,1.019.634,6.887,6.887,0,0,1,1.646,1.746,9.976,9.976,0,0,1,1.018,2.118,23.4,23.4,0,0,1,.877,4.424c.18,1.463.3,2.917.579,4.318a6.244,6.244,0,0,0,1.759,3.661,4.134,4.134,0,0,0,1.83.865,3.994,3.994,0,0,0,2.048.023,1.781,1.781,0,0,0,1.192-1.486,5.109,5.109,0,0,0-.123-2.127Z" fill="#181818"/>
        <path id="Trazado_92" data-name="Trazado 92" d="M958.336,438.006a6.922,6.922,0,0,1-1.076-.1,4.908,4.908,0,0,1-2.249-.919,5.281,5.281,0,0,1-1.5-1.916,10.515,10.515,0,0,1-.761-2.2c-.263-1.085-.438-2.18-.607-3.238q-.09-.567-.184-1.129c-.137-.787-.276-1.475-.423-2.1a16.349,16.349,0,0,0-.625-1.979,7.689,7.689,0,0,0-2.183-3.179,5.773,5.773,0,0,0-.741-.539l-.044-.029a2.412,2.412,0,0,0-.259-.142c-.057-.028-.114-.057-.17-.087l-.1-.05a3.052,3.052,0,0,0-.3-.143,1.594,1.594,0,0,0-1.428.121.938.938,0,0,0-.4.5,1.562,1.562,0,0,0-.017.8,7.037,7.037,0,0,0,.78,1.9.222.222,0,0,1-.063.285l-.107.079a.22.22,0,0,1-.291-.024,6.091,6.091,0,0,1-1.325-1.945,2.652,2.652,0,0,1-.171-1.376,2.183,2.183,0,0,1,.766-1.315,2.985,2.985,0,0,1,2.746-.565,3.205,3.205,0,0,1,.491.179l.119.051c.067.03.127.056.188.081a3.9,3.9,0,0,1,.377.177,7.75,7.75,0,0,1,1.046.653,7.05,7.05,0,0,1,1.7,1.8,10.22,10.22,0,0,1,1.041,2.164,23.632,23.632,0,0,1,.887,4.47c.047.382.09.763.133,1.143.125,1.1.242,2.132.443,3.159a6.092,6.092,0,0,0,1.685,3.535,3.886,3.886,0,0,0,1.736.817,3.7,3.7,0,0,0,1.929.029,1.557,1.557,0,0,0,1.041-1.31,4.8,4.8,0,0,0-.12-2.037.222.222,0,0,1,.148-.265l.127-.041a.221.221,0,0,1,.279.142,5.5,5.5,0,0,1,.285,2.3,2.655,2.655,0,0,1-.431,1.2,2.206,2.206,0,0,1-1.04.813A3.671,3.671,0,0,1,958.336,438.006ZM946.516,419.7a2.089,2.089,0,0,1,.757.143,3.231,3.231,0,0,1,.347.165l.1.051c.057.031.109.057.161.082a2.846,2.846,0,0,1,.306.169l.042.027a6.163,6.163,0,0,1,.788.576,8.1,8.1,0,0,1,2.3,3.352,16.718,16.718,0,0,1,.643,2.037c.151.639.291,1.335.43,2.132q.1.566.185,1.135c.168,1.05.341,2.136.6,3.2a10.057,10.057,0,0,0,.729,2.108,4.84,4.84,0,0,0,1.376,1.76,4.476,4.476,0,0,0,2.048.831,5.113,5.113,0,0,0,1.619.042,5.1,5.1,0,0,1-1.6-.135,4.3,4.3,0,0,1-1.929-.914,6.483,6.483,0,0,1-1.831-3.785c-.2-1.046-.329-2.138-.448-3.2-.043-.379-.086-.758-.133-1.139a23.284,23.284,0,0,0-.868-4.382,9.778,9.778,0,0,0-.993-2.066,6.625,6.625,0,0,0-1.594-1.69,7.452,7.452,0,0,0-.991-.617,3.238,3.238,0,0,0-.333-.155c-.065-.027-.129-.054-.193-.083l-.119-.051a2.732,2.732,0,0,0-.427-.157,2.544,2.544,0,0,0-2.344.474,1.741,1.741,0,0,0-.616,1.047,2.191,2.191,0,0,0,.146,1.146,4.686,4.686,0,0,0,.4.774,4.9,4.9,0,0,1-.247-.822,1.976,1.976,0,0,1,.035-1.032,1.381,1.381,0,0,1,.584-.725,1.982,1.982,0,0,1,1.065-.3Z" fill="#181818"/>
      </g>
    </g>
    <g id="Grupo_28" data-name="Grupo 28">
      <path id="Trazado_93" data-name="Trazado 93" d="M941.631,452.152l-4.771-14.365-4.722-14.381L922.7,394.644l-9.336-28.8-4.666-14.4-4.617-14.415,4.772,14.365,4.722,14.381,9.441,28.762,9.335,28.8,4.666,14.4Z" fill="#181818"/>
      <path id="Trazado_94" data-name="Trazado 94" d="M941.631,452.374a.222.222,0,0,1-.211-.152l-4.771-14.365-14.164-43.144-14-43.2L903.868,337.1a.222.222,0,0,1,.422-.137l4.771,14.364,14.163,43.144,14,43.2,4.617,14.416a.223.223,0,0,1-.142.278A.2.2,0,0,1,941.631,452.374Z" fill="#181818"/>
    </g>
    <g id="Grupo_29" data-name="Grupo 29">
      <path id="Trazado_170" data-name="Trazado 170" d="M923.934,390.326l-8.616-25.083-4.912-14.3-4.961-14.278L910.252,351l4.857,14.314,9.317,27.452A21.08,21.08,0,0,1,923.934,390.326Z" fill="#181818"/>
      <path id="Trazado_171" data-name="Trazado 171" d="M934.855,422.459l-6.9-20.327a4.952,4.952,0,0,1-.365-.8,5.388,5.388,0,0,1-.839-1.866l-.064-.1,7.959,23.168,4.912,14.295,4.961,14.279-4.807-14.332Z" fill="#181818"/>
      <path id="Trazado_172" data-name="Trazado 172" d="M925.139,394.971a20.476,20.476,0,0,1-1.339-5.713l-13.185-38.381L905.654,336.6a.223.223,0,0,0-.271-.133.221.221,0,0,0-.149.276l4.808,14.332,14.574,42.94.627,1.825C925.2,395.557,925.164,395.269,925.139,394.971Z" fill="#181818"/>
      <path id="Trazado_173" data-name="Trazado 173" d="M928.437,402.865a5.094,5.094,0,0,1-.847-1.534,5.388,5.388,0,0,1-.839-1.866c-.228-.357-.458-.739-.6-.989l13.2,38.423,4.961,14.278a.221.221,0,0,0,.209.149.2.2,0,0,0,.073-.01.222.222,0,0,0,.138-.281L939.922,436.7Z" fill="#181818"/>
    </g>
    <g id="Grupo_30" data-name="Grupo 30">
      <path id="Trazado_174" data-name="Trazado 174" d="M924.014,383.146l-6.621-18.532-5.036-14.089-5.085-14.072,4.932,14.126,4.981,14.109,6.744,19.1C923.958,383.573,923.979,383.358,924.014,383.146Z" fill="#181818"/>
      <path id="Trazado_175" data-name="Trazado 175" d="M937.427,421.015l-4.864-13.772c-.169-.181-.332-.365-.487-.552l5.143,14.393,5.036,14.089,5.085,14.072-4.932-14.121Z" fill="#181818"/>
      <path id="Trazado_176" data-name="Trazado 176" d="M924.095,382.721l-11.529-32.275-5.085-14.072a.222.222,0,0,0-.418.149l4.932,14.127,11.871,33.618Q923.954,383.489,924.095,382.721Z" fill="#181818"/>
      <path id="Trazado_177" data-name="Trazado 177" d="M932.926,407.613a12.19,12.19,0,0,1-1.282-1.473l10.4,29.109,5.084,14.072a.222.222,0,0,0,.209.146.232.232,0,0,0,.074-.009.223.223,0,0,0,.135-.282l-4.938-14.133Z" fill="#181818"/>
    </g>
    <g id="Grupo_31" data-name="Grupo 31">
      <path id="Trazado_178" data-name="Trazado 178" d="M924.987,379.323l-5.733-15.414-5.219-14.026-5.268-14.008,5.115,14.064,5.164,14.046,5.8,15.76C924.888,379.6,924.938,379.463,924.987,379.323Z" fill="#181818"/>
      <path id="Trazado_179" data-name="Trazado 179" d="M940.017,420.052l-3.6-9.8c-.118-.069-.234-.141-.351-.212l3.755,10.086,5.214,14.029,5.268,14.008L945.181,434.1Z" fill="#181818"/>
      <path id="Trazado_180" data-name="Trazado 180" d="M925.1,379,914.237,349.8,908.969,335.8a.222.222,0,0,0-.416.154l5.116,14.065,11.058,30.063C924.84,379.713,924.968,379.354,925.1,379Z" fill="#181818"/>
      <path id="Trazado_181" data-name="Trazado 181" d="M936.713,410.421c-.325-.183-.648-.373-.964-.575l9.07,24.386,5.268,14.008a.221.221,0,0,0,.208.144l.008,0a.233.233,0,0,0,.078-.014.222.222,0,0,0,.129-.286L945.4,434.022Z" fill="#181818"/>
    </g>
    <g id="Grupo_39" data-name="Grupo 39">
      <g id="Grupo_37" data-name="Grupo 37">
        <g id="Grupo_32" data-name="Grupo 32">
          <path id="Trazado_101" data-name="Trazado 101" d="M927.768,417.857l-.787-.44h0A4.469,4.469,0,0,1,925.6,415.2l-.7-2.519-1.418-5.034-2.863-10.061q-2.867-10.059-5.814-20.1l-6.031-20.025-1.5-5.006-1.552-4.99-.8-2.485c-.267-.829-.531-1.66-.829-2.477l-.855-2.468-.982-2.418.079-.04,1.14,2.363,1,2.424c.338.807.631,1.629.933,2.448l.9,2.458c.588,1.643,1.131,3.3,1.7,4.954l1.622,4.977c2.111,6.652,3.99,13.372,5.878,20.087s3.735,13.441,5.561,20.172l2.7,10.108,1.333,5.058.662,2.53a4.346,4.346,0,0,0,1.311,2.177l-.008-.006.78.453Z" fill="#181818"/>
          <path id="Trazado_102" data-name="Trazado 102" d="M927.768,418.079a.215.215,0,0,1-.108-.028l-.787-.44a.232.232,0,0,1-.04-.027,4.719,4.719,0,0,1-1.459-2.332l-2.121-7.55-2.863-10.061c-2.236-7.85-4.084-14.234-5.813-20.093l-7.535-25.03-1.552-4.988-.852-2.638c-.245-.763-.5-1.552-.776-2.313l-.856-2.472-.979-2.407a.222.222,0,0,1,.1-.281l.079-.04a.225.225,0,0,1,.171-.012.223.223,0,0,1,.129.114l1.14,2.363,1,2.436c.291.694.553,1.41.807,2.1l1.034,2.811c.405,1.131.794,2.285,1.17,3.4q.262.78.527,1.557l1.623,4.98c2.019,6.361,3.853,12.888,5.628,19.2l.252.9c1.7,6.042,3.518,12.642,5.561,20.174l4.693,17.7a4.135,4.135,0,0,0,1.224,2.05l.754.439a.223.223,0,0,1,.082.3l-.044.077A.222.222,0,0,1,927.768,418.079ZM904.6,343.341c.16.474.313.95.463,1.416l.852,2.64,1.553,4.992L915,377.422c1.731,5.861,3.578,12.247,5.815,20.1l.14.493-.132-.5c-2.042-7.531-3.861-14.128-5.56-20.169l-.252-.9c-1.773-6.308-3.607-12.831-5.623-19.184l-1.622-4.975q-.266-.774-.527-1.556c-.375-1.114-.764-2.266-1.167-3.391l-1.033-2.81C904.9,344.141,904.749,343.74,904.6,343.341Z" fill="#181818"/>
        </g>
        <g id="Grupo_33" data-name="Grupo 33">
          <path id="Trazado_182" data-name="Trazado 182" d="M925.93,377.053q.2-.4.41-.786l-1.05-2.627c-2.573-6.5-5.089-13.022-7.706-19.5l-3.916-9.721c-.641-1.624-1.305-3.24-1.928-4.871l-.956-2.439-.9-2.46-.085.026c.929,3.378,2.136,6.663,3.294,9.963,1.185,3.29,2.432,6.556,3.67,9.825,2.508,6.526,5.2,12.979,7.862,19.441Z" fill="#181818"/>
          <path id="Trazado_183" data-name="Trazado 183" d="M926.062,376.8l-1.235-2.978-1.005-2.437c-2.292-5.555-4.663-11.3-6.854-17l-.47-1.239c-1.066-2.808-2.166-5.711-3.2-8.582l-.519-1.472q-.43-1.217-.862-2.455c.281.719.568,1.433.858,2.152q.344.855.684,1.716l3.916,9.721c1.684,4.165,3.353,8.419,4.967,12.533q1.362,3.483,2.739,6.961l1.123,2.808c.091-.171.174-.349.27-.516l-.982-2.457q-1.374-3.477-2.739-6.959c-1.614-4.114-3.283-8.369-4.967-12.537l-3.916-9.719-.684-1.717c-.42-1.049-.844-2.1-1.244-3.154l-.954-2.434-.9-2.46a.221.221,0,0,0-.272-.137l-.085.026a.22.22,0,0,0-.149.271c.792,2.883,1.8,5.742,2.779,8.506l.52,1.473c1.034,2.876,2.135,5.781,3.2,8.59l.47,1.239c2.194,5.71,4.566,11.454,6.859,17.01l2.386,5.756C925.878,377.135,925.974,376.97,926.062,376.8Z" fill="#181818"/>
        </g>
        <g id="Grupo_36" data-name="Grupo 36">
          <g id="Grupo_34" data-name="Grupo 34">
            <path id="Trazado_105" data-name="Trazado 105" d="M967.433,476.829a2.422,2.422,0,0,0-.932-1.291,3.319,3.319,0,0,0-1.519-.523,8.141,8.141,0,0,0-3.216.513c-.26.089-.512.2-.768.3s-.511.2-.758.325l-1.5.717a8.274,8.274,0,0,1-3.271.866,5.564,5.564,0,0,1-3.287-.927,7.629,7.629,0,0,1-2.314-2.517,10.145,10.145,0,0,0-4.564-4.434,15.967,15.967,0,0,0-4.615-1.487c-.265-.051-.536-.058-.8-.089a6.325,6.325,0,0,0-.8-.063,16.64,16.64,0,0,0-6.337,1.053l-.76.29a5.739,5.739,0,0,0-.749.317l-1.464.724c-.929.572-1.879,1.117-2.754,1.782a44.8,44.8,0,0,0-5.034,4.294l-.066-.059q.543-.63,1.1-1.255c.375-.411.723-.851,1.135-1.227a30.283,30.283,0,0,1,2.491-2.244,25.57,25.57,0,0,1,2.747-1.953l1.49-.806a6.316,6.316,0,0,1,.768-.36l.784-.332a13.682,13.682,0,0,1,1.618-.535,12.789,12.789,0,0,1,1.666-.378,15.717,15.717,0,0,1,3.412-.187c.285.006.567.06.851.088a7.31,7.31,0,0,1,.847.117,16.387,16.387,0,0,1,1.661.4,16.02,16.02,0,0,1,3.145,1.285,10.328,10.328,0,0,1,2.758,2.015,11.759,11.759,0,0,1,1.977,2.759,7.1,7.1,0,0,0,2.1,2.384,5.079,5.079,0,0,0,2.994.907,7.872,7.872,0,0,0,3.133-.746c.5-.212,1.014-.451,1.521-.677.251-.122.517-.213.779-.31s.523-.2.79-.283a8.353,8.353,0,0,1,3.32-.436,3.482,3.482,0,0,1,1.576.591,2.533,2.533,0,0,1,.941,1.381Z" fill="#181818"/>
            <path id="Trazado_106" data-name="Trazado 106" d="M955.313,477.959a5.749,5.749,0,0,1-3.257-.968,7.8,7.8,0,0,1-2.379-2.586,9.9,9.9,0,0,0-4.467-4.347,14.9,14.9,0,0,0-2.991-1.137,8.849,8.849,0,0,0-1.088-.244c-.163-.029-.325-.058-.486-.091a4.723,4.723,0,0,0-.487-.058c-.1-.008-.2-.017-.3-.029s-.188-.016-.287-.027a4.481,4.481,0,0,0-.49-.035,16.349,16.349,0,0,0-6.262,1.039l-.83.316a4.889,4.889,0,0,0-.649.278l-1.472.728-.523.32a25.575,25.575,0,0,0-2.2,1.44,42.5,42.5,0,0,0-4.763,4.042l-.253.237a.222.222,0,0,1-.3,0l-.066-.059a.22.22,0,0,1-.02-.309q.543-.633,1.1-1.258c.116-.126.227-.255.338-.382a10.488,10.488,0,0,1,.812-.862l.345-.332a25.292,25.292,0,0,1,2.161-1.925,17.855,17.855,0,0,1,2.093-1.522c.222-.145.444-.29.663-.439l1.509-.817a5.936,5.936,0,0,1,.725-.343l.847-.358a8.3,8.3,0,0,1,1.172-.4c.155-.044.311-.09.465-.138a9.2,9.2,0,0,1,1.312-.312l.377-.072a15.633,15.633,0,0,1,3.464-.191,5.546,5.546,0,0,1,.574.054c.1.013.193.026.29.035s.205.026.3.037c.19.018.38.046.568.083.162.037.323.07.483.1a9.981,9.981,0,0,1,1.2.3,15.988,15.988,0,0,1,3.176,1.3,10.539,10.539,0,0,1,2.815,2.058,11.912,11.912,0,0,1,2.014,2.809,6.819,6.819,0,0,0,2.031,2.3,4.829,4.829,0,0,0,2.868.868,7.649,7.649,0,0,0,3.044-.728c.337-.144.681-.3,1.024-.454l.5-.223a7.213,7.213,0,0,1,.67-.27l.122-.045c.093-.033.183-.067.273-.1.175-.065.349-.13.527-.186a8.694,8.694,0,0,1,3.41-.445,3.673,3.673,0,0,1,1.686.634,2.754,2.754,0,0,1,1.023,1.505.228.228,0,0,1-.028.173.224.224,0,0,1-.144.1l-.087.018a.219.219,0,0,1-.257-.158,2.21,2.21,0,0,0-.847-1.17,3.086,3.086,0,0,0-1.418-.483,7.853,7.853,0,0,0-3.118.5c-.162.056-.323.121-.483.186-.092.037-.184.075-.276.11l-.122.048a6.319,6.319,0,0,0-.614.266l-1.507.72a8.394,8.394,0,0,1-3.36.888Zm-16.2-9.964a4.847,4.847,0,0,1,.51.037c.094.01.188.02.282.027s.2.02.294.028c.179.013.358.034.536.065.161.033.319.061.478.09a9.131,9.131,0,0,1,1.13.254,15.224,15.224,0,0,1,3.063,1.163,10.335,10.335,0,0,1,4.661,4.528,7.355,7.355,0,0,0,2.241,2.437,5.329,5.329,0,0,0,3.16.891h-.021a5.334,5.334,0,0,1-3.1-.949,7.257,7.257,0,0,1-2.164-2.454,11.489,11.489,0,0,0-1.942-2.713,10.107,10.107,0,0,0-2.7-1.973,15.657,15.657,0,0,0-3.1-1.269,9.5,9.5,0,0,0-1.16-.29l-.49-.1a5.157,5.157,0,0,0-.521-.075c-.1-.012-.206-.023-.308-.038s-.194-.023-.3-.036a4.958,4.958,0,0,0-.529-.05,15.25,15.25,0,0,0-3.368.184c-.123.025-.251.048-.378.072a8.682,8.682,0,0,0-1.255.3c-.163.051-.321.1-.48.143a7.83,7.83,0,0,0-1.117.383l-.855.362a5.436,5.436,0,0,0-.677.32l-1.5.81c-.2.138-.427.285-.65.431a17.622,17.622,0,0,0-2.055,1.493,22.947,22.947,0,0,0-1.976,1.749c.669-.567,1.359-1.109,2.077-1.605a25.429,25.429,0,0,1,2.225-1.46l.539-.329,1.482-.734a5.286,5.286,0,0,1,.7-.3l.83-.315A16.836,16.836,0,0,1,939.1,468Z" fill="#181818"/>
          </g>
          <g id="Grupo_35" data-name="Grupo 35">
            <path id="Trazado_107" data-name="Trazado 107" d="M958.982,474.641a3.556,3.556,0,0,1-.736-.572c-.108-.11-.222-.217-.325-.331l-.3-.357a7.8,7.8,0,0,1-.544-.749,7.647,7.647,0,0,1-.481-.789,17.583,17.583,0,0,1-.828-1.653c-.251-.563-.45-1.147-.678-1.72a45.4,45.4,0,0,1-1.739-7.171q-.561-3.648-.789-7.337c-.055-1.228-.161-2.456-.176-3.685l-.07-3.689.051.172a1.194,1.194,0,0,0-.376-.309,1.221,1.221,0,0,0-.49-.138,4.568,4.568,0,0,0-1.167.2c-.824.209-1.648.447-2.466.7-1.635.507-3.25,1.077-4.832,1.717a28.077,28.077,0,0,0-4.543,2.269l-.134.083a.224.224,0,0,0-.036.024l-.032.028a.675.675,0,0,0-.216.529,1.311,1.311,0,0,0,.109.461l.053.12c.018.036.033.047.046.074.051.063.107.137.176.212.55.6,1.177,1.216,1.778,1.827a57.091,57.091,0,0,1,6.716,7.91,28.878,28.878,0,0,1,2.537,4.545,15.856,15.856,0,0,1,1.313,5.014l-.088.01a17.033,17.033,0,0,0-.627-2.485,22.329,22.329,0,0,0-1-2.353,29.194,29.194,0,0,0-2.7-4.337,65.089,65.089,0,0,0-6.8-7.662c-.607-.615-1.226-1.19-1.824-1.869a3.644,3.644,0,0,1-.232-.29,2.1,2.1,0,0,1-.119-.2l-.075-.176a2.215,2.215,0,0,1-.168-.791,1.578,1.578,0,0,1,.519-1.2c.027-.026.06-.051.091-.076a.987.987,0,0,1,.1-.066l.141-.086a28.187,28.187,0,0,1,4.72-2.254c1.62-.621,3.264-1.161,4.924-1.648.831-.242,1.664-.47,2.511-.671.21-.052.427-.1.643-.142a2.623,2.623,0,0,1,.729-.06,1.833,1.833,0,0,1,1.335.744l.051.069v.1l.015,3.672c0,1.225.082,2.446.119,3.669.112,2.445.342,4.882.66,7.308a45.175,45.175,0,0,0,1.583,7.153c.214.571.4,1.155.638,1.717a17.334,17.334,0,0,0,.787,1.652,7.5,7.5,0,0,0,.46.79,7.749,7.749,0,0,0,.521.749l.284.358c.1.114.209.22.314.331a3.516,3.516,0,0,0,.7.569Z" fill="#181818"/>
            <path id="Trazado_108" data-name="Trazado 108" d="M958.982,474.862a.215.215,0,0,1-.111-.03,3.739,3.739,0,0,1-.781-.607l-.115-.115c-.074-.074-.149-.147-.219-.224l-.3-.365a4.677,4.677,0,0,1-.4-.54c-.05-.074-.1-.148-.151-.221a6.457,6.457,0,0,1-.423-.682l-.071-.126a12.116,12.116,0,0,1-.649-1.269c-.062-.133-.123-.266-.186-.4-.168-.375-.312-.757-.451-1.127-.076-.2-.153-.4-.233-.607a46.317,46.317,0,0,1-1.752-7.214c-.38-2.475-.646-4.951-.792-7.362-.02-.438-.046-.873-.072-1.308-.047-.782-.095-1.59-.1-2.388l-.066-3.483a.944.944,0,0,0-.2-.145,1.02,1.02,0,0,0-.407-.116,3,3,0,0,0-.841.136l-.262.063c-.732.186-1.534.413-2.45.694-1.667.518-3.287,1.093-4.814,1.711a27.549,27.549,0,0,0-4.507,2.25l-.136.085a.442.442,0,0,0-.18.388,1.082,1.082,0,0,0,.093.384l.05.113c.007.009.036.051.042.062.038.042.085.1.141.164.393.428.834.873,1.261,1.3l.513.519a57.057,57.057,0,0,1,6.74,7.939,29.225,29.225,0,0,1,2.557,4.582,16.056,16.056,0,0,1,1.331,5.086.221.221,0,0,1-.2.237l-.088.01a.221.221,0,0,1-.243-.183,16.713,16.713,0,0,0-.619-2.453,21.8,21.8,0,0,0-.988-2.325,28.63,28.63,0,0,0-2.674-4.3,65.117,65.117,0,0,0-6.781-7.638c-.177-.178-.353-.353-.529-.527-.43-.425-.874-.864-1.3-1.352-.079-.089-.159-.191-.243-.3l-.031-.047a1.618,1.618,0,0,1-.112-.193l-.078-.182a2.4,2.4,0,0,1-.185-.877,1.8,1.8,0,0,1,.593-1.365c.031-.028.067-.058.105-.087a1.351,1.351,0,0,1,.125-.083l.133-.081a27.917,27.917,0,0,1,4.755-2.272c1.532-.587,3.148-1.128,4.941-1.653.949-.276,1.75-.49,2.522-.674.2-.049.405-.092.611-.135a2.878,2.878,0,0,1,.833-.071,2.055,2.055,0,0,1,1.493.834l.051.07a.232.232,0,0,1,.043.129l.015,3.775c0,.787.033,1.586.067,2.359.019.435.039.869.052,1.3.106,2.333.322,4.718.658,7.286a45.525,45.525,0,0,0,1.574,7.112c.074.2.147.4.22.608.128.362.261.736.411,1.092.059.129.118.263.177.4a11.619,11.619,0,0,0,.6,1.228l.074.137a5.818,5.818,0,0,0,.376.637c.054.079.1.157.153.234a4.154,4.154,0,0,0,.355.5l.29.365c.055.062.12.129.185.2l.116.121a3.273,3.273,0,0,0,.653.531.223.223,0,0,1,.086.285l-.038.08a.223.223,0,0,1-.134.116A.213.213,0,0,1,958.982,474.862ZM951.4,445.889a2.939,2.939,0,0,0-.53.064c-.232.049-.433.09-.629.139-.767.183-1.561.4-2.5.669-1.781.521-3.386,1.058-4.906,1.642a27.468,27.468,0,0,0-4.682,2.236l-.143.086a.854.854,0,0,0-.077.051c-.027.021-.054.043-.077.064a1.349,1.349,0,0,0-.249.3,1.4,1.4,0,0,0-.2.731,1.964,1.964,0,0,0,.153.714l.072.168a1.253,1.253,0,0,0,.082.136,3.319,3.319,0,0,0,.231.3c.42.477.859.911,1.283,1.33.178.176.356.351.533.53a65.617,65.617,0,0,1,6.824,7.688,29.062,29.062,0,0,1,2.7,4.351,28.766,28.766,0,0,0-2.509-4.49,56.69,56.69,0,0,0-6.689-7.878l-.512-.518c-.43-.433-.874-.881-1.273-1.316-.064-.07-.119-.139-.167-.2a.48.48,0,0,1-.041-.059.353.353,0,0,1-.049-.078l-.057-.128a1.5,1.5,0,0,1-.128-.548.9.9,0,0,1,.286-.695l.039-.033a.641.641,0,0,1,.063-.044l.134-.083a27.971,27.971,0,0,1,4.577-2.286c1.539-.623,3.17-1.2,4.85-1.723.923-.284,1.733-.513,2.477-.7l.259-.063a3.369,3.369,0,0,1,.978-.148,1.455,1.455,0,0,1,.576.163,1.279,1.279,0,0,1,.186.115h0a.223.223,0,0,1,.247.156l.051.172a.223.223,0,0,1-.035.2l.064,3.379c.009.789.057,1.592.1,2.368.026.437.052.875.072,1.312.084,1.389.208,2.8.372,4.221-.141-1.446-.243-2.846-.306-4.23-.013-.436-.033-.869-.052-1.3-.035-.778-.071-1.583-.068-2.378l-.023-3.712a1.6,1.6,0,0,0-1.177-.654.408.408,0,0,0-.131-.021Z" fill="#181818"/>
          </g>
        </g>
      </g>
      <g id="Grupo_38" data-name="Grupo 38">
        <path id="Trazado_109" data-name="Trazado 109" d="M933.581,437.321c1.088-.246,2.171-.5,3.238-.808q1.605-.437,3.168-1c1.043-.368,2.036-.851,3.074-1.215s2.068-.758,3.16-1.078l.043.078a12.665,12.665,0,0,1-2.861,1.818,18.349,18.349,0,0,1-3.2,1.074c-1.086.3-2.181.543-3.282.751-1.1.192-2.211.357-3.323.463Z" fill="#181818"/>
        <path id="Trazado_110" data-name="Trazado 110" d="M933.595,437.63a.219.219,0,0,1-.219-.187l-.014-.087a.221.221,0,0,1,.17-.251c1.034-.234,2.14-.493,3.226-.8s2.151-.63,3.155-.991c.512-.181,1.022-.394,1.515-.6s1.031-.43,1.56-.616l.549-.2c.844-.3,1.717-.619,2.623-.884a.223.223,0,0,1,.257.1l.043.078a.223.223,0,0,1-.048.274,12.712,12.712,0,0,1-2.91,1.85,16.435,16.435,0,0,1-2.9.993l-.345.1c-1.059.288-2.169.542-3.3.755-1.271.222-2.332.37-3.344.466Zm11.78-3.909c-.575.19-1.137.393-1.688.592l-.551.2c-.518.182-1.036.4-1.537.607s-1.015.423-1.537.608c-1.013.364-2.085.7-3.184,1h0c1.117-.211,2.215-.462,3.262-.746l.344-.1a16.076,16.076,0,0,0,2.821-.964,13.974,13.974,0,0,0,2.07-1.2Z" fill="#181818"/>
      </g>
    </g>
    <g id="Grupo_55" data-name="Grupo 55">
      <g id="Grupo_40" data-name="Grupo 40">
        <path id="Trazado_111" data-name="Trazado 111" d="M902,335.217q-.219-1.469-.484-2.931c-.171-.975-.353-1.947-.56-2.913s-.461-1.92-.691-2.873c-.112-.478-.233-.954-.378-1.42a6.9,6.9,0,0,0-.543-1.363l.034-.028a4.493,4.493,0,0,1,.795,1.281,13.848,13.848,0,0,1,.516,1.412,24.066,24.066,0,0,1,.612,2.923c.329,1.96.57,3.93.74,5.9Z" fill="#181818"/>
        <path id="Trazado_112" data-name="Trazado 112" d="M902.038,335.434a.259.259,0,0,1-.261-.184c-.142-.957-.3-1.941-.483-2.923-.2-1.132-.376-2.055-.559-2.906-.143-.647-.3-1.291-.461-1.934q-.115-.468-.229-.934c-.134-.571-.249-1-.374-1.406a6.681,6.681,0,0,0-.523-1.324.22.22,0,0,1,.055-.275.268.268,0,0,1,.338-.007,4.7,4.7,0,0,1,.835,1.344,11.394,11.394,0,0,1,.442,1.185l.081.244a21.554,21.554,0,0,1,.569,2.66l.05.3c.318,1.893.568,3.885.742,5.923a.223.223,0,0,1-.2.239Zm-1.561-8.987h0c.074.31.151.62.228.931.033.133.066.266.1.4-.09-.448-.194-.9-.326-1.33Z" fill="#181818"/>
      </g>
      <g id="Grupo_41" data-name="Grupo 41">
        <path id="Trazado_113" data-name="Trazado 113" d="M895.955,328.273q.684-.384,1.381-.736a3.922,3.922,0,0,1,.7-.337,2.457,2.457,0,0,1,.8-.112l.017.041a2.442,2.442,0,0,1-.644.481,3.943,3.943,0,0,1-.737.255q-.742.243-1.5.45Z" fill="#181818"/>
        <path id="Trazado_114" data-name="Trazado 114" d="M895.976,328.537a.222.222,0,0,1-.2-.137l-.017-.041a.221.221,0,0,1,.1-.277c.459-.259.926-.508,1.39-.741.067-.033.132-.07.2-.106a2.475,2.475,0,0,1,.547-.247,2.665,2.665,0,0,1,.865-.119.225.225,0,0,1,.194.137l.017.041a.225.225,0,0,1-.041.234,2.645,2.645,0,0,1-.7.525,2.444,2.444,0,0,1-.559.208c-.072.02-.145.04-.216.064-.5.162-1,.314-1.509.452A.216.216,0,0,1,895.976,328.537Zm2.14-1.127H898.1a1.52,1.52,0,0,0-.3.125,1.5,1.5,0,0,0,.3-.121Z" fill="#181818"/>
      </g>
      <g id="Grupo_42" data-name="Grupo 42">
        <path id="Trazado_115" data-name="Trazado 115" d="M894.74,326.718a4.686,4.686,0,0,0-1.623-.655,2.348,2.348,0,0,0-1.647.312,3.3,3.3,0,0,0-1.374,2.952,2.252,2.252,0,0,0,.6,1.479,1.825,1.825,0,0,0,1.461.448,4.894,4.894,0,0,0,1.636-.456c.272-.106.525-.258.791-.385s.511-.295.776-.435l.026.036c-.225.2-.459.382-.694.57-.252.162-.493.346-.76.49a4.827,4.827,0,0,1-1.734.622,2.04,2.04,0,0,1-.481.012l-.244-.02c-.081-.015-.161-.04-.241-.061a1.9,1.9,0,0,1-.849-.511,2.638,2.638,0,0,1-.642-1.773,4.033,4.033,0,0,1,.394-1.8,3.031,3.031,0,0,1,1.221-1.36,2.523,2.523,0,0,1,1.784-.252,4.776,4.776,0,0,1,1.625.75Z" fill="#181818"/>
        <path id="Trazado_116" data-name="Trazado 116" d="M891.874,331.939a1.179,1.179,0,0,1-.188-.012l-.231-.019a1.66,1.66,0,0,1-.2-.048l-.073-.02a2.141,2.141,0,0,1-.949-.568,2.854,2.854,0,0,1-.708-1.931,4.26,4.26,0,0,1,.415-1.893,3.258,3.258,0,0,1,1.312-1.458,2.751,2.751,0,0,1,1.942-.276,4.889,4.889,0,0,1,1.7.78.223.223,0,0,1,.061.308h0a.268.268,0,0,1-.322.1,4.423,4.423,0,0,0-1.545-.626,2.135,2.135,0,0,0-1.493.281,3.056,3.056,0,0,0-1.272,2.754,2.019,2.019,0,0,0,.536,1.333,1.608,1.608,0,0,0,1.285.383,4.618,4.618,0,0,0,1.564-.438,5.111,5.111,0,0,0,.491-.233c.1-.051.2-.1.3-.149s.218-.122.332-.188c.144-.082.288-.165.436-.243a.223.223,0,0,1,.282.064l.026.035a.223.223,0,0,1-.033.3c-.221.191-.451.375-.681.559l-.039.03c-.084.054-.166.11-.249.166-.17.12-.345.23-.525.332a5.035,5.035,0,0,1-1.807.646l-.078.008A1.773,1.773,0,0,1,891.874,331.939Zm-1.157-.824a1.532,1.532,0,0,0,.568.3l.082.022c.048.014.1.027.145.036l.222.017a1.524,1.524,0,0,0,.376-.005l.068-.006h0a2.117,2.117,0,0,1-1.457-.363Z" fill="#181818"/>
      </g>
      <g id="Grupo_43" data-name="Grupo 43">
        <path id="Trazado_117" data-name="Trazado 117" d="M897.341,335.1q.683-.384,1.381-.737a3.925,3.925,0,0,1,.7-.337,2.406,2.406,0,0,1,.8-.112l.017.041a2.442,2.442,0,0,1-.644.481,3.941,3.941,0,0,1-.737.255q-.742.243-1.5.449Z" fill="#181818"/>
        <path id="Trazado_118" data-name="Trazado 118" d="M897.357,335.36a.221.221,0,0,1-.205-.137l-.017-.041a.22.22,0,0,1,.1-.278c.458-.258.925-.507,1.39-.741.067-.033.133-.07.2-.106a2.464,2.464,0,0,1,.546-.247,2.693,2.693,0,0,1,.865-.12.223.223,0,0,1,.2.138l.017.041a.225.225,0,0,1-.042.233,2.66,2.66,0,0,1-.7.525,2.452,2.452,0,0,1-.56.208c-.072.02-.144.04-.215.063-.5.162-1.005.314-1.509.453A.243.243,0,0,1,897.357,335.36Zm2.14-1.127h-.012a1.521,1.521,0,0,0-.3.125,1.5,1.5,0,0,0,.3-.121Z" fill="#181818"/>
      </g>
      <g id="Grupo_44" data-name="Grupo 44">
        <path id="Trazado_119" data-name="Trazado 119" d="M896.126,333.542a4.713,4.713,0,0,0-1.623-.655,2.345,2.345,0,0,0-1.648.313,3.3,3.3,0,0,0-1.374,2.952,2.252,2.252,0,0,0,.6,1.479,1.824,1.824,0,0,0,1.462.447,4.872,4.872,0,0,0,1.636-.456c.271-.106.524-.258.791-.384s.511-.3.776-.435l.026.036c-.226.2-.459.382-.694.57-.252.162-.493.345-.76.49a4.826,4.826,0,0,1-1.734.622,2.037,2.037,0,0,1-.481.012l-.244-.02c-.081-.015-.161-.041-.241-.061a1.91,1.91,0,0,1-.849-.512,2.64,2.64,0,0,1-.642-1.772,4.019,4.019,0,0,1,.394-1.8,3.026,3.026,0,0,1,1.221-1.36,2.523,2.523,0,0,1,1.784-.253,4.778,4.778,0,0,1,1.624.749Z" fill="#181818"/>
        <path id="Trazado_120" data-name="Trazado 120" d="M893.26,338.764a1.309,1.309,0,0,1-.188-.013l-.231-.019a1.663,1.663,0,0,1-.2-.047l-.073-.02a2.122,2.122,0,0,1-.949-.568,2.857,2.857,0,0,1-.709-1.93,4.275,4.275,0,0,1,.416-1.893,3.271,3.271,0,0,1,1.309-1.457,2.746,2.746,0,0,1,1.942-.276,4.889,4.889,0,0,1,1.7.78.223.223,0,0,1,.061.308h0a.268.268,0,0,1-.322.1,4.423,4.423,0,0,0-1.545-.626,2.134,2.134,0,0,0-1.493.28,3.056,3.056,0,0,0-1.272,2.754,2.027,2.027,0,0,0,.536,1.334,1.608,1.608,0,0,0,1.285.383,4.618,4.618,0,0,0,1.564-.438,5.034,5.034,0,0,0,.492-.234c.1-.051.2-.1.294-.149s.22-.123.334-.189c.143-.082.286-.164.434-.242a.221.221,0,0,1,.282.065.27.27,0,0,1-.008.335c-.224.194-.457.38-.691.567l-.275.187a6.068,6.068,0,0,1-.528.333,5.015,5.015,0,0,1-1.807.646l-.077.007A1.848,1.848,0,0,1,893.26,338.764Zm-1.152-.82a1.521,1.521,0,0,0,.564.292l.082.022c.048.013.1.027.145.036l.222.017a1.585,1.585,0,0,0,.377-.005l.053-.005A2.1,2.1,0,0,1,892.108,337.944Z" fill="#181818"/>
      </g>
      <g id="Grupo_45" data-name="Grupo 45">
        <path id="Trazado_121" data-name="Trazado 121" d="M894.487,309.812A5.519,5.519,0,0,1,896,311.576a7.736,7.736,0,0,1,.785,2.212,7.925,7.925,0,0,1,.136,2.35c-.044.39-.125.776-.2,1.157-.11.376-.228.749-.369,1.111l-.043-.011c.017-.392.062-.773.107-1.152.008-.384.056-.76.067-1.138a14.331,14.331,0,0,0-.044-2.26,7.433,7.433,0,0,0-.632-2.168,5.4,5.4,0,0,0-1.34-1.83Z" fill="#181818"/>
        <path id="Trazado_122" data-name="Trazado 122" d="M896.349,318.63a.191.191,0,0,1-.054-.007l-.043-.011a.22.22,0,0,1-.168-.225c.019-.409.067-.812.109-1.168,0-.182.018-.383.034-.583.013-.179.027-.357.032-.536l.01-.436a10.643,10.643,0,0,0-.052-1.785,7.261,7.261,0,0,0-.612-2.1,5.185,5.185,0,0,0-1.284-1.756.221.221,0,0,1-.039-.3.276.276,0,0,1,.157-.11.25.25,0,0,1,.18.02,5.752,5.752,0,0,1,1.574,1.835,8,8,0,0,1,.81,2.278,8.161,8.161,0,0,1,.139,2.415c-.044.395-.125.78-.2,1.152,0,.006-.009.041-.01.047-.093.315-.219.727-.375,1.129A.222.222,0,0,1,896.349,318.63Zm.376-3.586c0,.213-.007.424-.013.633l-.01.435h0a7.628,7.628,0,0,0,.02-1.069Z" fill="#181818"/>
      </g>
      <g id="Grupo_46" data-name="Grupo 46">
        <path id="Trazado_123" data-name="Trazado 123" d="M894.309,312.569a3.1,3.1,0,0,0-.829,2.7,5.32,5.32,0,0,0,.572,1.312c.119.211.259.412.38.631a6.715,6.715,0,0,1,.415.639l-.031.032a3.693,3.693,0,0,1-1.14-1.07,3.373,3.373,0,0,1-.547-1.493,3.114,3.114,0,0,1,.226-1.561,3.365,3.365,0,0,1,.925-1.231Z" fill="#181818"/>
        <path id="Trazado_124" data-name="Trazado 124" d="M894.816,318.107a.218.218,0,0,1-.122-.036,6.4,6.4,0,0,1-.646-.487,6.017,6.017,0,0,1-.551-.631,3.6,3.6,0,0,1-.588-1.6,3.322,3.322,0,0,1,.241-1.677,3.605,3.605,0,0,1,.987-1.314.222.222,0,0,1,.311.026l.029.034a.223.223,0,0,1-.008.3,2.871,2.871,0,0,0-.774,2.5,4.018,4.018,0,0,0,.435,1.034l.117.222c.051.09.111.186.172.282.07.112.14.225.206.342a6.668,6.668,0,0,1,.414.637.225.225,0,0,1-.033.265l-.031.032A.222.222,0,0,1,894.816,318.107Zm-1.272-2.019a2.726,2.726,0,0,0,.315.606h0l-.118-.224C893.674,316.344,893.606,316.218,893.544,316.088Z" fill="#181818"/>
      </g>
      <g id="Grupo_47" data-name="Grupo 47">
        <path id="Trazado_125" data-name="Trazado 125" d="M896.706,309.815q.774,2.244,1.513,4.5c.25.75.525,1.493.724,2.258a21.264,21.264,0,0,1,.491,2.329l-.043.012a20.719,20.719,0,0,1-.873-2.214c-.255-.749-.435-1.52-.639-2.284q-.624-2.289-1.214-4.584Z" fill="#181818"/>
        <path id="Trazado_126" data-name="Trazado 126" d="M899.42,319.124a.249.249,0,0,1-.227-.115,21.3,21.3,0,0,1-.883-2.237c-.2-.573-.348-1.164-.5-1.737l-.147-.562c-.417-1.527-.827-3.071-1.216-4.59a.221.221,0,0,1,.151-.267.267.267,0,0,1,.316.127c.513,1.489,1.023,3,1.513,4.5q.09.271.185.545c.192.561.39,1.14.543,1.727a21.766,21.766,0,0,1,.5,2.354.222.222,0,0,1-.156.243A.271.271,0,0,1,899.42,319.124Zm-1-3.54c.1.351.2.7.314,1.044h0c-.1-.349-.2-.7-.318-1.044Z" fill="#181818"/>
      </g>
      <g id="Grupo_48" data-name="Grupo 48">
        <path id="Trazado_127" data-name="Trazado 127" d="M897.8,309.345a12.543,12.543,0,0,0,.789,2.269,13.224,13.224,0,0,0,1.154,2.092,16.3,16.3,0,0,0,1.49,1.846c.51.609,1.105,1.129,1.687,1.7l-.025.037a7.662,7.662,0,0,1-1.984-1.431,8.05,8.05,0,0,1-.8-.931c-.228-.341-.467-.674-.665-1.032a13.006,13.006,0,0,1-1.687-4.543Z" fill="#181818"/>
        <path id="Trazado_128" data-name="Trazado 128" d="M902.874,317.5a.149.149,0,0,1-.078-.018,7.867,7.867,0,0,1-2.041-1.472,6.742,6.742,0,0,1-.7-.8l-.281-.389c-.178-.263-.363-.534-.521-.821a13.13,13.13,0,0,1-1.714-4.611.217.217,0,0,1,.039-.165.222.222,0,0,1,.145-.09.27.27,0,0,1,.3.161,12.362,12.362,0,0,0,.775,2.229,13.149,13.149,0,0,0,1.137,2.059,16.09,16.09,0,0,0,1.471,1.823,15.158,15.158,0,0,0,1.2,1.232c.158.15.317.3.475.456a.223.223,0,0,1,.029.282A.3.3,0,0,1,902.874,317.5Zm-2.533-2.64.06.075a6.287,6.287,0,0,0,.664.757l.009.009-.009-.012c-.253-.281-.495-.555-.725-.829Z" fill="#181818"/>
      </g>
      <g id="Grupo_49" data-name="Grupo 49">
        <path id="Trazado_129" data-name="Trazado 129" d="M902.545,315.324a3.017,3.017,0,0,0,.291-1.415,2.539,2.539,0,0,0-.424-1.325,5.162,5.162,0,0,0-1-.976c-.192-.141-.387-.281-.581-.43a6.358,6.358,0,0,1-.611-.432l.017-.041a6.178,6.178,0,0,1,.74.2,6.743,6.743,0,0,1,.691.344,3.263,3.263,0,0,1,1.052,1.154,2.824,2.824,0,0,1,.342,1.512,3.134,3.134,0,0,1-.475,1.435Z" fill="#181818"/>
        <path id="Trazado_130" data-name="Trazado 130" d="M902.587,315.57a.214.214,0,0,1-.116-.033.268.268,0,0,1-.122-.306,2.764,2.764,0,0,0,.27-1.309,2.312,2.312,0,0,0-.388-1.213,3.2,3.2,0,0,0-.686-.694c-.095-.078-.19-.157-.282-.239l-.109-.079c-.153-.111-.306-.223-.459-.341a5.865,5.865,0,0,1-.614-.435.22.22,0,0,1-.067-.258.274.274,0,0,1,.265-.174,6.369,6.369,0,0,1,.767.2,6.679,6.679,0,0,1,.729.361,3.5,3.5,0,0,1,1.14,1.237,3.059,3.059,0,0,1,.368,1.631,3.365,3.365,0,0,1-.508,1.538A.222.222,0,0,1,902.587,315.57Zm-1.044-4.139c.1.091.194.166.285.241s.157.129.234.2a3.181,3.181,0,0,0-.518-.437Z" fill="#181818"/>
      </g>
      <g id="Grupo_50" data-name="Grupo 50">
        <path id="Trazado_131" data-name="Trazado 131" d="M910.082,327.629q-.684.385-1.381.736a3.986,3.986,0,0,1-.7.337,2.413,2.413,0,0,1-.8.112l-.017-.041a2.431,2.431,0,0,1,.644-.481,3.9,3.9,0,0,1,.737-.255q.741-.241,1.5-.45Z" fill="#181818"/>
        <path id="Trazado_132" data-name="Trazado 132" d="M907.292,329.036h-.1A.219.219,0,0,1,907,328.9l-.017-.041a.219.219,0,0,1,.042-.234,2.627,2.627,0,0,1,.7-.525,2.418,2.418,0,0,1,.56-.208c.072-.02.145-.04.216-.064.5-.162,1-.314,1.509-.452a.222.222,0,0,1,.263.129l.017.041a.224.224,0,0,1-.1.278c-.459.259-.927.508-1.391.741-.066.033-.131.07-.2.106a2.41,2.41,0,0,1-.548.247A2.744,2.744,0,0,1,907.292,329.036Zm.945-.674a1.507,1.507,0,0,0-.3.121l-.013.007h.012A1.472,1.472,0,0,0,908.237,328.362Z" fill="#181818"/>
      </g>
      <g id="Grupo_51" data-name="Grupo 51">
        <path id="Trazado_133" data-name="Trazado 133" d="M911.3,329.18a4.65,4.65,0,0,0,1.623.655,2.343,2.343,0,0,0,1.648-.312,3.3,3.3,0,0,0,1.374-2.952,2.261,2.261,0,0,0-.6-1.479,1.833,1.833,0,0,0-1.462-.448,4.906,4.906,0,0,0-1.636.457c-.271.106-.524.258-.791.384s-.511.3-.776.435l-.026-.036c.226-.2.459-.382.694-.57.252-.162.493-.345.76-.49a4.829,4.829,0,0,1,1.734-.621,2.147,2.147,0,0,1,.481-.012l.244.02c.081.015.161.04.241.061a1.92,1.92,0,0,1,.849.512,2.647,2.647,0,0,1,.642,1.772,4.04,4.04,0,0,1-.394,1.8,3.037,3.037,0,0,1-1.221,1.36,2.525,2.525,0,0,1-1.784.253,4.761,4.761,0,0,1-1.624-.749Z" fill="#181818"/>
        <path id="Trazado_134" data-name="Trazado 134" d="M913.46,330.249a2.8,2.8,0,0,1-.613-.067,4.837,4.837,0,0,1-1.7-.78.221.221,0,0,1-.063-.306l0,0a.268.268,0,0,1,.322-.1,4.388,4.388,0,0,0,1.545.626,2.136,2.136,0,0,0,1.493-.28,3.059,3.059,0,0,0,1.272-2.754,2.034,2.034,0,0,0-.536-1.334,1.606,1.606,0,0,0-1.285-.383,4.628,4.628,0,0,0-1.564.438,5.4,5.4,0,0,0-.492.234c-.1.05-.2.1-.294.148s-.219.122-.333.188c-.143.082-.287.165-.435.243a.22.22,0,0,1-.282-.065.268.268,0,0,1,.008-.335c.221-.192.451-.375.681-.56l.039-.029c.084-.054.167-.11.249-.167a6.2,6.2,0,0,1,.525-.332,5.041,5.041,0,0,1,1.807-.646l.077-.007a1.919,1.919,0,0,1,.467,0l.231.019c.067.013.134.029.2.048l.073.02a2.146,2.146,0,0,1,.949.568,2.868,2.868,0,0,1,.708,1.93,4.272,4.272,0,0,1-.416,1.893,3.262,3.262,0,0,1-1.312,1.457A2.686,2.686,0,0,1,913.46,330.249Zm.638-5.837a2.039,2.039,0,0,1,1.22.369,1.567,1.567,0,0,0-.567-.294l-.082-.022c-.048-.014-.1-.027-.145-.036l-.222-.017a1.585,1.585,0,0,0-.377.005l-.056.005C913.946,324.416,914.022,324.412,914.1,324.412Z" fill="#181818"/>
      </g>
      <g id="Grupo_52" data-name="Grupo 52">
        <path id="Trazado_135" data-name="Trazado 135" d="M904.32,322.509q.48-.288.973-.544a1.99,1.99,0,0,1,.5-.241,1.336,1.336,0,0,1,.587-.014l.016.041a1.345,1.345,0,0,1-.443.386,1.982,1.982,0,0,1-.531.159q-.535.144-1.085.255Z" fill="#181818"/>
        <path id="Trazado_136" data-name="Trazado 136" d="M904.336,322.772a.221.221,0,0,1-.207-.141l-.016-.041a.221.221,0,0,1,.092-.27c.322-.194.654-.38.986-.551.046-.023.089-.05.133-.076a1.332,1.332,0,0,1,.424-.186,1.536,1.536,0,0,1,.678-.013.224.224,0,0,1,.159.137l.016.041a.223.223,0,0,1-.026.208,1.552,1.552,0,0,1-.511.449,1.326,1.326,0,0,1-.435.147c-.05.01-.1.021-.149.034-.36.1-.73.184-1.1.259A.166.166,0,0,1,904.336,322.772Zm1.519-.835h-.017a.682.682,0,0,0-.19.077.643.643,0,0,0,.189-.07Z" fill="#181818"/>
      </g>
      <g id="Grupo_53" data-name="Grupo 53">
        <path id="Trazado_137" data-name="Trazado 137" d="M907.108,322.929a7.466,7.466,0,0,0,2.165.632,3.231,3.231,0,0,0,2.125-.455,3.136,3.136,0,0,0,1.2-1.773,4.358,4.358,0,0,0,.01-2.173,2.866,2.866,0,0,0-1.136-1.741,2.208,2.208,0,0,0-1.985-.134,6.162,6.162,0,0,0-1.881,1.126c-.3.227-.559.5-.843.75l-.8.809-.035-.027c.222-.31.454-.614.687-.919.261-.279.5-.581.786-.843a6.464,6.464,0,0,1,.9-.742c.08-.057.157-.116.239-.17l.26-.143a2.868,2.868,0,0,1,.539-.257,2.567,2.567,0,0,1,.585-.163l.3-.051.313.005a2.281,2.281,0,0,1,.617.111,2.048,2.048,0,0,1,.288.127,1.265,1.265,0,0,1,.271.157,3.256,3.256,0,0,1,1.237,2.024,4.678,4.678,0,0,1-.078,2.335,3.077,3.077,0,0,1-3.62,2.281,7.585,7.585,0,0,1-2.169-.725Z" fill="#181818"/>
        <path id="Trazado_138" data-name="Trazado 138" d="M909.841,323.956a4.5,4.5,0,0,1-.614-.042,7.848,7.848,0,0,1-2.231-.743.221.221,0,0,1-.11-.294l0-.006a.267.267,0,0,1,.3-.148,7.365,7.365,0,0,0,2.1.617,3.036,3.036,0,0,0,1.98-.419,2.9,2.9,0,0,0,1.114-1.649,4.1,4.1,0,0,0,.008-2.062,2.644,2.644,0,0,0-1.041-1.608,1.988,1.988,0,0,0-1.79-.112,5.9,5.9,0,0,0-1.814,1.088c-.184.146-.361.3-.529.463-.1.1-.2.191-.309.283l-.789.8a.222.222,0,0,1-.3.017l-.035-.028a.221.221,0,0,1-.041-.3c.216-.3.441-.6.667-.894a.27.27,0,0,1,.038-.047c.088-.094.174-.192.261-.289.169-.19.342-.386.537-.566a6.573,6.573,0,0,1,.925-.763l.077-.056c.054-.039.108-.078.164-.115l.33-.183a2.784,2.784,0,0,1,.525-.244l.06-.021a2.407,2.407,0,0,1,.567-.15l.291-.049h.353a1.653,1.653,0,0,1,.521.081l.143.036a1.2,1.2,0,0,1,.241.1c.028.014.056.029.085.041l.06.029a1.161,1.161,0,0,1,.269.164,3.455,3.455,0,0,1,1.308,2.146,4.894,4.894,0,0,1-.082,2.445,3.594,3.594,0,0,1-1.453,2A3.374,3.374,0,0,1,909.841,323.956Zm1.643-6.793.055.033c-.019-.013-.037-.024-.055-.034Zm-2.073-.086c-.038.012-.074.025-.11.04Zm.814-.2-.264.047a2.072,2.072,0,0,0-.478.129l-.054.019a2.578,2.578,0,0,1,1.829-.018h-.009a.778.778,0,0,0-.145-.063c-.048-.011-.1-.025-.153-.039a1.4,1.4,0,0,0-.4-.067Z" fill="#181818"/>
      </g>
      <g id="Grupo_54" data-name="Grupo 54">
        <path id="Trazado_139" data-name="Trazado 139" d="M908.627,333.621q-1.764-2.4-3.339-4.927a23.568,23.568,0,0,1-1.469-2.6,13.513,13.513,0,0,1-.543-1.4,4.429,4.429,0,0,1-.247-1.487h.044a6.683,6.683,0,0,0,.492,1.379c.2.446.422.884.652,1.317.457.869.9,1.75,1.376,2.616s.986,1.713,1.5,2.559,1.032,1.69,1.569,2.522Z" fill="#181818"/>
        <path id="Trazado_140" data-name="Trazado 140" d="M908.626,333.843a.221.221,0,0,1-.179-.09c-1.214-1.649-2.34-3.312-3.348-4.941l-.16-.259a21.393,21.393,0,0,1-1.322-2.367l-.1-.244a10.965,10.965,0,0,1-.451-1.187,4.652,4.652,0,0,1-.256-1.556.222.222,0,0,1,.215-.216.281.281,0,0,1,.267.169,6.5,6.5,0,0,0,.476,1.334c.173.387.378.8.648,1.308q.223.426.445.854c.3.588.611,1.177.93,1.76.421.755.9,1.566,1.5,2.551.518.863,1.045,1.709,1.566,2.517a.223.223,0,0,1-.06.3l-.036.025A.221.221,0,0,1,908.626,333.843Zm-4.6-7.837v.007a13.329,13.329,0,0,0,.632,1.213l-.191-.368c-.148-.284-.294-.568-.443-.851Z" fill="#181818"/>
      </g>
    </g>
    <path id="Trazado_141" data-name="Trazado 141" d="M976.641,382.538c-3.7-14.6-16.013-21.638-27.922-20.843-10.329.689-20.447,9.081-22.881,19.6a25.821,25.821,0,0,0,12.8,28.856c10.205,5.536,24.091,4.233,33.623-7.581-2.068,7.75-16.555,13.572-27.751,11.154-13.578-2.933-22.793-16.567-20.494-30.573a26.8,26.8,0,0,1,28.335-22.678C968.109,361.536,976.387,374.63,976.641,382.538Z" fill="#181818"/>
    <path id="Trazado_142" data-name="Trazado 142" d="M1043.732,456.738c-1.212-31.921-.845-63.837.37-95.748C1045.183,392.911,1045,424.827,1043.732,456.738Z" fill="#181818"/>
    <path id="Trazado_143" data-name="Trazado 143" d="M955.738,341.014c27.082-.889,54.113-.847,81.766.3C1032.3,342.677,964.638,342.424,955.738,341.014Z" fill="#181818"/>
    <path id="Trazado_144" data-name="Trazado 144" d="M954.92,411.2c-1.018-3.728.008-6.635,3.285-8.565,1.163-.685,1.215-1.258.409-2.281a9.993,9.993,0,0,1-1.8-5.269,31.97,31.97,0,0,0-5.041-14.379c-3.285-4.915-7.728-7.954-13.724-8.51-.956-.089-1.9-.3-3.13-.506,6.455-1.514,13.89,1.708,18.029,7.585a32.6,32.6,0,0,1,5.7,16.245,6.937,6.937,0,0,0,1.807,4.507c1.16,1.186.843,2.468-.361,3C956.5,404.621,954.69,407.2,954.92,411.2Z" fill="#181818"/>
    <path id="Trazado_145" data-name="Trazado 145" d="M1031.55,473q-26.322,1.2-52.859,0C982.008,471.566,1017.455,471.425,1031.55,473Z" fill="#181818"/>
    <path id="Trazado_146" data-name="Trazado 146" d="M1001.014,364.419c2.1,9.377,7.127,14.061,13.847,13.353,6.661-.7,11.784-6.138,11.761-12.48-.025-7.048-4.959-11.748-13.429-12.795,6.521-1.188,13.753,4.389,14.4,11.1.807,8.373-4.62,15.158-12.291,15.367C1006.913,379.2,1000.654,373.119,1001.014,364.419Z" fill="#181818"/>
    <path id="Trazado_147" data-name="Trazado 147" d="M952.879,392.185a30.516,30.516,0,0,0-2.868-7.111c-.679-1.188-1.794-.055-2.783-.339.017-.925,1.464-.71,1.389-1.824-1.537-.635-2.991.454-4.632.4.671-1.144,2.171-.98,2.967-2.11-2.382-.923-4.423.5-7.028.714a13.418,13.418,0,0,1,3.815-1.87c.485-.226,1.452-.085,1.212-.969-.2-.721-1-.86-1.71-.765-2.02.269-3.958.883-6.092,1.144l4.129-2.13c-2.813-.46-5.436.463-8.13.982,1.433-1.294,3.416-1.4,5.036-2.368-.694-1.011-1.924-.55-2.65-1.272C944.661,373.574,952.782,381.708,952.879,392.185Z" fill="#181818"/>
    <path id="Trazado_148" data-name="Trazado 148" d="M962.026,358.178c.707-.7,1.419-.486,2.058-.49,8.9-.045,17.8-.022,26.706-.13,2.108-.025,3.073.586,2.893,2.824-.157,1.949-.076,3.92-.057,5.88.016,1.616-.731,2.291-2.35,2.284-3.992-.016-7.987.086-11.959-.752,3.418-.258,6.855-.309,10.274-.546,1.921-.133,2.675-.664,2.635-2.646-.137-6.847.706-5.906-5.876-5.958-7.318-.059-14.636-.058-21.953-.1A3.871,3.871,0,0,1,962.026,358.178Z" fill="#181818"/>
    <path id="Trazado_149" data-name="Trazado 149" d="M978.391,437.574c15.17-.176,30.361-.7,45.535.331A353.723,353.723,0,0,1,978.391,437.574Z" fill="#181818"/>
    <path id="Trazado_150" data-name="Trazado 150" d="M978.4,406.308c15.289-.137,30.564-.664,45.824.42C1008.939,407.011,993.654,407.553,978.4,406.308Z" fill="#181818"/>
    <path id="Trazado_151" data-name="Trazado 151" d="M983.318,384.192c2.27-.485,4.541-.166,6.776-.614,1.171-.235,1.7-.776,1.678-1.964-.135-6.631,1.207-6.624-5.99-6.7-1.876-.02-3.752,0-5.8,0a1.155,1.155,0,0,1,1.275-.861c3.54-.069,7.079-.1,10.619-.145,1.22-.014,1.779.618,1.774,1.819-.012,2.485,0,4.971-.016,7.456,0,.825-.285,1.588-1.222,1.608C989.361,384.853,986.286,385.151,983.318,384.192Z" fill="#181818"/>
    <path id="Trazado_152" data-name="Trazado 152" d="M984.924,458.642c4.064-.919,35.827-.579,40.448.292C1011.471,459.374,998.184,459.451,984.924,458.642Z" fill="#181818"/>
    <path id="Trazado_153" data-name="Trazado 153" d="M1024.766,448.257a181.937,181.937,0,0,1-33.333-.237C1002.546,447.747,1013.666,447.382,1024.766,448.257Z" fill="#181818"/>
    <path id="Trazado_154" data-name="Trazado 154" d="M1024.353,427.436c-5.643.94-22.97.9-30.54-.352C1003.995,426.95,1014.182,426.492,1024.353,427.436Z" fill="#181818"/>
    <path id="Trazado_155" data-name="Trazado 155" d="M993.781,416.619c10.193-.058,20.359-.527,30.5.325C1020.775,418.076,999.035,417.856,993.781,416.619Z" fill="#181818"/>
    <path id="Trazado_156" data-name="Trazado 156" d="M983.957,428.336c1.867-4.228,1.664-5.11-1.156-8-3.413-3.5-6.784-7.035-10.157-10.57-.328-.344-.884-.6-.709-1.519,4.283,4.31,9.009,7.923,12.75,12.53C986.65,423.2,986.429,425.509,983.957,428.336Z" fill="#181818"/>
  </g>
</svg>
