<?xml version="1.0" encoding="utf-8"?>
<!-- Generator: Adobe Illustrator 24.2.1, SVG Export Plug-In . SVG Version: 6.00 Build 0)  -->
<svg version="1.1" id="Capa_1" xmlns="http://www.w3.org/2000/svg" xmlns:xlink="http://www.w3.org/1999/xlink" x="0px" y="0px"
	 viewBox="0 0 394 265.4" style="enable-background:new 0 0 394 265.4;" xml:space="preserve">
<style type="text/css">
	.st0{enable-background:new    ;}
	.st1{fill:#FBFBFB;}
</style>
<g>
	<g class="st0">
		<path class="st1" d="M135.2,94.2h2c0.8,0,1.3-0.5,1.3-1.3l2.9-35.9h6.2l10,22.4c1,2.3,2.1,5.3,2.1,5.3h0.1c0,0,1.1-3.1,2.1-5.3
			l10-22.4h6.2l2.9,35.9c0.1,0.8,0.5,1.3,1.3,1.3h2v5.2h-5.3c-2.7,0-3.7-1.1-3.8-3.8l-1.7-22.4c-0.2-2.5-0.1-6.2-0.1-6.2h-0.1
			c0,0-1.2,4-2.2,6.2l-8.6,18.6h-5l-8.6-18.6c-1-2.2-2.3-6.3-2.3-6.3h-0.1c0,0,0.1,3.8-0.1,6.3l-1.7,22.4c-0.2,2.7-1.1,3.8-3.9,3.8
			h-5.3V94.2z"/>
		<path class="st1" d="M205.9,80.5h1.3v-0.3c0-5.3-2-7.3-6.7-7.3c-1.4,0-5,0.4-5,2.3V77h-5.5v-3c0-5,7.6-5.7,10.5-5.7
			c9.8,0,12.5,5.2,12.5,11.9v12.9c0,0.9,0.5,1.3,1.3,1.3h2.5v5h-5.5c-2.7,0-3.8-1.3-3.8-3.5c0-1,0.1-1.8,0.1-1.8h-0.1
			c0,0-2.4,6-9.7,6c-5.2,0-10.3-3.2-10.3-9.2C187.6,81.1,200.8,80.5,205.9,80.5z M199.2,95.4c4.9,0,8.1-5.2,8.1-9.7v-1h-1.5
			c-4.4,0-12.3,0.2-12.3,5.8C193.5,93,195.4,95.4,199.2,95.4z"/>
		<path class="st1" d="M223.2,75.3c0-0.9-0.5-1.3-1.3-1.3h-2.5v-5h5.5c2.6,0,3.9,1.1,3.9,3.5v1.9c0,1.2-0.1,2.1-0.1,2.1h0.1
			c1.4-4.4,4.9-7.9,9.6-7.9c0.8,0,1.6,0.1,1.6,0.1v5.8c0,0-0.8-0.2-1.7-0.2c-3.7,0-7.1,2.6-8.5,7.1c-0.5,1.7-0.7,3.6-0.7,5.5v12.4
			h-5.8V75.3z"/>
		<path class="st1" d="M246.7,75.3c0-0.9-0.5-1.3-1.3-1.3h-2.5v-5h5.7c2.7,0,3.8,1.1,3.8,3.8v20.2c0,0.9,0.5,1.3,1.3,1.3h2.5v5h-5.7
			c-2.7,0-3.8-1.1-3.8-3.8V75.3z M246.8,57h5.2v6.1h-5.2V57z"/>
		<path class="st1" d="M278.3,80.5h1.3v-0.3c0-5.3-2-7.3-6.7-7.3c-1.4,0-5,0.4-5,2.3V77h-5.5v-3c0-5,7.6-5.7,10.5-5.7
			c9.8,0,12.5,5.2,12.5,11.9v12.9c0,0.9,0.5,1.3,1.3,1.3h2.5v5h-5.5c-2.7,0-3.8-1.3-3.8-3.5c0-1,0.1-1.8,0.1-1.8H280
			c0,0-2.4,6-9.7,6c-5.2,0-10.3-3.2-10.3-9.2C260,81.1,273.2,80.5,278.3,80.5z M271.6,95.4c4.9,0,8.1-5.2,8.1-9.7v-1h-1.5
			c-4.4,0-12.3,0.2-12.3,5.8C265.9,93,267.7,95.4,271.6,95.4z"/>
	</g>
	<g class="st0">
		<path class="st1" d="M135.2,161.2h2c0.8,0,1.3-0.5,1.3-1.3l2.9-35.9h6.2l10,22.4c1,2.3,2.1,5.3,2.1,5.3h0.1c0,0,1.1-3.1,2.1-5.3
			l10-22.4h6.2l2.9,35.9c0.1,0.8,0.5,1.3,1.3,1.3h2v5.2h-5.3c-2.7,0-3.7-1.1-3.8-3.8l-1.7-22.4c-0.2-2.5-0.1-6.2-0.1-6.2h-0.1
			c0,0-1.2,4-2.2,6.2l-8.6,18.6h-5l-8.6-18.6c-1-2.2-2.3-6.3-2.3-6.3h-0.1c0,0,0.1,3.8-0.1,6.3l-1.7,22.4c-0.2,2.7-1.1,3.8-3.9,3.8
			h-5.3V161.2z"/>
		<path class="st1" d="M205.9,147.5h1.3v-0.3c0-5.3-2-7.3-6.7-7.3c-1.4,0-5,0.4-5,2.3v1.7h-5.5v-3c0-5,7.6-5.7,10.5-5.7
			c9.8,0,12.5,5.2,12.5,11.9v12.9c0,0.9,0.5,1.3,1.3,1.3h2.5v5h-5.5c-2.7,0-3.8-1.3-3.8-3.5c0-1,0.1-1.8,0.1-1.8h-0.1
			c0,0-2.4,6-9.7,6c-5.2,0-10.3-3.2-10.3-9.2C187.6,148.1,200.8,147.5,205.9,147.5z M199.2,162.4c4.9,0,8.1-5.2,8.1-9.7v-1h-1.5
			c-4.4,0-12.3,0.2-12.3,5.8C193.5,160,195.4,162.4,199.2,162.4z"/>
		<path class="st1" d="M236.5,135.3c3.7,0,10.9,1.5,10.9,6.7v3.1h-5.3v-1.7c0-2.2-3.4-3.1-5.6-3.1c-5.9,0-10.4,4.4-10.4,10.9
			c0,6.9,5,10.8,10.7,10.8c5.7,0,9.4-4.2,9.4-4.2l2.5,4.1c0,0-4.3,5.2-12.4,5.2c-9.5,0-16.2-6.8-16.2-15.9
			C220.2,142.3,226.8,135.3,236.5,135.3z"/>
		<path class="st1" d="M254.7,130.3c0-0.9-0.5-1.3-1.3-1.3h-2.5v-5h5.8c2.7,0,3.8,1.1,3.8,3.7v11.8c0,1.4-0.1,2.5-0.1,2.5h0.1
			c1.3-2.9,5.2-6.8,11.3-6.8c7.1,0,10.4,3.9,10.4,11.6v13.1c0,0.9,0.5,1.3,1.3,1.3h2.5v5h-5.7c-2.7,0-3.8-1.1-3.8-3.8v-14.3
			c0-4.3-0.9-7.6-5.8-7.6c-4.6,0-8.3,3.1-9.6,7.5c-0.4,1.2-0.5,2.6-0.5,4v14.2h-5.8V130.3z"/>
		<path class="st1" d="M307.7,147.5h1.3v-0.3c0-5.3-2-7.3-6.7-7.3c-1.4,0-5,0.4-5,2.3v1.7h-5.5v-3c0-5,7.6-5.7,10.5-5.7
			c9.8,0,12.5,5.2,12.5,11.9v12.9c0,0.9,0.5,1.3,1.3,1.3h2.5v5h-5.5c-2.7,0-3.8-1.3-3.8-3.5c0-1,0.1-1.8,0.1-1.8h-0.1
			c0,0-2.4,6-9.7,6c-5.2,0-10.3-3.2-10.3-9.2C289.4,148.1,302.6,147.5,307.7,147.5z M301,162.4c4.9,0,8.1-5.2,8.1-9.7v-1h-1.5
			c-4.4,0-12.3,0.2-12.3,5.8C295.3,160,297.1,162.4,301,162.4z"/>
		<path class="st1" d="M335.8,135.3c7,0,9.4,4.7,9.4,4.7h0.1c0,0-0.1-0.9-0.1-2v-7.6c0-0.9-0.5-1.3-1.3-1.3h-2.5v-5h5.8
			c2.7,0,3.8,1.1,3.8,3.8v32.2c0,0.9,0.5,1.3,1.3,1.3h2.5v5h-5.6c-2.6,0-3.7-1.2-3.7-3.2c0-0.9,0.1-1.6,0.1-1.6h-0.1
			c0,0-2.5,5.5-10,5.5c-8.2,0-13.4-6.5-13.4-15.9C322,141.5,327.7,135.3,335.8,135.3z M345.3,151.1c0-5.4-2.8-10.8-8.6-10.8
			c-4.7,0-8.7,4-8.7,10.9c0,6.6,3.5,10.9,8.6,10.9C341.1,162.1,345.3,158.9,345.3,151.1z"/>
		<path class="st1" d="M374.6,135.3c9.1,0,16.4,6.7,16.4,15.8c0,9.2-7.3,16-16.4,16s-16.3-6.7-16.3-16
			C358.3,142,365.5,135.3,374.6,135.3z M374.6,162.1c5.8,0,10.4-4.6,10.4-10.9c0-6.3-4.7-10.8-10.4-10.8c-5.7,0-10.4,4.5-10.4,10.8
			C364.2,157.5,368.9,162.1,374.6,162.1z"/>
	</g>
	<g class="st0">
		<path class="st1" d="M140.2,197.5c0-0.9-0.5-1.3-1.3-1.3h-2.6V191h6.1c2.7,0,3.8,1.1,3.8,3.8v32c0,0.8,0.5,1.3,1.3,1.3h11.7
			c0.8,0,1.3-0.5,1.3-1.3v-2.7h5.5v5.3c0,2.7-1.1,3.8-3.8,3.8H144c-2.7,0-3.8-1.1-3.8-3.8V197.5z"/>
		<path class="st1" d="M171.3,209.3c0-0.9-0.5-1.3-1.3-1.3h-2.5v-5h5.7c2.8,0,3.9,1.1,3.9,3.7v14.4c0,4.2,0.8,7.6,5.6,7.6
			c6.2,0,9.9-5.5,9.9-11.5V203h5.8v24.1c0,0.9,0.5,1.3,1.3,1.3h2.5v5h-5.6c-2.6,0-3.8-1.2-3.8-3.4v-1.1c0-1,0.1-1.7,0.1-1.7h-0.1
			c-1.3,3-5.2,7-11.2,7c-6.8,0-10.3-3.6-10.3-11.6V209.3z"/>
		<path class="st1" d="M208.9,207.7h-4V203h4.1v-8.3h5.7v8.3h7.3v4.7h-7.3v13.9c0,6.1,4.2,6.8,6.4,6.8c0.8,0,1.4-0.1,1.4-0.1v5.2
			c0,0-0.8,0.1-2,0.1c-3.8,0-11.6-1.2-11.6-11.3V207.7z"/>
		<path class="st1" d="M229.1,197.3c0-0.9-0.5-1.3-1.3-1.3h-2.5v-5h5.8c2.7,0,3.8,1.1,3.8,3.7v11.8c0,1.4-0.1,2.5-0.1,2.5h0.1
			c1.3-2.9,5.2-6.8,11.3-6.8c7.1,0,10.4,3.9,10.4,11.6v13.1c0,0.9,0.5,1.3,1.3,1.3h2.5v5h-5.7c-2.7,0-3.8-1.1-3.8-3.8v-14.3
			c0-4.3-0.9-7.6-5.8-7.6c-4.6,0-8.3,3.1-9.6,7.5c-0.4,1.2-0.5,2.6-0.5,4v14.2h-5.8V197.3z"/>
		<path class="st1" d="M267,209.3c0-0.9-0.5-1.3-1.3-1.3h-2.5v-5h5.7c2.7,0,3.8,1.1,3.8,3.8v20.2c0,0.9,0.5,1.3,1.3,1.3h2.5v5h-5.7
			c-2.7,0-3.8-1.1-3.8-3.8V209.3z M267.1,191h5.2v6.1h-5.2V191z"/>
		<path class="st1" d="M295.5,202.3c8.5,0,13.1,6.4,13.1,14.2c0,0.8-0.2,2.4-0.2,2.4h-22.1c0.4,6.5,5,10.1,10.4,10.1
			c5.2,0,8.9-3.5,8.9-3.5l2.5,4.1c0,0-4.5,4.4-11.7,4.4c-9.6,0-16.1-6.9-16.1-15.9C280.2,208.5,286.8,202.3,295.5,202.3z
			 M302.5,214.7c-0.2-5-3.4-7.7-7.1-7.7c-4.4,0-8,2.7-8.9,7.7H302.5z"/>
		<path class="st1" d="M316.3,209.3c0-0.9-0.5-1.3-1.3-1.3h-2.5v-5h5.5c2.6,0,3.9,1.1,3.9,3.5v1.9c0,1.2-0.1,2.1-0.1,2.1h0.1
			c1.4-4.4,4.9-7.9,9.6-7.9c0.8,0,1.6,0.1,1.6,0.1v5.8c0,0-0.8-0.2-1.7-0.2c-3.7,0-7.1,2.6-8.5,7.1c-0.5,1.7-0.7,3.6-0.7,5.5v12.4
			h-5.8V209.3z"/>
	</g>
	<g transform="translate(210 7527.625)">
		<path class="st1" d="M-164.8-7403.9c1.1,0,1.9-0.9,1.9-1.9c0-0.8-0.4-1.6-1.9-2.3c-1.3-0.7-2.8-0.7-4.1,0c-4,2.1-4.2,9.3-4.4,17.6
			c-0.2,6.7-0.4,14.2-3,17c-0.3,0.4-0.7,0.6-1.2,0.6c0-1-0.9-1.9-1.9-1.9c-1.1,0-1.9,0.9-1.9,1.9c-0.1,2.3,2.6,2.7,3.9,2.7
			c1.2-0.1,2.3-0.6,3.1-1.5c3.4-3.5,3.6-11.3,3.8-18.8c0.2-6.5,0.4-13.9,3-15.3c0.3-0.1,0.6-0.2,0.9-0.2c0,0,0,0.1,0,0.1
			C-166.7-7404.8-165.8-7403.9-164.8-7403.9C-164.8-7403.9-164.8-7403.9-164.8-7403.9z"/>
		<path class="st1" d="M-141.7-7390.5c0.2,7.5,0.4,15.3,3.8,18.8c0.8,0.9,1.9,1.4,3.1,1.5c1.3,0,4-0.4,3.9-2.7
			c0-1.1-0.9-1.9-1.9-1.9c-1,0-1.9,0.8-1.9,1.9c-0.5,0-0.9-0.3-1.2-0.6c-2.6-2.8-2.9-10.3-3-17c-0.2-8.3-0.4-15.5-4.4-17.6
			c-1.3-0.6-2.8-0.6-4.1,0c-1.4,0.7-1.9,1.5-1.9,2.3c0,1.1,0.9,1.9,1.9,1.9c1.1,0,1.9-0.9,1.9-1.9c0,0,0,0,0,0c0,0,0-0.1,0-0.1
			c0.3,0,0.6,0,0.9,0.2C-142.1-7404.4-141.9-7397-141.7-7390.5z"/>
		<path class="st1" d="M-110.4-7360.6c-3.4-5.8,3.4-8.1,2.3-10.4c-0.9-2-3.1,0.2-4.9,2.5c-1.1,1.4-4.1,4.9-2.1,8.4
			c11.7,20.1,7.8,33.9,1.9,42.8c-11.3,17.1-33.1,20.9-41.4,20.9V-7468c18.4,0.9,33.6,8.6,36.2,31.8c0.5,4.6-0.4,9.2-2.8,13.2l0,0.1
			c-1.7,3,0.9,6,1.8,7.1c1.5,2,3.4,3.8,4.1,2.1c0.9-2-4.8-3.9-1.9-8.9c0.8-1.3,1.5-2.7,2.1-4c0-0.1,0.1-0.2,0.1-0.3l0,0
			c7.8-16.8,3.1-32.8-7.5-42c-7.5-6.5-18.9-10.4-29.8-11l0,0c-0.8-0.1-1.5-0.1-2.3-0.2v-46.2c-0.1-0.9-0.8-1.5-1.7-1.4
			c-0.8,0.1-1.4,0.7-1.4,1.4v46.1c-0.1,0-0.2,0-0.2,0h-0.1c-11.9,0-24,4.1-32.1,11.2c-11.5,10-16.1,27.9-5.3,46.2
			c2.9,4.9-2.9,6.8-1.9,8.9c0.8,1.7,2.6-0.2,4.1-2.1c0.9-1.2,3.5-4.1,1.8-7.1c-9.9-17.1-6.6-28.7-1.6-36.3
			c9.5-14.5,28-17.7,35.1-17.7c0,0,0.2,9,0.2,9h0.1v161c-22.2-0.8-40.5-9.8-43.7-37.6c-0.6-5.4,0.5-10.9,3.3-15.5l0-0.1
			c2.1-3.5-1-7-2.1-8.4c-1.8-2.3-4-4.5-4.9-2.5c-1.1,2.4,5.7,4.6,2.3,10.4c-0.9,1.6-1.7,3.1-2.5,4.7c-0.1,0.1-0.1,0.2-0.2,0.3l0,0
			c-9.2,19.8-3.6,38.7,8.9,49.6c8.8,7.6,22.3,12.3,35.1,13l0,0c1.2,0.1,2.4,0.2,3.7,0.3v29.2c0.1,0.9,0.8,1.5,1.7,1.4
			c0.8-0.1,1.4-0.7,1.4-1.4v-29.1c14.1,0,28.3-4.9,37.9-13.2C-103.1-7317.8-97.6-7339-110.4-7360.6z"/>
	</g>
</g>
</svg>
