<svg xmlns="http://www.w3.org/2000/svg" width="79.494" height="62.457" viewBox="0 0 79.494 62.457">
  <g id="Grupo_100" data-name="Grupo 100" transform="translate(-10.096)">
    <text id="Maria_Machado_Luthier" data-name="Maria
Machado
Luthier" transform="translate(41.59 21.96)" font-size="11" font-family="Museo-500, Museo" font-weight="500"><tspan x="0" y="0">Maria</tspan><tspan x="0" y="13">Machado</tspan><tspan x="0" y="26">Luthier</tspan></text>
    <g id="Grupo_89" data-name="Grupo 89" transform="translate(10.096)">
      <path id="Trazado_21" data-name="Trazado 21" d="M135.007,947.154a.452.452,0,0,0,.452-.452c0-.19-.1-.374-.439-.546a1.082,1.082,0,0,0-.974-.011c-.942.5-.987,2.191-1.039,4.146-.042,1.567-.089,3.344-.712,4a.386.386,0,0,1-.288.149.451.451,0,0,0-.45-.438.457.457,0,0,0-.452.452c-.017.533.61.643.915.633a1.081,1.081,0,0,0,.741-.351c.794-.832.843-2.658.89-4.424.041-1.532.088-3.268.7-3.594a.4.4,0,0,1,.209-.039c0,.009,0,.018,0,.028A.452.452,0,0,0,135.007,947.154Z" transform="translate(-124.36 -918.039)"/>
      <path id="Trazado_22" data-name="Trazado 22" d="M151.573,950.308c.047,1.766.1,3.592.891,4.424a1.08,1.08,0,0,0,.741.351c.306.01.932-.1.915-.633a.457.457,0,0,0-.452-.452.451.451,0,0,0-.45.438.385.385,0,0,1-.288-.149c-.623-.653-.671-2.429-.713-4-.052-1.955-.1-3.643-1.039-4.146a1.082,1.082,0,0,0-.974.011c-.34.172-.439.356-.439.546a.452.452,0,1,0,.9,0c0-.009,0-.018,0-.028a.4.4,0,0,1,.209.039C151.485,947.04,151.532,948.776,151.573,950.308Z" transform="translate(-135.508 -918.039)"/>
      <path id="Trazado_23" data-name="Trazado 23" d="M137.809,916.8c-.808-1.375.792-1.9.532-2.46-.216-.467-.731.042-1.151.589-.251.327-.976,1.153-.492,1.987,2.758,4.741,1.837,7.974.446,10.085-2.653,4.025-7.782,4.912-9.739,4.912V891.538c4.337.21,7.9,2.029,8.519,7.484a5.033,5.033,0,0,1-.649,3.1l-.009.015c-.41.706.2,1.4.417,1.682.356.464.792.894.975.5.221-.477-1.135-.919-.45-2.083.184-.313.348-.625.495-.936a.452.452,0,0,0,.03-.064h0a8.166,8.166,0,0,0-1.775-9.882,12.156,12.156,0,0,0-7.005-2.6h0c-.181-.02-.364-.034-.548-.046V877.841a.369.369,0,0,0-.736,0v10.842h-.074a11.817,11.817,0,0,0-7.563,2.637c-2.706,2.345-3.785,6.57-1.25,10.882.685,1.165-.671,1.607-.45,2.083.183.4.619-.036.975-.5.213-.277.827-.977.417-1.682-2.336-4.015-1.555-6.753-.377-8.541,2.247-3.41,6.593-4.16,8.249-4.16.006,0,.038,2.115.044,2.115h.03V929.4c-5.221-.2-9.54-2.312-10.282-8.847a5.942,5.942,0,0,1,.767-3.659l.01-.018c.485-.833-.241-1.659-.492-1.986-.42-.547-.935-1.056-1.151-.589-.26.562,1.34,1.084.531,2.46q-.325.553-.584,1.1a.561.561,0,0,0-.036.075h0c-2.164,4.671-.852,9.115,2.1,11.669a14.352,14.352,0,0,0,8.271,3.068h0q.431.046.868.067v6.875a.369.369,0,0,0,.736,0v-6.856a13.953,13.953,0,0,0,8.929-3.113C139.529,926.884,140.8,921.895,137.809,916.8Z" transform="translate(-114.358 -877.503)"/>
    </g>
  </g>
</svg>
