<?xml version="1.0" encoding="utf-8"?>
<!-- Generator: Adobe Illustrator 24.2.1, SVG Export Plug-In . SVG Version: 6.00 Build 0)  -->
<svg version="1.1" id="Capa_1" xmlns="http://www.w3.org/2000/svg" xmlns:xlink="http://www.w3.org/1999/xlink" x="0px" y="0px"
	 viewBox="0 0 79.5 62.5" style="enable-background:new 0 0 79.5 62.5;" xml:space="preserve">
<style type="text/css">
	.st0{enable-background:new    ;}
</style>
<g class="st0">
	<path d="M31.7,21h0.4c0.2,0,0.2-0.1,0.2-0.2l0.5-6.6H34l1.8,4.1c0.2,0.4,0.4,1,0.4,1h0c0,0,0.2-0.6,0.4-1l1.8-4.1h1.1l0.5,6.6
		c0,0.2,0.1,0.2,0.2,0.2h0.4V22h-1c-0.5,0-0.7-0.2-0.7-0.7l-0.3-4.1c0-0.5,0-1.1,0-1.1h0c0,0-0.2,0.7-0.4,1.1l-1.6,3.4h-0.9
		l-1.6-3.4C34,16.7,33.8,16,33.8,16h0c0,0,0,0.7,0,1.2l-0.3,4.1c0,0.5-0.2,0.7-0.7,0.7h-1V21z"/>
	<path d="M44.7,18.5h0.2v-0.1c0-1-0.4-1.3-1.2-1.3c-0.3,0-0.9,0.1-0.9,0.4v0.3h-1v-0.5c0-0.9,1.4-1,1.9-1c1.8,0,2.3,0.9,2.3,2.2v2.4
		c0,0.2,0.1,0.2,0.2,0.2h0.5V22h-1c-0.5,0-0.7-0.2-0.7-0.6c0-0.2,0-0.3,0-0.3h0c0,0-0.4,1.1-1.8,1.1c-1,0-1.9-0.6-1.9-1.7
		C41.3,18.6,43.7,18.5,44.7,18.5z M43.5,21.2c0.9,0,1.5-0.9,1.5-1.8v-0.2h-0.3c-0.8,0-2.3,0-2.3,1.1C42.4,20.8,42.7,21.2,43.5,21.2z
		"/>
	<path d="M47.8,17.5c0-0.2-0.1-0.2-0.2-0.2h-0.5v-0.9h1c0.5,0,0.7,0.2,0.7,0.6v0.4c0,0.2,0,0.4,0,0.4h0c0.3-0.8,0.9-1.5,1.8-1.5
		c0.1,0,0.3,0,0.3,0v1.1c0,0-0.1,0-0.3,0c-0.7,0-1.3,0.5-1.6,1.3c-0.1,0.3-0.1,0.7-0.1,1V22h-1.1V17.5z"/>
	<path d="M52.2,17.5c0-0.2-0.1-0.2-0.2-0.2h-0.5v-0.9h1c0.5,0,0.7,0.2,0.7,0.7v3.7c0,0.2,0.1,0.2,0.2,0.2h0.5V22h-1
		c-0.5,0-0.7-0.2-0.7-0.7V17.5z M52.2,14.2h1v1.1h-1V14.2z"/>
	<path d="M57.9,18.5h0.2v-0.1c0-1-0.4-1.3-1.2-1.3c-0.3,0-0.9,0.1-0.9,0.4v0.3h-1v-0.5c0-0.9,1.4-1,1.9-1c1.8,0,2.3,0.9,2.3,2.2v2.4
		c0,0.2,0.1,0.2,0.2,0.2H60V22h-1c-0.5,0-0.7-0.2-0.7-0.6c0-0.2,0-0.3,0-0.3h0c0,0-0.4,1.1-1.8,1.1c-1,0-1.9-0.6-1.9-1.7
		C54.6,18.6,57,18.5,57.9,18.5z M56.7,21.2c0.9,0,1.5-0.9,1.5-1.8v-0.2h-0.3c-0.8,0-2.3,0-2.3,1.1C55.7,20.8,56,21.2,56.7,21.2z"/>
</g>
<g class="st0">
	<path d="M31.7,34h0.4c0.2,0,0.2-0.1,0.2-0.2l0.5-6.6H34l1.8,4.1c0.2,0.4,0.4,1,0.4,1h0c0,0,0.2-0.6,0.4-1l1.8-4.1h1.1l0.5,6.6
		c0,0.2,0.1,0.2,0.2,0.2h0.4V35h-1c-0.5,0-0.7-0.2-0.7-0.7l-0.3-4.1c0-0.5,0-1.1,0-1.1h0c0,0-0.2,0.7-0.4,1.1l-1.6,3.4h-0.9
		l-1.6-3.4C34,29.7,33.8,29,33.8,29h0c0,0,0,0.7,0,1.2l-0.3,4.1c0,0.5-0.2,0.7-0.7,0.7h-1V34z"/>
	<path d="M44.7,31.5h0.2v-0.1c0-1-0.4-1.3-1.2-1.3c-0.3,0-0.9,0.1-0.9,0.4v0.3h-1v-0.5c0-0.9,1.4-1,1.9-1c1.8,0,2.3,0.9,2.3,2.2v2.4
		c0,0.2,0.1,0.2,0.2,0.2h0.5V35h-1c-0.5,0-0.7-0.2-0.7-0.6c0-0.2,0-0.3,0-0.3h0c0,0-0.4,1.1-1.8,1.1c-1,0-1.9-0.6-1.9-1.7
		C41.3,31.6,43.7,31.5,44.7,31.5z M43.5,34.2c0.9,0,1.5-0.9,1.5-1.8v-0.2h-0.3c-0.8,0-2.3,0-2.3,1.1C42.4,33.8,42.7,34.2,43.5,34.2z
		"/>
	<path d="M50.3,29.3c0.7,0,2,0.3,2,1.2v0.6h-1v-0.3c0-0.4-0.6-0.6-1-0.6c-1.1,0-1.9,0.8-1.9,2c0,1.3,0.9,2,2,2c1,0,1.7-0.8,1.7-0.8
		l0.5,0.8c0,0-0.8,1-2.3,1c-1.8,0-3-1.2-3-2.9C47.3,30.5,48.5,29.3,50.3,29.3z"/>
	<path d="M53.6,28.3c0-0.2-0.1-0.2-0.2-0.2h-0.5v-0.9H54c0.5,0,0.7,0.2,0.7,0.7V30c0,0.3,0,0.5,0,0.5h0c0.2-0.5,1-1.2,2.1-1.2
		c1.3,0,1.9,0.7,1.9,2.1v2.4c0,0.2,0.1,0.2,0.2,0.2h0.5V35h-1c-0.5,0-0.7-0.2-0.7-0.7v-2.6c0-0.8-0.2-1.4-1.1-1.4
		c-0.8,0-1.5,0.6-1.8,1.4c-0.1,0.2-0.1,0.5-0.1,0.7V35h-1.1V28.3z"/>
	<path d="M63.3,31.5h0.2v-0.1c0-1-0.4-1.3-1.2-1.3c-0.3,0-0.9,0.1-0.9,0.4v0.3h-1v-0.5c0-0.9,1.4-1,1.9-1c1.8,0,2.3,0.9,2.3,2.2v2.4
		c0,0.2,0.1,0.2,0.2,0.2h0.5V35h-1c-0.5,0-0.7-0.2-0.7-0.6c0-0.2,0-0.3,0-0.3h0c0,0-0.4,1.1-1.8,1.1c-1,0-1.9-0.6-1.9-1.7
		C60,31.6,62.4,31.5,63.3,31.5z M62.1,34.2c0.9,0,1.5-0.9,1.5-1.8v-0.2h-0.3c-0.8,0-2.3,0-2.3,1.1C61.1,33.8,61.4,34.2,62.1,34.2z"
		/>
	<path d="M68.5,29.3c1.3,0,1.7,0.9,1.7,0.9h0c0,0,0-0.2,0-0.4v-1.4c0-0.2-0.1-0.2-0.2-0.2h-0.5v-0.9h1.1c0.5,0,0.7,0.2,0.7,0.7v5.9
		c0,0.2,0.1,0.2,0.2,0.2H72V35h-1c-0.5,0-0.7-0.2-0.7-0.6c0-0.2,0-0.3,0-0.3h0c0,0-0.5,1-1.8,1c-1.5,0-2.5-1.2-2.5-2.9
		C66,30.4,67,29.3,68.5,29.3z M70.2,32.2c0-1-0.5-2-1.6-2c-0.9,0-1.6,0.7-1.6,2c0,1.2,0.6,2,1.6,2C69.5,34.2,70.2,33.6,70.2,32.2z"
		/>
	<path d="M75.6,29.3c1.7,0,3,1.2,3,2.9c0,1.7-1.3,2.9-3,2.9c-1.7,0-3-1.2-3-2.9C72.6,30.5,73.9,29.3,75.6,29.3z M75.6,34.2
		c1.1,0,1.9-0.8,1.9-2c0-1.2-0.9-2-1.9-2c-1,0-1.9,0.8-1.9,2C73.7,33.3,74.6,34.2,75.6,34.2z"/>
</g>
<g class="st0">
	<path d="M32.6,41.4c0-0.2-0.1-0.2-0.2-0.2h-0.5v-0.9H33c0.5,0,0.7,0.2,0.7,0.7v5.9c0,0.2,0.1,0.2,0.2,0.2h2.1
		c0.2,0,0.2-0.1,0.2-0.2v-0.5h1v1c0,0.5-0.2,0.7-0.7,0.7h-3.3c-0.5,0-0.7-0.2-0.7-0.7V41.4z"/>
	<path d="M38.3,43.5c0-0.2-0.1-0.2-0.2-0.2h-0.5v-0.9h1c0.5,0,0.7,0.2,0.7,0.7v2.6c0,0.8,0.2,1.4,1,1.4c1.1,0,1.8-1,1.8-2.1v-2.6
		h1.1v4.4c0,0.2,0.1,0.2,0.2,0.2H44V48h-1c-0.5,0-0.7-0.2-0.7-0.6v-0.2c0-0.2,0-0.3,0-0.3h0c-0.2,0.6-0.9,1.3-2,1.3
		c-1.3,0-1.9-0.7-1.9-2.1V43.5z"/>
	<path d="M45.2,43.3h-0.7v-0.9h0.7v-1.5h1v1.5h1.3v0.9h-1.3v2.6c0,1.1,0.8,1.3,1.2,1.3c0.2,0,0.3,0,0.3,0V48c0,0-0.1,0-0.4,0
		c-0.7,0-2.1-0.2-2.1-2.1V43.3z"/>
	<path d="M48.9,41.3c0-0.2-0.1-0.2-0.2-0.2h-0.5v-0.9h1.1c0.5,0,0.7,0.2,0.7,0.7V43c0,0.3,0,0.5,0,0.5h0c0.2-0.5,1-1.2,2.1-1.2
		c1.3,0,1.9,0.7,1.9,2.1v2.4c0,0.2,0.1,0.2,0.2,0.2h0.5V48h-1c-0.5,0-0.7-0.2-0.7-0.7v-2.6c0-0.8-0.2-1.4-1.1-1.4
		c-0.8,0-1.5,0.6-1.8,1.4C50,44.8,50,45.1,50,45.4V48h-1.1V41.3z"/>
	<path d="M55.9,43.5c0-0.2-0.1-0.2-0.2-0.2h-0.5v-0.9h1c0.5,0,0.7,0.2,0.7,0.7v3.7c0,0.2,0.1,0.2,0.2,0.2h0.5V48h-1
		c-0.5,0-0.7-0.2-0.7-0.7V43.5z M55.9,40.2h1v1.1h-1V40.2z"/>
	<path d="M61.1,42.3c1.6,0,2.4,1.2,2.4,2.6c0,0.1,0,0.4,0,0.4h-4.1c0.1,1.2,0.9,1.9,1.9,1.9c1,0,1.6-0.6,1.6-0.6l0.5,0.8
		c0,0-0.8,0.8-2.1,0.8c-1.8,0-3-1.3-3-2.9C58.3,43.4,59.5,42.3,61.1,42.3z M62.4,44.5c0-0.9-0.6-1.4-1.3-1.4c-0.8,0-1.5,0.5-1.6,1.4
		H62.4z"/>
	<path d="M64.9,43.5c0-0.2-0.1-0.2-0.2-0.2h-0.5v-0.9h1c0.5,0,0.7,0.2,0.7,0.6v0.4c0,0.2,0,0.4,0,0.4h0c0.3-0.8,0.9-1.5,1.8-1.5
		c0.1,0,0.3,0,0.3,0v1.1c0,0-0.1,0-0.3,0c-0.7,0-1.3,0.5-1.6,1.3C66,45,66,45.3,66,45.7V48h-1.1V43.5z"/>
</g>
<g id="Grupo_89" transform="translate(10.096)">
	<path id="Trazado_21" d="M0.6,29.1c0.2,0,0.5-0.2,0.5-0.5l0,0c0-0.2-0.1-0.4-0.4-0.5c-0.3-0.2-0.7-0.2-1,0c-0.9,0.5-1,2.2-1,4.1
		c0,1.6-0.1,3.3-0.7,4c-0.1,0.1-0.2,0.1-0.3,0.1c0-0.2-0.2-0.4-0.4-0.4c-0.2,0-0.4,0.2-0.5,0.5c0,0.5,0.6,0.6,0.9,0.6
		c0.3,0,0.5-0.1,0.7-0.4c0.8-0.8,0.8-2.7,0.9-4.4c0-1.5,0.1-3.3,0.7-3.6c0.1,0,0.1,0,0.2,0c0,0,0,0,0,0C0.1,28.9,0.3,29.1,0.6,29.1z
		"/>
	<path id="Trazado_22" d="M6,32.3c0,1.8,0.1,3.6,0.9,4.4C7.1,36.9,7.3,37,7.6,37c0.3,0,0.9-0.1,0.9-0.6c0-0.2-0.2-0.4-0.5-0.5
		c-0.2,0-0.4,0.2-0.4,0.4c-0.1,0-0.2-0.1-0.3-0.1c-0.6-0.7-0.7-2.4-0.7-4c-0.1-2-0.1-3.6-1-4.1c-0.3-0.2-0.7-0.1-1,0
		c-0.3,0.2-0.4,0.4-0.4,0.5c0,0.2,0.2,0.5,0.4,0.5c0.2,0,0.5-0.2,0.5-0.4c0,0,0-0.1,0-0.1c0,0,0,0,0,0c0.1,0,0.1,0,0.2,0
		C5.9,29,5.9,30.7,6,32.3z"/>
	<path id="Trazado_23" d="M13.4,39.3c-0.8-1.4,0.8-1.9,0.5-2.5c-0.2-0.5-0.7,0-1.2,0.6c-0.3,0.3-1,1.2-0.5,2c2.8,4.7,1.8,8,0.4,10.1
		c-2.7,4-7.8,4.9-9.7,4.9V14c4.3,0.2,7.9,2,8.5,7.5c0.1,1.1-0.1,2.2-0.6,3.1l0,0c-0.4,0.7,0.2,1.4,0.4,1.7c0.4,0.5,0.8,0.9,1,0.5
		c0.2-0.5-1.1-0.9-0.4-2.1c0.2-0.3,0.3-0.6,0.5-0.9c0,0,0,0,0-0.1l0,0c1.7-3.3,1-7.4-1.8-9.9c-2-1.6-4.5-2.5-7-2.6l0,0
		c-0.2,0-0.4,0-0.5,0V0.3C2.9,0.1,2.8,0,2.6,0C2.4,0,2.2,0.2,2.2,0.3v10.8H2.1c-2.8,0-5.4,0.9-7.6,2.6c-2.7,2.3-3.8,6.6-1.2,10.9
		c0.7,1.2-0.7,1.6-0.4,2.1c0.2,0.4,0.6,0,1-0.5c0.2-0.3,0.8-1,0.4-1.7c-2.3-4-1.6-6.8-0.4-8.5c2.2-3.4,6.6-4.2,8.2-4.2
		c0,0,0,2.1,0,2.1h0v37.9c-5.2-0.2-9.5-2.3-10.3-8.8c-0.1-1.3,0.1-2.6,0.8-3.7l0,0c0.5-0.8-0.2-1.7-0.5-2c-0.4-0.5-0.9-1.1-1.2-0.6
		c-0.3,0.6,1.3,1.1,0.5,2.5C-8.6,39.6-8.8,40-9,40.4c0,0,0,0,0,0.1l0,0c-2.2,4.7-0.9,9.1,2.1,11.7c2.4,1.9,5.3,2.9,8.3,3.1l0,0
		c0.3,0,0.6,0.1,0.9,0.1v6.9c0,0.2,0.2,0.4,0.4,0.3c0.2,0,0.3-0.2,0.3-0.3v-6.9c3.2,0,6.4-1.1,8.9-3.1
		C15.1,49.4,16.3,44.4,13.4,39.3z"/>
</g>
</svg>
