<svg xmlns="http://www.w3.org/2000/svg" width="394" height="265.376" viewBox="0 0 394 265.376"><g transform="translate(-210 -7527.625)"><text transform="translate(344 7627)" fill="#fbfbfb" font-size="60" font-family="Museo-500, Museo" font-weight="500"><tspan x="0" y="0">Maria</tspan><tspan x="0" y="67">Machado</tspan><tspan x="0" y="134">Luthier</tspan></text><g transform="translate(210 7527.625)"><path d="M147.691,950.793a1.92,1.92,0,0,0,1.92-1.92c0-.807-.422-1.589-1.866-2.321a4.6,4.6,0,0,0-4.139-.048c-4,2.135-4.194,9.311-4.417,17.616-.177,6.658-.379,14.206-3.026,16.979a1.639,1.639,0,0,1-1.225.632,1.916,1.916,0,0,0-1.913-1.859,1.943,1.943,0,0,0-1.92,1.92c-.072,2.263,2.59,2.733,3.889,2.692a4.6,4.6,0,0,0,3.15-1.492c3.376-3.536,3.583-11.3,3.782-18.8.174-6.509.372-13.886,2.967-15.269a1.722,1.722,0,0,1,.889-.167c0,.04-.012.078-.012.117A1.92,1.92,0,0,0,147.691,950.793Z" transform="translate(-102.454 -827.083)" fill="#fbfbfb"/><path d="M157.447,964.193c.2,7.5.407,15.263,3.784,18.8a4.588,4.588,0,0,0,3.148,1.492c1.3.041,3.962-.429,3.889-2.692a1.94,1.94,0,0,0-1.92-1.92,1.916,1.916,0,0,0-1.913,1.859,1.636,1.636,0,0,1-1.223-.632c-2.647-2.773-2.85-10.32-3.028-16.979-.221-8.306-.414-15.481-4.417-17.616a4.6,4.6,0,0,0-4.139.048c-1.444.732-1.865,1.515-1.865,2.321a1.919,1.919,0,1,0,3.838,0c0-.04-.009-.078-.012-.117a1.722,1.722,0,0,1,.889.167C157.075,950.307,157.273,957.684,157.447,964.193Z" transform="translate(-89.186 -827.083)" fill="#fbfbfb"/><path d="M214,1044.488c-3.435-5.843,3.366-8.061,2.26-10.45-.918-1.984-3.107.177-4.892,2.5-1.067,1.391-4.149,4.9-2.09,8.441,11.719,20.143,7.8,33.88,1.895,42.848-11.272,17.1-33.067,20.871-41.382,20.873V937.139c18.427.893,33.567,8.619,36.2,31.8a21.385,21.385,0,0,1-2.76,13.167l-.038.064c-1.744,3,.867,5.97,1.771,7.149,1.511,1.97,3.364,3.8,4.142,2.121.937-2.025-4.822-3.9-1.913-8.852.781-1.328,1.478-2.655,2.1-3.976a1.906,1.906,0,0,0,.128-.272v0c7.788-16.805,3.066-32.8-7.543-41.988-7.477-6.478-18.881-10.4-29.764-11.038l0,0c-.771-.083-1.547-.146-2.326-.2V878.939a1.569,1.569,0,0,0-3.126,0v46.068c-.075,0-.151,0-.226,0h-.089c-11.907,0-23.957,4.118-32.135,11.2-11.5,9.963-16.082,27.918-5.312,46.238,2.909,4.949-2.851,6.826-1.913,8.85.778,1.68,2.631-.151,4.142-2.121.9-1.177,3.515-4.149,1.771-7.147-9.924-17.06-6.609-28.694-1.6-36.289,9.547-14.489,28.013-17.677,35.051-17.677.026,0,.163,8.989.188,8.989l.127,0v160.974c-22.182-.836-40.534-9.823-43.686-37.59a25.247,25.247,0,0,1,3.258-15.548l.045-.076c2.059-3.541-1.023-7.048-2.09-8.441-1.785-2.325-3.973-4.487-4.891-2.5-1.107,2.387,5.692,4.607,2.258,10.45q-1.382,2.351-2.48,4.694a2.381,2.381,0,0,0-.152.321h0c-9.194,19.845-3.618,38.727,8.908,49.579,8.829,7.65,22.3,12.281,35.143,13.034v0q1.83.2,3.69.286v29.211a1.569,1.569,0,0,0,3.126,0v-29.132c14.059,0,28.282-4.862,37.937-13.226C221.305,1087.321,226.717,1066.12,214,1044.488Z" transform="translate(-114.358 -877.503)" fill="#fbfbfb"/></g></g></svg>